<svg width="25" height="25" viewBox="0 0 25 25" fill="none" xmlns="http://www.w3.org/2000/svg">
<path d="M21.875 0H3.125C1.39911 0 0 1.39911 0 3.125V21.875C0 23.6009 1.39911 25 3.125 25H21.875C23.6009 25 25 23.6009 25 21.875V3.125C25 1.39911 23.6009 0 21.875 0ZM1.5625 6.02679C1.5625 5.28712 2.26206 4.6875 3.125 4.6875H21.875C22.7379 4.6875 23.4375 5.28712 23.4375 6.02679V22.0982C23.4375 22.8379 22.7379 23.4375 21.875 23.4375H3.125C2.26206 23.4375 1.5625 22.8379 1.5625 22.0982V6.02679Z" fill="black"/>
<path d="M10.1562 10.9375C11.0192 10.9375 11.7188 10.2379 11.7188 9.375C11.7188 8.51206 11.0192 7.8125 10.1562 7.8125C9.2933 7.8125 8.59375 8.51206 8.59375 9.375C8.59375 10.2379 9.2933 10.9375 10.1562 10.9375Z" fill="black"/>
<path d="M14.8438 10.9375C15.7067 10.9375 16.4062 10.2379 16.4062 9.375C16.4062 8.51206 15.7067 7.8125 14.8438 7.8125C13.9808 7.8125 13.2812 8.51206 13.2812 9.375C13.2812 10.2379 13.9808 10.9375 14.8438 10.9375Z" fill="black"/>
<path d="M19.5312 10.9375C20.3942 10.9375 21.0938 10.2379 21.0938 9.375C21.0938 8.51206 20.3942 7.8125 19.5312 7.8125C18.6683 7.8125 17.9688 8.51206 17.9688 9.375C17.9688 10.2379 18.6683 10.9375 19.5312 10.9375Z" fill="black"/>
<path d="M5.46875 15.625C6.33169 15.625 7.03125 14.9254 7.03125 14.0625C7.03125 13.1996 6.33169 12.5 5.46875 12.5C4.60581 12.5 3.90625 13.1996 3.90625 14.0625C3.90625 14.9254 4.60581 15.625 5.46875 15.625Z" fill="black"/>
<path d="M10.1562 15.625C11.0192 15.625 11.7188 14.9254 11.7188 14.0625C11.7188 13.1996 11.0192 12.5 10.1562 12.5C9.2933 12.5 8.59375 13.1996 8.59375 14.0625C8.59375 14.9254 9.2933 15.625 10.1562 15.625Z" fill="black"/>
<path d="M14.8438 15.625C15.7067 15.625 16.4062 14.9254 16.4062 14.0625C16.4062 13.1996 15.7067 12.5 14.8438 12.5C13.9808 12.5 13.2812 13.1996 13.2812 14.0625C13.2812 14.9254 13.9808 15.625 14.8438 15.625Z" fill="black"/>
<path d="M19.5312 15.625C20.3942 15.625 21.0938 14.9254 21.0938 14.0625C21.0938 13.1996 20.3942 12.5 19.5312 12.5C18.6683 12.5 17.9688 13.1996 17.9688 14.0625C17.9688 14.9254 18.6683 15.625 19.5312 15.625Z" fill="black"/>
<path d="M5.46875 20.3125C6.33169 20.3125 7.03125 19.6129 7.03125 18.75C7.03125 17.8871 6.33169 17.1875 5.46875 17.1875C4.60581 17.1875 3.90625 17.8871 3.90625 18.75C3.90625 19.6129 4.60581 20.3125 5.46875 20.3125Z" fill="black"/>
<path d="M10.1562 20.3125C11.0192 20.3125 11.7188 19.6129 11.7188 18.75C11.7188 17.8871 11.0192 17.1875 10.1562 17.1875C9.2933 17.1875 8.59375 17.8871 8.59375 18.75C8.59375 19.6129 9.2933 20.3125 10.1562 20.3125Z" fill="black"/>
<path d="M14.8438 20.3125C15.7067 20.3125 16.4062 19.6129 16.4062 18.75C16.4062 17.8871 15.7067 17.1875 14.8438 17.1875C13.9808 17.1875 13.2812 17.8871 13.2812 18.75C13.2812 19.6129 13.9808 20.3125 14.8438 20.3125Z" fill="black"/>
</svg>
