<svg width="48" height="55" fill="none" xmlns="http://www.w3.org/2000/svg"><path d="M27.223 47.743H3.929C2.31 47.743 1 46.378 1 44.694V4.048C1 2.365 2.311 1 3.929 1h27.336c1.617 0 2.928 1.365 2.928 3.048v26.42M15.644 11.162h13.668m-13.668 5.08h13.668M15.644 22.34h13.668m0 5.08H15.644" stroke="#F9F9F9" stroke-width="1.5" stroke-miterlimit="10" stroke-linecap="round" stroke-linejoin="round"/><path d="M27.224 33.516h-11.58m8.983 5.081h-8.982M5.882 11.161h4.882v5.08H5.882v-5.08Zm0 11.178h4.882v5.08H5.882v-5.08Zm0 11.177h4.882v5.081H5.882v-5.08Zm35.215 14.299c3.812-3.969 3.812-10.402 0-14.37-3.813-3.969-9.995-3.969-13.807 0-3.813 3.968-3.813 10.402 0 14.37s9.994 3.968 13.807 0Z" stroke="#F9F9F9" stroke-width="1.5" stroke-miterlimit="10" stroke-linecap="round" stroke-linejoin="round"/><path d="M34.194 34.533v6.072l2.929 3.074" stroke="#F9F9F9" stroke-width="1.5" stroke-miterlimit="10" stroke-linecap="round" stroke-linejoin="round"/></svg>