<svg width="56" height="52" fill="none" xmlns="http://www.w3.org/2000/svg"><mask id="a" fill="#fff"><path d="M44.798 24.143c-4.16 0-11.2-.782-11.2-3.714 0-2.933 7.04-3.714 11.2-3.714 4.16 0 11.2.781 11.2 3.714 0 2.932-7.04 3.714-11.2 3.714Zm0-5.571c-5.64 0-9.078 1.235-9.338 1.896.26.583 3.698 1.818 9.338 1.818 5.53 0 8.943-1.187 9.32-1.857-.377-.67-3.79-1.857-9.32-1.857Z"/></mask><path d="M44.798 24.143c-4.16 0-11.2-.782-11.2-3.714 0-2.933 7.04-3.714 11.2-3.714 4.16 0 11.2.781 11.2 3.714 0 2.932-7.04 3.714-11.2 3.714Zm0-5.571c-5.64 0-9.078 1.235-9.338 1.896.26.583 3.698 1.818 9.338 1.818 5.53 0 8.943-1.187 9.32-1.857-.377-.67-3.79-1.857-9.32-1.857Z" fill="#000"/><path d="m35.46 20.468-7.444-2.932-1.231 3.126 1.37 3.068 7.305-3.262Zm18.658-.04 6.973 3.922 2.206-3.921-2.206-3.922-6.973 3.922Zm-9.32-4.285c-1.736 0-3.829-.176-5.245-.525-.766-.189-.738-.287-.337-.018.241.161.816.59 1.357 1.404a6.223 6.223 0 0 1 1.026 3.425h-16c0 4.457 2.82 7.197 4.712 8.464 1.851 1.24 3.9 1.887 5.413 2.26 3.144.775 6.651.99 9.074.99v-16Zm-3.2 4.286c0 1.341-.43 2.53-1.025 3.425-.54.814-1.116 1.242-1.357 1.404-.4.268-.429.17.337-.018 1.416-.35 3.509-.525 5.245-.525v-16c-2.423 0-5.93.215-9.074.99-1.514.373-3.562 1.02-5.413 2.26-1.892 1.267-4.712 4.007-4.712 8.464h16Zm3.2 4.286c1.737 0 3.83.176 5.245.525.767.188.739.287.338.018-.242-.162-.817-.59-1.357-1.404a6.223 6.223 0 0 1-1.026-3.425h16c0-4.457-2.82-7.197-4.712-8.464-1.852-1.24-3.9-1.887-5.413-2.26-3.144-.775-6.652-.99-9.075-.99v16Zm3.2-4.286c0-1.341.431-2.53 1.026-3.425.54-.814 1.115-1.243 1.357-1.404.4-.269.429-.17-.338.018-1.415.35-3.508.525-5.245.525v16c2.423 0 5.93-.215 9.075-.99 1.514-.373 3.562-1.02 5.413-2.26 1.891-1.268 4.712-4.007 4.712-8.464h-16Zm-3.2-9.857c-3.373 0-6.29.366-8.59.93-1.125.275-2.29.644-3.357 1.142-.521.243-1.22.61-1.933 1.143-.5.373-2.042 1.567-2.902 3.75L42.903 23.4a7.566 7.566 0 0 1-1.414 2.292 6.98 6.98 0 0 1-.998.915 5.05 5.05 0 0 1-.87.534c-.174.081-.077.017.395-.1.893-.218 2.515-.47 4.782-.47v-16ZM28.155 23.73c.97 2.171 2.611 3.296 3.01 3.57.678.468 1.339.795 1.834 1.014 1.02.45 2.142.797 3.253 1.063 2.27.542 5.168.909 8.546.909v-16c-2.262 0-3.902-.25-4.827-.471-.485-.116-.624-.188-.499-.133.048.021.353.156.773.445.213.147.572.413.972.815a7.6 7.6 0 0 1 1.547 2.264l-14.61 6.524Zm16.643 6.556c3.31 0 6.176-.352 8.453-.896 1.118-.268 2.255-.62 3.297-1.086.513-.23 1.163-.557 1.828-1.015a8.875 8.875 0 0 0 2.715-2.939l-13.946-7.843a7.42 7.42 0 0 1 1.305-1.697c.344-.333.65-.56.847-.697.385-.264.662-.39.717-.414.122-.055-.01.016-.483.129-.907.217-2.512.458-4.733.458v16Zm16.293-13.779a8.867 8.867 0 0 0-2.715-2.938 11.495 11.495 0 0 0-1.828-1.016c-1.042-.466-2.18-.818-3.297-1.085-2.277-.544-5.144-.896-8.453-.896v16c2.221 0 3.826.24 4.733.458.473.113.605.183.483.128a4.608 4.608 0 0 1-.717-.414 6.643 6.643 0 0 1-.847-.696 7.422 7.422 0 0 1-1.305-1.697l13.946-7.844Z" fill="#F9F9F9" mask="url(#a)"/><mask id="b" fill="#fff"><path d="M44.798 29.715c-4.16 0-11.2-.783-11.2-3.714v-5.572a.936.936 0 0 1 1.867 0v5.572c.255.622 3.692 1.857 9.333 1.857s9.079-1.235 9.339-1.896l-.006-5.533a.936.936 0 0 1 1.867 0v5.572c0 2.931-7.04 3.714-11.2 3.714Z"/></mask><path d="M44.798 29.715c-4.16 0-11.2-.783-11.2-3.714v-5.572a.936.936 0 0 1 1.867 0v5.572c.255.622 3.692 1.857 9.333 1.857s9.079-1.235 9.339-1.896l-.006-5.533a.936.936 0 0 1 1.867 0v5.572c0 2.931-7.04 3.714-11.2 3.714Z" fill="#000"/><path d="M35.465 26h-8v1.575l.597 1.458L35.465 26Zm18.672-.038 7.444 2.931.557-1.417-.001-1.523-8 .009Zm-.006-5.533h-8v.008l8-.008Zm-9.333 1.286c-1.736 0-3.829-.176-5.244-.525-.767-.19-.739-.287-.338-.019.24.161.816.59 1.357 1.404A6.225 6.225 0 0 1 41.599 26h-16c0 4.457 2.822 7.197 4.712 8.463 1.851 1.24 3.899 1.887 5.413 2.26 3.144.776 6.65.99 9.074.99v-16ZM41.598 26v-5.572h-16V26h16Zm0-5.572a7.074 7.074 0 0 1-2.084 5.015L28.23 14.101a8.926 8.926 0 0 0-2.631 6.328h16Zm-2.084 5.015a7.064 7.064 0 0 1-4.982 2.057v-16c-2.356 0-4.624.93-6.302 2.6l11.284 11.343ZM34.532 27.5a7.064 7.064 0 0 1-4.982-2.057L40.834 14.1a8.936 8.936 0 0 0-6.302-2.6v16Zm-4.982-2.057a7.074 7.074 0 0 1-2.085-5.015h16a8.926 8.926 0 0 0-2.63-6.328L29.548 25.444Zm-2.085-5.015V26h16v-5.572h-16Zm.597 8.604c.906 2.212 2.515 3.39 2.967 3.715.7.505 1.384.854 1.892 1.086 1.045.475 2.19.833 3.308 1.104 2.285.553 5.194.92 8.57.92v-16c-2.266 0-3.897-.251-4.804-.47-.479-.117-.593-.184-.44-.115.062.029.391.179.832.497.226.163.594.45.997.88a7.588 7.588 0 0 1 1.484 2.319l-14.806 6.064Zm16.736 6.825c3.374 0 6.29-.366 8.592-.93 1.125-.276 2.29-.644 3.356-1.143.521-.243 1.22-.61 1.933-1.142.501-.374 2.042-1.568 2.901-3.75L46.695 23.03a7.566 7.566 0 0 1 1.413-2.292 6.98 6.98 0 0 1 .998-.915c.453-.338.797-.5.871-.535.173-.08.077-.016-.395.1-.893.218-2.515.47-4.783.47v16Zm17.339-9.904-.006-5.533-16 .016.006 5.533 16-.017Zm-.006-5.525a7.074 7.074 0 0 1-2.084 5.015L48.762 14.101a8.926 8.926 0 0 0-2.63 6.328h16Zm-2.084 5.015a7.064 7.064 0 0 1-4.982 2.057v-16c-2.356 0-4.624.93-6.303 2.6l11.285 11.343ZM55.065 27.5a7.064 7.064 0 0 1-4.983-2.057L61.367 14.1a8.936 8.936 0 0 0-6.302-2.6v16Zm-4.983-2.057a7.074 7.074 0 0 1-2.084-5.015h16a8.926 8.926 0 0 0-2.63-6.328L50.081 25.444Zm-2.084-5.015V26h16v-5.572h-16Zm0 5.572c0-1.342.432-2.532 1.026-3.426.54-.814 1.116-1.243 1.357-1.404.4-.268.428-.17-.338.019-1.416.349-3.508.525-5.245.525v16c2.424 0 5.931-.215 9.075-.99 1.514-.374 3.562-1.021 5.412-2.26 1.891-1.267 4.713-4.007 4.713-8.464h-16Z" fill="#F9F9F9" mask="url(#b)"/><mask id="c" fill="#fff"><path d="M44.798 35.286c-4.16 0-11.2-.783-11.2-3.714V26a.936.936 0 0 1 1.867 0v5.572c.255.623 3.692 1.857 9.333 1.857s9.079-1.234 9.339-1.896L54.131 26a.936.936 0 0 1 1.867 0v5.572c0 2.931-7.04 3.714-11.2 3.714Z"/></mask><path d="M44.798 35.286c-4.16 0-11.2-.783-11.2-3.714V26a.936.936 0 0 1 1.867 0v5.572c.255.623 3.692 1.857 9.333 1.857s9.079-1.234 9.339-1.896L54.131 26a.936.936 0 0 1 1.867 0v5.572c0 2.931-7.04 3.714-11.2 3.714Z" fill="#000"/><path d="M35.465 31.572h-8v1.572l.596 1.456 7.404-3.028Zm18.672-.04 7.445 2.929.556-1.416-.001-1.52-8 .008ZM54.131 26h-8v.008l8-.008Zm-9.333 1.286c-1.736 0-3.829-.176-5.244-.525-.767-.19-.739-.287-.338-.019.24.162.816.59 1.357 1.404a6.225 6.225 0 0 1 1.026 3.426h-16c0 4.457 2.822 7.197 4.712 8.463 1.851 1.24 3.899 1.887 5.413 2.26 3.144.776 6.65.99 9.074.99v-16Zm-3.2 4.286V26h-16v5.572h16Zm0-5.572a7.074 7.074 0 0 1-2.084 5.015L28.23 19.672A8.926 8.926 0 0 0 25.599 26h16Zm-2.084 5.015a7.064 7.064 0 0 1-4.982 2.057v-16c-2.356 0-4.624.93-6.302 2.6l11.284 11.343Zm-4.982 2.057a7.064 7.064 0 0 1-4.982-2.057l11.284-11.343a8.936 8.936 0 0 0-6.302-2.6v16Zm-4.982-2.057A7.074 7.074 0 0 1 27.464 26h16a8.926 8.926 0 0 0-2.63-6.328L29.548 31.015ZM27.464 26v5.572h16V26h-16Zm.596 8.6c.904 2.213 2.513 3.39 2.966 3.718.7.505 1.385.855 1.894 1.087 1.045.476 2.19.834 3.309 1.104 2.285.553 5.193.92 8.568.92v-16c-2.265 0-3.897-.25-4.804-.47-.478-.116-.592-.184-.44-.114.063.028.393.18.835.498a6.8 6.8 0 0 1 .998.881 7.59 7.59 0 0 1 1.483 2.32L28.06 34.6Zm16.737 6.829c3.373 0 6.29-.366 8.591-.93 1.125-.275 2.29-.644 3.358-1.143a11.012 11.012 0 0 0 1.935-1.144c.502-.375 2.042-1.57 2.9-3.751l-14.89-5.856a7.564 7.564 0 0 1 1.412-2.293 6.82 6.82 0 0 1 1-.916c.453-.339.797-.501.872-.536.173-.081.078-.017-.394.099-.893.219-2.516.47-4.784.47v16Zm17.339-9.904-.006-5.533-16 .016.006 5.533 16-.016ZM62.131 26a7.074 7.074 0 0 1-2.084 5.015L48.762 19.672A8.926 8.926 0 0 0 46.132 26h16Zm-2.084 5.015a7.064 7.064 0 0 1-4.982 2.057v-16c-2.356 0-4.624.93-6.303 2.6l11.285 11.343Zm-4.982 2.057a7.064 7.064 0 0 1-4.983-2.057l11.285-11.343a8.936 8.936 0 0 0-6.302-2.6v16Zm-4.983-2.057A7.074 7.074 0 0 1 47.998 26h16a8.926 8.926 0 0 0-2.63-6.328L50.081 31.015ZM47.998 26v5.572h16V26h-16Zm0 5.572c0-1.342.432-2.532 1.026-3.426.54-.814 1.116-1.242 1.357-1.404.4-.268.428-.17-.338.019-1.416.349-3.508.525-5.245.525v16c2.424 0 5.931-.215 9.075-.99 1.514-.374 3.562-1.021 5.412-2.26 1.891-1.267 4.713-4.007 4.713-8.464h-16Z" fill="#F9F9F9" mask="url(#c)"/><mask id="d" fill="#fff"><path d="M44.8 40.858c-4.16 0-11.2-.783-11.2-3.714v-5.572a.936.936 0 0 1 1.867 0v5.572C35.722 37.767 39.159 39 44.8 39c5.64 0 9.078-1.234 9.339-1.896l-.006-5.533c0-.246.098-.482.273-.656a.936.936 0 0 1 1.594.656v5.572c0 2.93-7.04 3.714-11.2 3.714ZM28 35.286c-4.16 0-11.2-.782-11.2-3.714 0-2.931 7.04-3.714 11.2-3.714.981 0 1.947.036 2.873.108a.925.925 0 0 1 .534 1.632.936.936 0 0 1-.68.22A35.546 35.546 0 0 0 28 29.714c-5.64 0-9.078 1.234-9.338 1.896.26.584 3.698 1.818 9.338 1.818.934 0 1.85-.034 2.728-.102a.937.937 0 0 1 .904.505.924.924 0 0 1-.408 1.248.937.937 0 0 1-.35.099 37.79 37.79 0 0 1-2.873.107Z"/></mask><path d="M44.8 40.858c-4.16 0-11.2-.783-11.2-3.714v-5.572a.936.936 0 0 1 1.867 0v5.572C35.722 37.767 39.159 39 44.8 39c5.64 0 9.078-1.234 9.339-1.896l-.006-5.533c0-.246.098-.482.273-.656a.936.936 0 0 1 1.594.656v5.572c0 2.93-7.04 3.714-11.2 3.714ZM28 35.286c-4.16 0-11.2-.782-11.2-3.714 0-2.931 7.04-3.714 11.2-3.714.981 0 1.947.036 2.873.108a.925.925 0 0 1 .534 1.632.936.936 0 0 1-.68.22A35.546 35.546 0 0 0 28 29.714c-5.64 0-9.078 1.234-9.338 1.896.26.584 3.698 1.818 9.338 1.818.934 0 1.85-.034 2.728-.102a.937.937 0 0 1 .904.505.924.924 0 0 1-.408 1.248.937.937 0 0 1-.35.099 37.79 37.79 0 0 1-2.873.107Z" fill="#F9F9F9"/><path d="M35.467 37.144h-8v1.572l.595 1.456 7.405-3.028Zm18.672-.04 7.445 2.929.556-1.416-.001-1.52-8 .008Zm-.006-5.532h-8v.008l8-.008Zm-23.26-3.606.621-7.976h-.005l-.616 7.976Zm-.145 1.851.62-7.976h-.004l-.616 7.976Zm-12.066 1.794-7.445-2.928-1.228 3.122 1.366 3.064 7.307-3.258Zm12.066 1.716.616 7.976h.004l-.62-7.976Zm.145 1.852.616 7.976h.005l-.62-7.976ZM44.8 32.858c-1.736 0-3.829-.176-5.245-.525-.766-.19-.738-.288-.337-.02.24.162.816.59 1.356 1.404a6.225 6.225 0 0 1 1.026 3.427h-16c0 4.457 2.822 7.197 4.713 8.463 1.85 1.24 3.899 1.887 5.412 2.26 3.144.775 6.651.99 9.075.99v-16Zm-3.2 4.286v-5.572h-16v5.572h16Zm0-5.572a7.074 7.074 0 0 1-2.084 5.015L28.231 25.244a8.926 8.926 0 0 0-2.63 6.328h16Zm-2.084 5.015a7.064 7.064 0 0 1-4.982 2.057v-16c-2.356 0-4.624.93-6.303 2.6l11.285 11.343Zm-4.982 2.057a7.064 7.064 0 0 1-4.983-2.057l11.285-11.343a8.936 8.936 0 0 0-6.302-2.6v16Zm-4.983-2.057a7.074 7.074 0 0 1-2.084-5.015h16a8.926 8.926 0 0 0-2.631-6.328L29.551 36.587Zm-2.084-5.015v5.572h16v-5.572h-16Zm.595 8.6c.905 2.213 2.513 3.39 2.966 3.717.701.506 1.386.855 1.895 1.087 1.045.477 2.19.834 3.309 1.105 2.285.553 5.193.92 8.568.92V31c-2.266 0-3.897-.251-4.804-.47-.479-.117-.593-.184-.44-.114.063.028.393.179.835.498.226.163.594.45.998.881a7.588 7.588 0 0 1 1.483 2.32l-14.81 6.056ZM44.8 47c3.373 0 6.29-.366 8.59-.93 1.126-.276 2.29-.644 3.358-1.143a11.012 11.012 0 0 0 1.935-1.144c.502-.375 2.042-1.57 2.9-3.751l-14.89-5.857a7.564 7.564 0 0 1 1.413-2.292c.398-.443.766-.742.999-.916.453-.339.798-.502.872-.536.174-.081.078-.017-.394.099-.893.218-2.515.47-4.783.47v16Zm17.339-9.905-.006-5.532-16 .016.006 5.533 16-.017Zm-.006-5.524a7.074 7.074 0 0 1-2.084 5.015L48.764 25.244a8.926 8.926 0 0 0-2.63 6.328h16Zm-2.084 5.015a7.064 7.064 0 0 1-4.983 2.057v-16c-2.356 0-4.623.93-6.302 2.6L60.05 36.587Zm-4.983 2.057a7.064 7.064 0 0 1-4.982-2.057l11.285-11.343a8.936 8.936 0 0 0-6.303-2.6v16Zm-4.982-2.057A7.074 7.074 0 0 1 48 31.572h16a8.926 8.926 0 0 0-2.631-6.328L50.084 36.587ZM48 31.572v5.572h16v-5.572H48Zm0 5.572c0-1.342.431-2.532 1.026-3.426.54-.814 1.116-1.243 1.357-1.404.4-.269.428-.17-.338.019-1.416.349-3.509.525-5.245.525v16c2.424 0 5.93-.216 9.075-.99 1.514-.374 3.561-1.021 5.412-2.26C61.177 44.34 64 41.6 64 37.143H48Zm-20-9.858c-1.736 0-3.828-.176-5.244-.525-.767-.189-.739-.287-.338-.018.24.16.816.59 1.357 1.403a6.224 6.224 0 0 1 1.026 3.426h-16c0 4.458 2.822 7.197 4.713 8.464 1.85 1.24 3.898 1.887 5.412 2.26 3.144.775 6.65.99 9.075.99v-16Zm-3.2 4.286a6.224 6.224 0 0 1-1.025 3.426c-.54.814-1.116 1.242-1.357 1.404-.4.268-.428.17.338-.019 1.416-.349 3.508-.525 5.244-.525v-16c-2.423 0-5.93.215-9.074.99-1.514.373-3.562 1.02-5.412 2.26-1.891 1.267-4.713 4.007-4.713 8.464h16Zm3.2 4.286c.787 0 1.547.03 2.257.084l1.232-15.953A45.468 45.468 0 0 0 28 19.858v16Zm2.252.084a7.065 7.065 0 0 1-4.81-2.44l12.136-10.428a8.935 8.935 0 0 0-6.084-3.084l-1.242 15.95Zm-4.81-2.44a7.075 7.075 0 0 1-1.686-5.165l15.95 1.254a8.925 8.925 0 0 0-2.128-6.517L25.442 33.502Zm-1.686-5.165a7.073 7.073 0 0 1 2.468-4.834L36.59 35.691a8.927 8.927 0 0 0 3.116-6.1l-15.95-1.254Zm2.468-4.834a7.064 7.064 0 0 1 5.124-1.662l-1.241 15.952a8.936 8.936 0 0 0 6.483-2.102L26.224 23.503Zm5.12-1.662A43.565 43.565 0 0 0 28 21.715v16c.74 0 1.45.027 2.111.078l1.233-15.952ZM28 21.715c-3.372 0-6.29.366-8.59.93-1.125.275-2.29.644-3.358 1.142-.521.244-1.221.611-1.935 1.145-.502.375-2.042 1.569-2.9 3.751l14.89 5.856a7.565 7.565 0 0 1-1.412 2.293 6.923 6.923 0 0 1-1 .916 5.057 5.057 0 0 1-.872.536c-.174.08-.078.017.394-.099.893-.219 2.515-.47 4.784-.47v-16ZM11.355 34.869c.968 2.172 2.609 3.297 3.008 3.573.68.469 1.341.796 1.837 1.015 1.02.451 2.143.798 3.255 1.063 2.269.542 5.168.91 8.546.91v-16c-2.264 0-3.904-.25-4.829-.472-.485-.116-.623-.188-.497-.132.049.021.355.156.774.446.214.148.573.414.974.817a7.6 7.6 0 0 1 1.546 2.265l-14.614 6.515ZM28 41.429c1.127 0 2.25-.041 3.344-.126L30.11 25.351c-.66.05-1.37.078-2.11.078v16Zm3.348-.126a7.062 7.062 0 0 1-2.723-.322l4.928-15.222a8.936 8.936 0 0 0-3.446-.408l1.241 15.952Zm-2.723-.322a7.067 7.067 0 0 1-2.401-1.34L36.59 27.453a8.934 8.934 0 0 0-3.037-1.694L28.625 40.98Zm-2.401-1.34a7.072 7.072 0 0 1-1.714-2.166l14.244-7.287a8.93 8.93 0 0 0-2.164-2.735L26.224 39.641Zm-1.714-2.166a7.076 7.076 0 0 1-.755-2.667l15.951-1.255a8.925 8.925 0 0 0-.952-3.365L24.51 37.475Zm-.755-2.667a7.077 7.077 0 0 1 .33-2.755l15.206 4.974c.367-1.119.508-2.3.415-3.474l-15.95 1.255Zm.33-2.755a7.072 7.072 0 0 1 1.357-2.41L37.578 40.07a8.928 8.928 0 0 0 1.713-3.043l-15.207-4.974Zm1.357-2.41a7.067 7.067 0 0 1 2.168-1.7l7.228 14.275a8.935 8.935 0 0 0 2.74-2.148L25.442 29.643Zm2.168-1.7a7.061 7.061 0 0 1 2.642-.74l1.242 15.951a8.937 8.937 0 0 0 3.344-.936L27.61 27.943Zm2.647-.74c-.71.054-1.47.083-2.257.083v16c1.175 0 2.347-.043 3.49-.131l-1.233-15.953Z" fill="#F9F9F9" mask="url(#d)"/><mask id="e" fill="#fff"><path d="M28 40.856c-4.16 0-11.2-.782-11.2-3.714v-5.571a.936.936 0 0 1 1.593-.657c.176.174.274.41.274.657v5.571C18.922 37.765 22.36 39 28 39c.934 0 1.85-.034 2.728-.102a.937.937 0 0 1 .904.505.924.924 0 0 1-.408 1.249.937.937 0 0 1-.35.098 37.79 37.79 0 0 1-2.873.107Z"/></mask><path d="M28 40.856c-4.16 0-11.2-.782-11.2-3.714v-5.571a.936.936 0 0 1 1.593-.657c.176.174.274.41.274.657v5.571C18.922 37.765 22.36 39 28 39c.934 0 1.85-.034 2.728-.102a.937.937 0 0 1 .904.505.924.924 0 0 1-.408 1.249.937.937 0 0 1-.35.098 37.79 37.79 0 0 1-2.873.107Z" fill="#F9F9F9"/><path d="M18.667 37.142h-8v1.573l.596 1.455 7.404-3.028Zm12.06 1.755.617 7.976h.004l-.62-7.976Zm.146 1.852.616 7.976h.005l-.62-7.976ZM28 32.856c-1.736 0-3.828-.176-5.244-.525-.767-.189-.739-.287-.338-.018.24.161.816.59 1.357 1.403a6.224 6.224 0 0 1 1.026 3.426h-16c0 4.458 2.822 7.197 4.713 8.464 1.85 1.24 3.898 1.887 5.412 2.26 3.144.775 6.65.99 9.075.99v-16Zm-3.2 4.286v-5.571h-16v5.571h16Zm0-5.571a7.074 7.074 0 0 1-2.084 5.015L11.432 25.243A8.926 8.926 0 0 0 8.8 31.571h16Zm-2.084 5.015a7.064 7.064 0 0 1-4.982 2.056v-16a8.934 8.934 0 0 0-6.302 2.601l11.284 11.343Zm-4.982 2.056a7.064 7.064 0 0 1-4.982-2.056l11.284-11.343a8.936 8.936 0 0 0-6.302-2.6v16Zm-4.982-2.056a7.074 7.074 0 0 1-2.085-5.015h16a8.926 8.926 0 0 0-2.63-6.328L12.751 36.586Zm-2.085-5.015v5.571h16v-5.571h-16Zm.596 8.6c.905 2.212 2.513 3.39 2.966 3.717a11.1 11.1 0 0 0 1.894 1.087c1.046.477 2.191.834 3.309 1.105 2.285.553 5.193.92 8.569.92V31c-2.266 0-3.897-.251-4.805-.471-.478-.116-.592-.183-.44-.114.064.029.394.18.836.499.226.163.594.45.997.881a7.593 7.593 0 0 1 1.483 2.32l-14.81 6.055ZM28 46.998c1.127 0 2.25-.041 3.344-.126L30.11 30.921c-.66.051-1.37.078-2.11.078v16Zm3.348-.126a7.062 7.062 0 0 1-2.723-.322l4.928-15.222a8.938 8.938 0 0 0-3.446-.408l1.241 15.952Zm-2.723-.322a7.067 7.067 0 0 1-2.401-1.34L36.59 33.023a8.936 8.936 0 0 0-3.037-1.694L28.625 46.55Zm-2.401-1.34a7.072 7.072 0 0 1-1.714-2.166l14.244-7.287a8.93 8.93 0 0 0-2.164-2.735L26.224 45.211Zm-1.714-2.166a7.076 7.076 0 0 1-.755-2.667l15.951-1.255a8.925 8.925 0 0 0-.952-3.365L24.51 43.045Zm-.755-2.667a7.077 7.077 0 0 1 .33-2.755l15.206 4.974c.367-1.118.508-2.3.415-3.474l-15.95 1.255Zm.33-2.755a7.073 7.073 0 0 1 1.357-2.41L37.578 45.64a8.927 8.927 0 0 0 1.713-3.043l-15.207-4.974Zm1.357-2.41a7.068 7.068 0 0 1 2.168-1.7l7.228 14.275a8.935 8.935 0 0 0 2.74-2.148L25.442 35.213Zm2.168-1.7a7.061 7.061 0 0 1 2.642-.74l1.242 15.952a8.937 8.937 0 0 0 3.344-.937L27.61 33.513Zm2.647-.74c-.71.054-1.47.083-2.257.083v16c1.175 0 2.347-.043 3.49-.131l-1.233-15.953Z" fill="#F9F9F9" mask="url(#e)"/><mask id="f" fill="#fff"><path d="M28 46.428c-4.16 0-11.2-.782-11.2-3.714v-5.571c0-.247.098-.483.273-.657a.936.936 0 0 1 1.593.657v5.571c.255.623 3.692 1.857 9.333 1.857.934 0 1.85-.034 2.727-.102a.937.937 0 0 1 .905.505.926.926 0 0 1-.759 1.347 37.48 37.48 0 0 1-2.873.107Zm-16.8-5.571c-4.16 0-11.2-.783-11.2-3.714 0-2.932 7.04-3.715 11.2-3.715.98 0 1.947.037 2.872.108a.938.938 0 0 1 .815.639.924.924 0 0 1-.28.993.936.936 0 0 1-.68.22 35.547 35.547 0 0 0-2.727-.102c-5.641 0-9.079 1.234-9.339 1.896C2.121 37.766 5.559 39 11.2 39c.933 0 1.85-.035 2.727-.102a.94.94 0 0 1 .904.504.924.924 0 0 1-.408 1.249.938.938 0 0 1-.35.098c-.926.072-1.892.108-2.873.108Z"/></mask><path d="M28 46.428c-4.16 0-11.2-.782-11.2-3.714v-5.571c0-.247.098-.483.273-.657a.936.936 0 0 1 1.593.657v5.571c.255.623 3.692 1.857 9.333 1.857.934 0 1.85-.034 2.727-.102a.937.937 0 0 1 .905.505.926.926 0 0 1-.759 1.347 37.48 37.48 0 0 1-2.873.107Zm-16.8-5.571c-4.16 0-11.2-.783-11.2-3.714 0-2.932 7.04-3.715 11.2-3.715.98 0 1.947.037 2.872.108a.938.938 0 0 1 .815.639.924.924 0 0 1-.28.993.936.936 0 0 1-.68.22 35.547 35.547 0 0 0-2.727-.102c-5.641 0-9.079 1.234-9.339 1.896C2.121 37.766 5.559 39 11.2 39c.933 0 1.85-.035 2.727-.102a.94.94 0 0 1 .904.504.924.924 0 0 1-.408 1.249.938.938 0 0 1-.35.098c-.926.072-1.892.108-2.873.108Z" fill="#F9F9F9"/><path d="M18.666 42.714h-8v1.573l.595 1.455 7.405-3.028Zm12.06 1.755.617 7.976h.004l-.62-7.976Zm.146 1.852.616 7.976h.005l-.621-7.976Zm-16.8-12.785.621-7.976h-.005l-.616 7.976Zm-.145 1.852.62-7.976h-.004l-.616 7.976ZM1.86 37.182l-7.445-2.928-1.228 3.121 1.366 3.064 7.307-3.257Zm12.066 1.716.616 7.976h.005l-.621-7.976Zm.145 1.851.616 7.976h.005l-.62-7.976ZM28 38.43c-1.736 0-3.828-.177-5.244-.526-.767-.189-.739-.287-.338-.019.24.162.816.59 1.356 1.404a6.224 6.224 0 0 1 1.027 3.426h-16c0 4.458 2.821 7.197 4.712 8.464 1.851 1.24 3.899 1.887 5.412 2.26 3.144.775 6.652.99 9.075.99v-16Zm-3.2 4.285v-5.571h-16v5.571h16Zm0-5.571a7.074 7.074 0 0 1-2.084 5.014L11.431 30.815A8.926 8.926 0 0 0 8.8 37.143h16Zm-2.084 5.014a7.064 7.064 0 0 1-4.982 2.057v-16c-2.356 0-4.624.93-6.303 2.6l11.285 11.343Zm-4.982 2.057a7.064 7.064 0 0 1-4.983-2.057l11.285-11.342a8.936 8.936 0 0 0-6.302-2.6v16Zm-4.983-2.057a7.074 7.074 0 0 1-2.084-5.014h16a8.926 8.926 0 0 0-2.63-6.328L12.75 42.157Zm-2.084-5.014v5.571h16v-5.571h-16Zm.595 8.6c.905 2.212 2.514 3.39 2.967 3.717a11.1 11.1 0 0 0 1.894 1.087c1.045.476 2.19.834 3.309 1.105 2.285.553 5.193.92 8.568.92v-16c-2.265 0-3.896-.252-4.804-.471-.478-.116-.593-.184-.44-.114.063.029.393.18.835.498.227.164.595.451.998.882a7.59 7.59 0 0 1 1.483 2.319l-14.81 6.056ZM28 52.57c1.127 0 2.25-.041 3.344-.126L30.11 36.493c-.66.05-1.371.078-2.11.078v16Zm3.348-.126a7.062 7.062 0 0 1-2.723-.322L33.552 36.9a8.938 8.938 0 0 0-3.446-.408l1.241 15.952Zm-2.723-.322a7.066 7.066 0 0 1-2.401-1.34L36.59 38.594a8.936 8.936 0 0 0-3.037-1.694l-4.928 15.222Zm-2.401-1.34a7.07 7.07 0 0 1-1.714-2.166l14.244-7.287a8.928 8.928 0 0 0-2.164-2.735L26.223 50.783Zm-1.714-2.166a7.075 7.075 0 0 1-.755-2.667l15.951-1.255a8.925 8.925 0 0 0-.952-3.365L24.51 48.617Zm-.755-2.667a7.077 7.077 0 0 1 .33-2.755l15.206 4.974c.366-1.119.507-2.3.415-3.474l-15.95 1.255Zm.33-2.755a7.076 7.076 0 0 1 1.357-2.41l12.135 10.427a8.928 8.928 0 0 0 1.714-3.043l-15.207-4.974Zm1.357-2.41a7.067 7.067 0 0 1 2.168-1.7l7.227 14.275a8.934 8.934 0 0 0 2.74-2.148L25.441 40.784Zm2.168-1.7a7.061 7.061 0 0 1 2.642-.74l1.242 15.951a8.936 8.936 0 0 0 3.343-.936L27.61 39.085Zm2.647-.74c-.71.054-1.47.083-2.257.083v16c1.175 0 2.347-.043 3.489-.131l-1.232-15.953ZM11.2 32.856c-1.736 0-3.83-.176-5.245-.525-.766-.19-.739-.287-.338-.019.241.161.816.59 1.357 1.404A6.224 6.224 0 0 1 8 37.143H-8c0 4.457 2.822 7.197 4.713 8.463 1.85 1.24 3.898 1.887 5.412 2.26 3.144.776 6.651.99 9.075.99v-16ZM8 37.143a6.225 6.225 0 0 1-1.026 3.426c-.54.813-1.116 1.242-1.357 1.403-.4.269-.428.17.338-.018 1.416-.35 3.509-.526 5.245-.526v-16c-2.424 0-5.931.216-9.075.99-1.514.374-3.561 1.021-5.412 2.261C-5.178 29.946-8 32.685-8 37.143H8Zm3.2 4.285c.787 0 1.547.03 2.257.084l1.231-15.952a45.468 45.468 0 0 0-3.488-.131v16Zm2.252.084a7.064 7.064 0 0 1-2.643-.74l7.228-14.275a8.937 8.937 0 0 0-3.344-.937l-1.241 15.952Zm-2.643-.74a7.067 7.067 0 0 1-2.168-1.7l12.136-10.427a8.932 8.932 0 0 0-2.74-2.148l-7.228 14.275Zm-2.168-1.7a7.073 7.073 0 0 1-1.357-2.41l15.207-4.974a8.928 8.928 0 0 0-1.714-3.043L8.64 39.072Zm-1.357-2.41a7.076 7.076 0 0 1-.33-2.755l15.951 1.255a8.923 8.923 0 0 0-.414-3.474L7.284 36.662Zm-.33-2.755c.074-.931.33-1.838.755-2.667l14.245 7.287c.535-1.047.86-2.19.951-3.366l-15.95-1.254Zm.755-2.667a7.07 7.07 0 0 1 1.714-2.166L19.79 41.262a8.93 8.93 0 0 0 2.165-2.736L7.709 31.24Zm1.714-2.166a7.063 7.063 0 0 1 2.401-1.34l4.929 15.222a8.936 8.936 0 0 0 3.036-1.694L9.423 29.074Zm2.401-1.34a7.063 7.063 0 0 1 2.724-.322l-1.242 15.952a8.938 8.938 0 0 0 3.447-.408l-4.929-15.222Zm2.72-.323a43.565 43.565 0 0 0-3.344-.125v16c.74 0 1.45.027 2.11.078l1.233-15.952Zm-3.344-.125c-3.373 0-6.29.365-8.591.93-1.125.275-2.29.643-3.358 1.142-.521.243-1.221.61-1.935 1.144-.502.375-2.042 1.57-2.9 3.752l14.89 5.856a7.566 7.566 0 0 1-1.412 2.292 6.914 6.914 0 0 1-1 .916 5.058 5.058 0 0 1-.872.536c-.173.081-.078.017.394-.098.893-.22 2.516-.47 4.784-.47v-16ZM-5.446 40.439c.969 2.172 2.609 3.298 3.009 3.573.68.47 1.34.796 1.836 1.016 1.02.451 2.143.797 3.255 1.063 2.269.542 5.168.909 8.546.909V31c-2.263 0-3.904-.25-4.828-.471-.486-.116-.623-.188-.498-.132.049.021.355.156.775.446.214.147.572.414.973.817a7.603 7.603 0 0 1 1.546 2.264L-5.446 40.44ZM11.2 47c1.127 0 2.25-.04 3.343-.125L13.311 30.92c-.661.052-1.372.079-2.111.079v16Zm3.348-.126a7.06 7.06 0 0 1-2.724-.322l4.929-15.222a8.938 8.938 0 0 0-3.447-.407l1.242 15.951Zm-2.724-.322a7.064 7.064 0 0 1-2.4-1.34l10.365-12.187a8.935 8.935 0 0 0-3.036-1.695l-4.929 15.222Zm-2.4-1.34a7.071 7.071 0 0 1-1.715-2.165l14.245-7.287a8.93 8.93 0 0 0-2.165-2.735L9.423 45.212Zm-1.715-2.165a7.075 7.075 0 0 1-.754-2.668l15.95-1.254a8.925 8.925 0 0 0-.951-3.365L7.709 43.046Zm-.754-2.668a7.076 7.076 0 0 1 .329-2.754l15.207 4.974c.366-1.119.507-2.3.415-3.474L6.954 40.378Zm.329-2.754a7.073 7.073 0 0 1 1.357-2.41L20.777 45.64a8.928 8.928 0 0 0 1.714-3.043L7.284 37.624Zm1.357-2.41a7.067 7.067 0 0 1 2.168-1.7l7.228 14.274a8.932 8.932 0 0 0 2.74-2.147L8.64 35.213Zm2.168-1.7a7.062 7.062 0 0 1 2.643-.74l1.241 15.951a8.937 8.937 0 0 0 3.344-.937l-7.228-14.274Zm2.648-.741c-.71.055-1.47.084-2.257.084v16c1.175 0 2.347-.043 3.488-.132l-1.232-15.952Z" fill="#F9F9F9" mask="url(#f)"/><mask id="g" fill="#fff"><path d="M11.2 46.428c-4.16 0-11.2-.782-11.2-3.714v-5.571c0-.246.098-.483.273-.657a.936.936 0 0 1 1.594.657v5.571c.254.623 3.692 1.857 9.333 1.857.933 0 1.85-.034 2.727-.102a.937.937 0 0 1 .904.505.924.924 0 0 1-.408 1.249.94.94 0 0 1-.35.098c-.926.071-1.892.108-2.873.108Z"/></mask><path d="M11.2 46.428c-4.16 0-11.2-.782-11.2-3.714v-5.571c0-.246.098-.483.273-.657a.936.936 0 0 1 1.594.657v5.571c.254.623 3.692 1.857 9.333 1.857.933 0 1.85-.034 2.727-.102a.937.937 0 0 1 .904.505.924.924 0 0 1-.408 1.249.94.94 0 0 1-.35.098c-.926.071-1.892.108-2.873.108Z" fill="#F9F9F9"/><path d="M1.867 37.143h8-8Zm0 5.571h-8v1.573l.595 1.455 7.405-3.028Zm12.06 1.755.616 7.976h.005l-.621-7.976Zm.145 1.852.616 7.976h.005l-.62-7.976ZM11.2 38.429c-1.736 0-3.83-.177-5.245-.526-.766-.189-.739-.287-.338-.018.241.161.816.59 1.357 1.403A6.224 6.224 0 0 1 8 42.714H-8c0 4.458 2.822 7.197 4.713 8.464 1.85 1.24 3.898 1.887 5.412 2.26 3.144.775 6.651.99 9.075.99v-16ZM8 42.713v-5.571H-8v5.571H8Zm0-5.571a7.074 7.074 0 0 1-2.084 5.015L-5.37 30.815A8.926 8.926 0 0 0-8 37.143H8Zm-2.084 5.015a7.064 7.064 0 0 1-4.983 2.056v-16a8.934 8.934 0 0 0-6.302 2.601L5.916 42.158ZM.933 44.214a7.064 7.064 0 0 1-4.982-2.056L7.236 30.815a8.936 8.936 0 0 0-6.303-2.6v16Zm-4.982-2.056a7.074 7.074 0 0 1-2.084-5.015h16a8.926 8.926 0 0 0-2.631-6.328L-4.05 42.158Zm-2.084-5.015v5.571h16v-5.571h-16Zm.595 8.6c.905 2.212 2.513 3.39 2.966 3.717.7.506 1.385.855 1.894 1.087 1.046.477 2.191.834 3.31 1.105 2.284.553 5.193.92 8.568.92v-16c-2.266 0-3.897-.251-4.805-.471-.478-.116-.592-.183-.439-.114.063.029.393.18.835.499.226.163.594.45.997.881a7.591 7.591 0 0 1 1.483 2.32l-14.81 6.055ZM11.2 52.57c1.127 0 2.25-.041 3.343-.126l-1.232-15.952c-.661.051-1.372.078-2.111.078v16Zm3.348-.126a7.063 7.063 0 0 1-2.724-.322L16.753 36.9a8.936 8.936 0 0 0-3.447-.408l1.242 15.952Zm-2.724-.322a7.066 7.066 0 0 1-2.401-1.34L19.79 38.595a8.934 8.934 0 0 0-3.036-1.694l-4.929 15.222Zm-2.401-1.34a7.07 7.07 0 0 1-1.714-2.166l14.245-7.286a8.931 8.931 0 0 0-2.165-2.736L9.423 50.783Zm-1.714-2.166a7.075 7.075 0 0 1-.754-2.667l15.95-1.255a8.925 8.925 0 0 0-.951-3.364L7.709 48.617Zm-.754-2.667a7.076 7.076 0 0 1 .329-2.755L22.49 48.17a8.927 8.927 0 0 0 .415-3.474L6.954 45.95Zm.329-2.755a7.072 7.072 0 0 1 1.357-2.41l12.136 10.427a8.927 8.927 0 0 0 1.714-3.043L7.284 43.195Zm1.357-2.41a7.067 7.067 0 0 1 2.168-1.7l7.228 14.275a8.934 8.934 0 0 0 2.74-2.148L8.64 40.785Zm2.168-1.7a7.062 7.062 0 0 1 2.643-.74l1.241 15.952a8.937 8.937 0 0 0 3.344-.937l-7.228-14.275Zm2.647-.74c-.71.054-1.47.084-2.256.084v16c1.175 0 2.347-.044 3.488-.132l-1.232-15.953Z" fill="#F9F9F9" mask="url(#g)"/><mask id="h" fill="#fff"><path d="M11.2 52C7.04 52 0 51.217 0 48.286v-5.572c0-.246.098-.482.273-.656a.936.936 0 0 1 1.594.656v5.572c.254.623 3.692 1.857 9.333 1.857.933 0 1.85-.035 2.727-.102a.937.937 0 0 1 .904.504.924.924 0 0 1-.408 1.249.938.938 0 0 1-.35.098c-.926.072-1.892.108-2.873.108ZM28 52c-4.16 0-11.2-.783-11.2-3.714v-5.572c0-.246.098-.482.273-.656a.935.935 0 0 1 1.593.656v5.572c.255.623 3.692 1.857 9.333 1.857.934 0 1.85-.035 2.727-.102a.937.937 0 0 1 .905.504.926.926 0 0 1-.759 1.347 37.48 37.48 0 0 1-2.873.108Zm16.799-5.572c-4.16 0-11.2-.782-11.2-3.714v-5.571a.936.936 0 0 1 1.867 0v5.571c.255.623 3.692 1.857 9.333 1.857 5.64 0 9.078-1.234 9.339-1.896l-.006-5.532c0-.246.098-.483.273-.657a.936.936 0 0 1 1.593.657v5.571c0 2.932-7.04 3.715-11.2 3.715Z"/></mask><path d="M11.2 52C7.04 52 0 51.217 0 48.286v-5.572c0-.246.098-.482.273-.656a.936.936 0 0 1 1.594.656v5.572c.254.623 3.692 1.857 9.333 1.857.933 0 1.85-.035 2.727-.102a.937.937 0 0 1 .904.504.924.924 0 0 1-.408 1.249.938.938 0 0 1-.35.098c-.926.072-1.892.108-2.873.108ZM28 52c-4.16 0-11.2-.783-11.2-3.714v-5.572c0-.246.098-.482.273-.656a.935.935 0 0 1 1.593.656v5.572c.255.623 3.692 1.857 9.333 1.857.934 0 1.85-.035 2.727-.102a.937.937 0 0 1 .905.504.926.926 0 0 1-.759 1.347 37.48 37.48 0 0 1-2.873.108Zm16.799-5.572c-4.16 0-11.2-.782-11.2-3.714v-5.571a.936.936 0 0 1 1.867 0v5.571c.255.623 3.692 1.857 9.333 1.857 5.64 0 9.078-1.234 9.339-1.896l-.006-5.532c0-.246.098-.483.273-.657a.936.936 0 0 1 1.593.657v5.571c0 2.932-7.04 3.715-11.2 3.715Z" fill="#F9F9F9"/><path d="M1.867 42.714h8-8Zm0 5.572h-8v1.572l.595 1.456 7.405-3.028Zm12.06 1.755.616 7.976h.005l-.621-7.976Zm.145 1.851.616 7.976h.005l-.62-7.976Zm4.594-3.606h-8v1.572l.595 1.456 7.405-3.028Zm12.06 1.755.617 7.976h.004l-.62-7.976Zm.146 1.851.616 7.976h.005l-.621-7.976Zm4.594-9.178h-8v1.573l.595 1.455 7.405-3.028Zm18.672-.039 7.444 2.928.557-1.415-.002-1.52-8 .007Zm-.006-5.532h-8v.008l8-.008ZM11.2 44c-1.736 0-3.83-.176-5.245-.525-.766-.19-.739-.287-.338-.019.241.161.816.59 1.357 1.404A6.224 6.224 0 0 1 8 48.286H-8c0 4.457 2.822 7.197 4.713 8.463 1.85 1.24 3.898 1.887 5.412 2.26 3.144.776 6.651.99 9.075.99V44ZM8 48.286v-5.572H-8v5.572H8Zm0-5.572a7.074 7.074 0 0 1-2.084 5.015L-5.37 36.386A8.926 8.926 0 0 0-8 42.714H8ZM5.916 47.73a7.064 7.064 0 0 1-4.983 2.057v-16c-2.356 0-4.624.93-6.302 2.6L5.916 47.73ZM.933 49.786a7.064 7.064 0 0 1-4.982-2.057L7.236 36.386a8.936 8.936 0 0 0-6.303-2.6v16Zm-4.982-2.057a7.074 7.074 0 0 1-2.084-5.015h16a8.926 8.926 0 0 0-2.631-6.328L-4.05 47.73Zm-2.084-5.015v5.572h16v-5.572h-16Zm.595 8.6c.905 2.213 2.513 3.39 2.966 3.718.7.505 1.385.855 1.894 1.087 1.046.476 2.191.834 3.31 1.104 2.284.553 5.193.92 8.568.92v-16c-2.266 0-3.897-.251-4.805-.47-.478-.116-.592-.184-.439-.114.063.028.393.18.835.498.226.163.594.45.997.881a7.59 7.59 0 0 1 1.483 2.32l-14.81 6.056ZM11.2 58.143c1.127 0 2.25-.042 3.343-.126l-1.232-15.953a27.53 27.53 0 0 1-2.111.079v16Zm3.348-.127a7.06 7.06 0 0 1-2.724-.322l4.929-15.222a8.938 8.938 0 0 0-3.447-.407l1.242 15.951Zm-2.724-.322a7.065 7.065 0 0 1-2.401-1.34L19.79 44.167a8.935 8.935 0 0 0-3.036-1.695l-4.929 15.222Zm-2.401-1.34a7.071 7.071 0 0 1-1.714-2.166l14.245-7.286a8.93 8.93 0 0 0-2.165-2.735L9.423 56.354Zm-1.714-2.166a7.075 7.075 0 0 1-.754-2.667l15.95-1.254a8.925 8.925 0 0 0-.951-3.365L7.709 54.188Zm-.754-2.667a7.076 7.076 0 0 1 .329-2.754L22.49 53.74c.366-1.119.507-2.3.415-3.474L6.954 51.52Zm.329-2.754a7.073 7.073 0 0 1 1.357-2.411l12.136 10.427a8.928 8.928 0 0 0 1.714-3.042L7.284 48.767Zm1.357-2.411a7.067 7.067 0 0 1 2.168-1.7l7.228 14.275a8.932 8.932 0 0 0 2.74-2.148L8.64 46.356Zm2.168-1.7a7.062 7.062 0 0 1 2.643-.74l1.241 15.952a8.937 8.937 0 0 0 3.344-.937l-7.228-14.274Zm2.647-.74c-.71.055-1.47.084-2.256.084v16c1.175 0 2.347-.044 3.488-.132l-1.232-15.952ZM28 44c-1.736 0-3.828-.176-5.244-.525-.767-.19-.739-.287-.338-.019.24.161.816.59 1.356 1.404a6.225 6.225 0 0 1 1.026 3.426h-16c0 4.457 2.822 7.197 4.713 8.463 1.851 1.24 3.899 1.887 5.412 2.26 3.144.776 6.652.99 9.075.99V44Zm-3.2 4.286v-5.572h-16v5.572h16Zm0-5.572a7.074 7.074 0 0 1-2.084 5.015L11.431 36.386A8.926 8.926 0 0 0 8.8 42.714h16Zm-2.084 5.015a7.064 7.064 0 0 1-4.982 2.057v-16c-2.356 0-4.624.93-6.303 2.6L22.715 47.73Zm-4.982 2.057a7.064 7.064 0 0 1-4.983-2.057l11.285-11.343a8.936 8.936 0 0 0-6.302-2.6v16Zm-4.983-2.057a7.074 7.074 0 0 1-2.084-5.015h16a8.926 8.926 0 0 0-2.63-6.328L12.75 47.73Zm-2.084-5.015v5.572h16v-5.572h-16Zm.595 8.6c.905 2.213 2.514 3.39 2.967 3.718a11.1 11.1 0 0 0 1.894 1.087c1.045.476 2.19.834 3.309 1.104 2.285.553 5.193.92 8.568.92v-16c-2.265 0-3.896-.251-4.804-.47-.478-.116-.593-.184-.44-.114.063.028.393.18.835.498a6.8 6.8 0 0 1 .998.881 7.588 7.588 0 0 1 1.483 2.32l-14.81 6.056ZM28 58.143c1.127 0 2.25-.042 3.344-.126L30.11 42.064a27.55 27.55 0 0 1-2.11.079v16Zm3.348-.127a7.061 7.061 0 0 1-2.723-.322l4.928-15.222a8.939 8.939 0 0 0-3.446-.407l1.241 15.951Zm-2.723-.322a7.065 7.065 0 0 1-2.401-1.34L36.59 44.167a8.934 8.934 0 0 0-3.037-1.695l-4.928 15.222Zm-2.401-1.34a7.07 7.07 0 0 1-1.714-2.166l14.244-7.286a8.928 8.928 0 0 0-2.164-2.735L26.223 56.354Zm-1.714-2.166a7.074 7.074 0 0 1-.755-2.667l15.951-1.254a8.926 8.926 0 0 0-.952-3.365L24.51 54.188Zm-.755-2.667a7.077 7.077 0 0 1 .33-2.754L39.29 53.74c.366-1.119.507-2.3.415-3.474l-15.95 1.254Zm.33-2.754a7.075 7.075 0 0 1 1.357-2.411l12.135 10.427a8.929 8.929 0 0 0 1.714-3.042l-15.207-4.974Zm1.357-2.411a7.068 7.068 0 0 1 2.168-1.7l7.227 14.275a8.932 8.932 0 0 0 2.74-2.148L25.441 46.356Zm2.168-1.7a7.063 7.063 0 0 1 2.642-.74l1.242 15.952a8.937 8.937 0 0 0 3.343-.937L27.61 44.657Zm2.647-.74c-.71.055-1.47.084-2.257.084v16c1.175 0 2.347-.044 3.489-.132l-1.232-15.952ZM44.8 38.429c-1.736 0-3.829-.177-5.245-.526-.766-.189-.739-.287-.338-.018.241.161.816.59 1.357 1.403a6.224 6.224 0 0 1 1.026 3.426h-16c0 4.458 2.822 7.197 4.713 8.464 1.85 1.24 3.898 1.887 5.412 2.26 3.144.775 6.651.99 9.075.99v-16Zm-3.2 4.285v-5.571h-16v5.571h16Zm0-5.571a7.074 7.074 0 0 1-2.084 5.015L28.23 30.815a8.926 8.926 0 0 0-2.63 6.328h16Zm-2.084 5.015a7.065 7.065 0 0 1-4.983 2.056v-16a8.936 8.936 0 0 0-6.302 2.601l11.285 11.343Zm-4.983 2.056a7.064 7.064 0 0 1-4.982-2.056l11.285-11.343a8.936 8.936 0 0 0-6.303-2.6v16Zm-4.982-2.056a7.074 7.074 0 0 1-2.084-5.015h16a8.926 8.926 0 0 0-2.631-6.328L29.55 42.158Zm-2.084-5.015v5.571h16v-5.571h-16Zm.595 8.6c.905 2.212 2.513 3.39 2.966 3.717.7.506 1.385.855 1.894 1.087 1.046.477 2.191.834 3.31 1.105 2.285.553 5.193.92 8.568.92v-16c-2.266 0-3.897-.251-4.804-.471-.479-.116-.593-.183-.44-.114.063.029.393.18.835.499.226.163.594.45.998.881a7.592 7.592 0 0 1 1.483 2.32l-14.81 6.055ZM44.8 52.571c3.373 0 6.29-.365 8.59-.93 1.126-.275 2.29-.643 3.358-1.142a11.016 11.016 0 0 0 1.935-1.144c.502-.375 2.042-1.57 2.9-3.752l-14.89-5.856a7.566 7.566 0 0 1 1.413-2.292c.398-.443.765-.742.999-.916.453-.34.798-.502.872-.537.174-.08.078-.016-.394.1-.893.218-2.515.47-4.783.47v16Zm17.339-9.904-.006-5.532-16 .016.006 5.532 16-.016Zm-.006-5.524a7.074 7.074 0 0 1-2.084 5.015L48.763 30.815a8.926 8.926 0 0 0-2.631 6.328h16Zm-2.084 5.015a7.064 7.064 0 0 1-4.983 2.056v-16a8.934 8.934 0 0 0-6.302 2.601l11.285 11.343Zm-4.983 2.056a7.064 7.064 0 0 1-4.982-2.056l11.285-11.343a8.936 8.936 0 0 0-6.303-2.6v16Zm-4.982-2.056A7.074 7.074 0 0 1 48 37.143h16a8.926 8.926 0 0 0-2.632-6.328L50.084 42.158ZM48 37.143v5.571h16v-5.571H48Zm0 5.571a6.22 6.22 0 0 1 1.026-3.426c.54-.813 1.115-1.242 1.356-1.403.401-.269.429-.17-.337.018-1.416.35-3.51.526-5.245.526v16c2.423 0 5.93-.216 9.075-.99 1.513-.374 3.561-1.021 5.412-2.261 1.89-1.267 4.712-4.006 4.712-8.464h-16Z" fill="#F9F9F9" mask="url(#h)"/><mask id="i" fill="#fff"><path d="M44.798 52c-4.16 0-11.2-.783-11.2-3.714v-5.572a.935.935 0 0 1 1.867 0v5.572c.255.623 3.692 1.857 9.333 1.857s9.078-1.234 9.339-1.896l-.006-5.533a.935.935 0 0 1 1.867 0v5.572c0 2.931-7.04 3.714-11.2 3.714Zm-5.6-37.142a.937.937 0 0 1-.863-.574.924.924 0 0 1 .203-1.012l13.067-13A.933.933 0 0 1 52.622.07a.933.933 0 0 1 .576.858.923.923 0 0 1-.273.657l-13.067 13a.936.936 0 0 1-.66.272ZM42.931 6.5a2.81 2.81 0 0 1-1.555-.47 2.773 2.773 0 0 1-.424-4.286 2.805 2.805 0 0 1 3.051-.604 2.8 2.8 0 0 1 1.257 1.026 2.776 2.776 0 0 1-.349 3.518 2.807 2.807 0 0 1-1.98.816Zm0-3.715a.937.937 0 0 0-.862.574.923.923 0 0 0 .203 1.011.935.935 0 0 0 1.593-.656.926.926 0 0 0-.273-.657.936.936 0 0 0-.66-.272ZM49.465 13a2.81 2.81 0 0 1-1.556-.469 2.79 2.79 0 0 1-1.031-1.25 2.772 2.772 0 0 1 .607-3.036 2.804 2.804 0 0 1 3.051-.604c.512.211.95.568 1.257 1.026a2.775 2.775 0 0 1-.349 3.518 2.807 2.807 0 0 1-1.98.815Zm0-3.714a.937.937 0 0 0-.863.573.925.925 0 0 0 .203 1.012.936.936 0 0 0 1.593-.656.926.926 0 0 0-.273-.657.936.936 0 0 0-.66-.272Z"/></mask><path d="M44.798 52c-4.16 0-11.2-.783-11.2-3.714v-5.572a.935.935 0 0 1 1.867 0v5.572c.255.623 3.692 1.857 9.333 1.857s9.078-1.234 9.339-1.896l-.006-5.533a.935.935 0 0 1 1.867 0v5.572c0 2.931-7.04 3.714-11.2 3.714Zm-5.6-37.142a.937.937 0 0 1-.863-.574.924.924 0 0 1 .203-1.012l13.067-13A.933.933 0 0 1 52.622.07a.933.933 0 0 1 .576.858.923.923 0 0 1-.273.657l-13.067 13a.936.936 0 0 1-.66.272ZM42.931 6.5a2.81 2.81 0 0 1-1.555-.47 2.773 2.773 0 0 1-.424-4.286 2.805 2.805 0 0 1 3.051-.604 2.8 2.8 0 0 1 1.257 1.026 2.776 2.776 0 0 1-.349 3.518 2.807 2.807 0 0 1-1.98.816Zm0-3.715a.937.937 0 0 0-.862.574.923.923 0 0 0 .203 1.011.935.935 0 0 0 1.593-.656.926.926 0 0 0-.273-.657.936.936 0 0 0-.66-.272ZM49.465 13a2.81 2.81 0 0 1-1.556-.469 2.79 2.79 0 0 1-1.031-1.25 2.772 2.772 0 0 1 .607-3.036 2.804 2.804 0 0 1 3.051-.604c.512.211.95.568 1.257 1.026a2.775 2.775 0 0 1-.349 3.518 2.807 2.807 0 0 1-1.98.815Zm0-3.714a.937.937 0 0 0-.863.573.925.925 0 0 0 .203 1.012.936.936 0 0 0 1.593-.656.926.926 0 0 0-.273-.657.936.936 0 0 0-.66-.272Z" fill="#F9F9F9"/><path d="M35.465 48.286h-8v1.572l.595 1.456 7.405-3.028Zm18.672-.04 7.445 2.929.556-1.416-.001-1.52-8 .008Zm-.006-5.532h-8v.008l8-.008ZM39.198 14.858l-.001-8h-.005l.006 8Zm-.66-1.586 5.636 5.678.007-.007-5.643-5.671Zm13.067-13-5.64-5.673-.003.002L51.605.27Zm1.32 1.314-5.64-5.674-.003.002 5.643 5.672Zm-13.067 13-5.642-5.672-.001.001 5.643 5.67ZM49.465 13v8-8Zm-4.667 31c-1.736 0-3.829-.176-5.245-.525-.766-.19-.738-.287-.337-.019.24.161.816.59 1.356 1.404a6.225 6.225 0 0 1 1.026 3.426h-16c0 4.457 2.822 7.197 4.713 8.463 1.851 1.24 3.899 1.887 5.412 2.26 3.144.776 6.651.99 9.075.99V44Zm-3.2 4.286v-5.572h-16v5.572h16Zm0-5.572a7.074 7.074 0 0 1-2.084 5.015L28.23 36.386a8.926 8.926 0 0 0-2.63 6.328h16Zm-2.084 5.015a7.064 7.064 0 0 1-4.982 2.057v-16c-2.356 0-4.624.93-6.303 2.6L39.514 47.73Zm-4.982 2.057a7.064 7.064 0 0 1-4.983-2.057l11.285-11.343a8.936 8.936 0 0 0-6.302-2.6v16Zm-4.983-2.057a7.074 7.074 0 0 1-2.084-5.015h16a8.926 8.926 0 0 0-2.63-6.328L29.548 47.73Zm-2.084-5.015v5.572h16v-5.572h-16Zm.595 8.6c.905 2.213 2.514 3.39 2.966 3.718a11.1 11.1 0 0 0 1.895 1.087c1.045.476 2.19.834 3.309 1.104 2.285.553 5.193.92 8.568.92v-16c-2.266 0-3.897-.251-4.804-.47-.478-.116-.593-.184-.44-.114.063.028.393.18.835.498.226.163.594.45.998.881a7.588 7.588 0 0 1 1.483 2.32l-14.81 6.056Zm16.738 6.829c3.373 0 6.29-.366 8.59-.93 1.126-.276 2.291-.644 3.359-1.143a11.016 11.016 0 0 0 1.934-1.144c.502-.375 2.043-1.57 2.9-3.751l-14.889-5.856a7.563 7.563 0 0 1 1.412-2.293c.398-.443.766-.742.999-.916.453-.339.798-.501.872-.536.174-.081.078-.017-.394.099-.893.218-2.515.47-4.783.47v16Zm17.339-9.904-.006-5.533-16 .016.006 5.533 16-.017Zm-.006-5.525a7.074 7.074 0 0 1-2.084 5.015L48.762 36.386a8.926 8.926 0 0 0-2.63 6.328h16Zm-2.084 5.015a7.064 7.064 0 0 1-4.982 2.057v-16c-2.357 0-4.624.93-6.303 2.6L60.047 47.73Zm-4.982 2.057a7.064 7.064 0 0 1-4.983-2.057l11.285-11.343a8.936 8.936 0 0 0-6.302-2.6v16Zm-4.983-2.057a7.074 7.074 0 0 1-2.084-5.015h16a8.926 8.926 0 0 0-2.631-6.328L50.082 47.73Zm-2.084-5.015v5.572h16v-5.572h-16Zm0 5.572c0-1.342.432-2.532 1.026-3.426.54-.814 1.116-1.243 1.357-1.404.4-.268.428-.17-.338.019-1.416.349-3.509.525-5.245.525v16c2.424 0 5.931-.215 9.075-.99 1.514-.374 3.561-1.021 5.412-2.26 1.891-1.267 4.713-4.007 4.713-8.464h-16ZM39.192 6.858a7.063 7.063 0 0 1 3.914 1.18l-8.854 13.327a8.937 8.937 0 0 0 4.953 1.493l-.013-16Zm3.914 1.18a7.07 7.07 0 0 1 2.615 3.173L30.95 17.357a8.93 8.93 0 0 0 3.303 4.008l8.854-13.327Zm2.615 3.173c.54 1.299.682 2.73.405 4.11l-15.687-3.148a8.924 8.924 0 0 0 .51 5.184l14.772-6.146Zm.405 4.11a7.073 7.073 0 0 1-1.952 3.629L32.904 7.593a8.927 8.927 0 0 0-2.465 4.58l15.687 3.149Zm-1.945 3.622 13.066-13L45.962-5.399l-13.066 13 11.285 11.342ZM57.245 5.945a7.067 7.067 0 0 1-2.292 1.523l-6.09-14.795a8.935 8.935 0 0 0-2.899 1.926L57.245 5.945Zm-2.292 1.523a7.062 7.062 0 0 1-2.69.532l.005-16a8.938 8.938 0 0 0-3.406.673l6.091 14.795ZM52.263 8a7.062 7.062 0 0 1-2.692-.534l6.102-14.79A8.938 8.938 0 0 0 52.268-8l-.006 16Zm-2.692-.534a7.066 7.066 0 0 1-2.29-1.524L58.569-5.397a8.934 8.934 0 0 0-2.896-1.928L49.57 7.466Zm-2.29-1.524a7.072 7.072 0 0 1-1.54-2.296L60.514-2.5a8.93 8.93 0 0 0-1.945-2.898L47.281 5.942Zm-1.54-2.296a7.077 7.077 0 0 1-.543-2.72l16 .006a8.926 8.926 0 0 0-.684-3.43L45.74 3.645Zm-.543-2.72c0-.934.186-1.858.544-2.719l14.77 6.155a8.923 8.923 0 0 0 .686-3.43l-16-.006Zm.544-2.719c.36-.86.884-1.64 1.542-2.295L58.564 7.26a8.93 8.93 0 0 0 1.947-2.897L45.742-1.793Zm1.54-2.293-13.066 13L45.5 20.257l13.066-13L47.282-4.086ZM34.215 8.915a7.064 7.064 0 0 1 4.982-2.057l.003 16a8.936 8.936 0 0 0 6.301-2.602L34.215 8.916ZM42.93-1.499c1.02 0 2.02.3 2.874.868l-8.858 13.324a10.81 10.81 0 0 0 5.984 1.808v-16Zm2.874.868a5.211 5.211 0 0 1 1.925 2.337l-14.77 6.15a10.789 10.789 0 0 0 3.987 4.837L45.805-.63Zm1.925 2.337c.399.958.504 2.014.3 3.034L32.34 1.603a10.77 10.77 0 0 0 .62 6.253l14.77-6.15Zm.3 3.034a5.219 5.219 0 0 1-1.436 2.676L35.31-3.926a10.781 10.781 0 0 0-2.968 5.529L48.03 4.74Zm-1.436 2.676a5.196 5.196 0 0 1-2.656 1.415L40.832-6.865a10.804 10.804 0 0 0-5.523 2.939L46.594 7.416Zm-2.656 1.415a5.19 5.19 0 0 1-2.983-.293L47.05-6.255a10.813 10.813 0 0 0-6.219-.61L43.938 8.83Zm-2.983-.293a5.203 5.203 0 0 1-2.337-1.91L51.9-2.293a10.797 10.797 0 0 0-4.85-3.962L40.955 8.538Zm-2.337-1.91a5.225 5.225 0 0 1-.887-2.913h16c0-2.142-.638-4.233-1.83-6.008l-13.283 8.92Zm-.887-2.913c0-1.396.558-2.727 1.538-3.702l11.285 11.343a10.779 10.779 0 0 0 3.177-7.641h-16ZM39.27.013a5.193 5.193 0 0 1 3.663-1.512v16a10.81 10.81 0 0 0 7.622-3.145L39.269.013Zm3.663-5.227c-1.758 0-3.48.519-4.948 1.495l8.858 13.324a7.064 7.064 0 0 1-3.91 1.181v-16Zm-4.948 1.495a8.93 8.93 0 0 0-3.3 4.004l14.77 6.15a7.07 7.07 0 0 1-2.612 3.17L37.984-3.719Zm-3.3 4.004a8.924 8.924 0 0 0-.513 5.18l15.69-3.137a7.076 7.076 0 0 1-.406 4.106L34.684.284Zm-.513 5.18a8.927 8.927 0 0 0 2.458 4.578L47.914-1.3a7.073 7.073 0 0 1 1.947 3.628L34.17 5.464Zm2.458 4.578a8.935 8.935 0 0 0 4.567 2.43l3.107-15.695c1.363.27 2.62.936 3.611 1.922L36.629 10.043Zm4.567 2.43a8.938 8.938 0 0 0 5.14-.504L40.24-2.824a7.063 7.063 0 0 1 4.063-.398l-3.107 15.695Zm5.14-.504a8.932 8.932 0 0 0 4.013-3.278L37.066-.229a7.068 7.068 0 0 1 3.174-2.595l6.097 14.793Zm4.013-3.278a8.925 8.925 0 0 0 1.516-4.976h-16c0-1.408.42-2.78 1.201-3.944L50.35 8.69Zm1.516-4.976a8.926 8.926 0 0 0-2.631-6.328L37.949 8.73a7.074 7.074 0 0 1-2.084-5.015h16Zm-2.631-6.328a8.936 8.936 0 0 0-6.303-2.6v16A7.064 7.064 0 0 1 37.95 8.73L49.234-2.613ZM49.464 5c1.02 0 2.02.301 2.874.869L43.48 19.193A10.81 10.81 0 0 0 49.465 21V5Zm2.874.869a5.21 5.21 0 0 1 1.925 2.337l-14.77 6.15a10.788 10.788 0 0 0 3.987 4.837L52.338 5.87Zm1.925 2.337c.4.958.504 2.014.3 3.034l-15.69-3.137a10.77 10.77 0 0 0 .62 6.253l14.77-6.15Zm.3 3.034a5.219 5.219 0 0 1-1.436 2.676L41.842 2.574a10.782 10.782 0 0 0-2.968 5.529l15.69 3.137Zm-1.436 2.676a5.196 5.196 0 0 1-2.656 1.414L47.365-.365a10.805 10.805 0 0 0-5.523 2.939l11.285 11.342Zm-2.656 1.414a5.19 5.19 0 0 1-2.983-.292L53.584.245a10.813 10.813 0 0 0-6.219-.61l3.106 15.695Zm-2.983-.292a5.204 5.204 0 0 1-2.337-1.91l13.283-8.921a10.797 10.797 0 0 0-4.85-3.962l-6.096 14.793Zm-2.337-1.91a5.224 5.224 0 0 1-.886-2.913h16c0-2.143-.64-4.233-1.831-6.008l-13.282 8.92Zm-.886-2.913c0-1.396.557-2.727 1.537-3.702l11.285 11.343a10.778 10.778 0 0 0 3.178-7.641h-16Zm1.537-3.702A5.193 5.193 0 0 1 49.465 5v16a10.81 10.81 0 0 0 7.622-3.144L45.802 6.513Zm3.663-5.227c-1.758 0-3.48.519-4.948 1.494l8.858 13.325a7.064 7.064 0 0 1-3.91 1.181v-16ZM44.517 2.78a8.93 8.93 0 0 0-3.3 4.005l14.77 6.15a7.071 7.071 0 0 1-2.612 3.17L44.517 2.78Zm-3.3 4.005a8.924 8.924 0 0 0-.512 5.18l15.69-3.137a7.076 7.076 0 0 1-.407 4.106l-14.771-6.15Zm-.512 5.18a8.927 8.927 0 0 0 2.457 4.578L54.447 5.2a7.073 7.073 0 0 1 1.947 3.628l-15.69 3.136Zm2.457 4.578a8.935 8.935 0 0 0 4.568 2.43l3.106-15.695c1.363.27 2.62.936 3.611 1.922L43.162 16.543Zm4.568 2.43a8.938 8.938 0 0 0 5.14-.504L46.774 3.676a7.062 7.062 0 0 1 4.062-.398L47.73 18.973Zm5.14-.504a8.932 8.932 0 0 0 4.012-3.278L43.6 6.27a7.067 7.067 0 0 1 3.174-2.595L52.87 18.47Zm4.012-3.278a8.925 8.925 0 0 0 1.516-4.976h-16c0-1.408.42-2.78 1.201-3.945l13.283 8.92Zm1.516-4.976a8.926 8.926 0 0 0-2.631-6.328L44.482 15.229a7.074 7.074 0 0 1-2.084-5.014h16Zm-2.631-6.328a8.936 8.936 0 0 0-6.302-2.6v16a7.064 7.064 0 0 1-4.983-2.057L55.767 3.886Z" fill="#F9F9F9" mask="url(#i)"/></svg>