<svg width="53" height="53" fill="none" xmlns="http://www.w3.org/2000/svg"><mask id="a" fill="#fff"><path d="M52.877 43.398 46.1 31.663V13.625a.751.751 0 0 0-.375-.65L23.426.101a.751.751 0 0 0-.75 0L.375 12.975a.75.75 0 0 0-.376.65v25.75a.751.751 0 0 0 .376.65l22.3 12.874a.751.751 0 0 0 .75 0l10.44-6.028 3.272 5.666a.92.92 0 0 0 .923.455.915.915 0 0 0 .341-.118l14.14-8.215a.926.926 0 0 0 .335-1.26ZM41.929 24.437a.914.914 0 0 0-.8-.462h-.002l-4.717.01v-.009c0-1.495-.188-2.865-.521-4.021l8.71-5.029v14.135l-2.67-4.624Zm-10.259-.44a.927.927 0 0 0-.804.472l-.436.778c-.06-.706-.07-1.416-.03-2.123l4.137-2.389c.226.91.371 2.001.371 3.241v.013l-3.238.008Zm-8.62 1.636-6.546-3.78L37.302 9.846l6.546 3.78-8.494 4.903c-.675-1.405-1.625-2.252-2.712-2.252-1.85 0-3.307 2.456-3.676 5.94l-5.915 3.416Zm-12.749-7.361L31.1 6.265l4.7 2.714-20.797 12.007-4.703-2.714Zm-.75 1.3 4.7 2.715v8.994l-4.7-2.714v-8.994Zm23.091-1.793c.436 0 .966.539 1.403 1.506l-3.414 1.971c.433-2.18 1.334-3.477 2.011-3.477Zm-9.591-16.16 6.546 3.779L8.799 17.405l-6.546-3.78L23.051 1.618ZM1.502 14.925l6.546 3.78V29a.751.751 0 0 0 .376.65l6.203 3.582a.751.751 0 0 0 1.126-.65v-9.428l6.546 3.78v24.014L1.502 38.94V14.926Zm22.3 36.022V26.933l5.072-2.928a15.49 15.49 0 0 0 .365 3.367l-3.008 5.37a.916.916 0 0 0 .005.913l6.88 11.916-9.314 5.377Zm14.347.336L27.7 33.19l4.31-7.691 2.822-.007a12.46 12.46 0 0 1-.223 1.422 2.72 2.72 0 0 0-1.551.36 2.738 2.738 0 0 0-1.001 3.736 2.737 2.737 0 0 0 3.736 1 2.738 2.738 0 0 0 1-3.735 2.718 2.718 0 0 0-.768-.85c.145-.62.249-1.273.312-1.936l4.458-.01L51.288 43.65l-13.14 7.634ZM35.043 30.71a1.23 1.23 0 0 1-.66.163c.45-.456.826-1.081 1.128-1.814a1.233 1.233 0 0 1-.468 1.65Zm-1.233-2.136c.107-.061.22-.105.334-.132-.28.685-.608 1.18-.922 1.46-.11-.51.113-1.054.588-1.328Z"/></mask><path d="m52.877 43.398.866-.5-.866.5ZM46.1 31.663h-1v.268l.134.232.866-.5Zm0-18.038h-1 1Zm-.375-.65-.5.866.5-.866ZM23.426.101l.5-.866-.5.866ZM23.051 0v-1 1Zm-.376.1-.5-.866.5.867ZM.375 12.976l.5.866-.5-.866Zm-.375.65h1-1Zm0 25.75h1-1Zm.376.65.5-.866-.5.866Zm22.3 12.874.5-.866-.5.866Zm.75 0 .5.866-.5-.866Zm10.44-6.028.867-.5-.5-.866-.866.5.5.866Zm3.272 5.666.867-.498-.001-.002-.866.5Zm.562.431.261-.965-.005-.002-.256.967Zm.702-.094-.502-.864-.003.002.505.862Zm14.14-8.215.502.865-.503-.865ZM41.928 24.437l-.866.5.866-.5Zm-.802-.462v-1h-.002l.002 1Zm-4.717.01-1-.01-.011 1.013 1.013-.002-.002-1Zm0-.009 1 .011v-.01h-1Zm-.521-4.021-.5-.866-.677.39.216.752.961-.276Zm8.71-5.029h1v-1.732l-1.5.866.5.866Zm0 14.135-.866.5 1.866 3.232v-3.732h-1ZM30.866 24.47l-.872-.49v.001l.872.489Zm-.436.778-.997.085.275 3.249 1.594-2.845-.872-.489Zm-.03-2.123-.5-.866-.468.27-.03.54.998.056Zm4.137-2.389.97-.241-.32-1.288-1.15.663.5.866Zm.371 3.241 1 .008v-.008h-1Zm0 .013.002 1 .99-.002.008-.99-1-.008Zm-11.857 1.644-.5.866.5.289.5-.29-.5-.865Zm-6.546-3.78-.5-.866-1.5.866 1.5.866.5-.866ZM37.302 9.846l.5-.866-.5-.289-.5.29.5.865Zm6.546 3.78.5.865 1.5-.866-1.5-.866-.5.866Zm-8.494 4.903-.901.433.467.973.934-.54-.5-.866Zm-6.388 3.689.5.866.44-.255.054-.506-.994-.105ZM10.3 18.272l-.5-.866-1.5.866 1.5.866.5-.866ZM31.1 6.265l.5-.866-.5-.289-.5.289.5.866Zm4.7 2.714.5.866 1.5-.866-1.5-.866-.5.866ZM15.003 20.986l-.5.866.5.289.5-.289-.5-.866ZM9.55 19.573l.5-.866-1.5-.866v1.732h1Zm4.701 2.714h1v-.578l-.5-.288-.5.866Zm0 8.994-.5.866 1.5.866v-1.732h-1Zm-4.7-2.714h-1v.577l.5.289.5-.866Zm24.494-9.282.5.866.785-.453-.373-.825-.912.412Zm-3.414 1.971-.98-.195-.431 2.165 1.91-1.104-.5-.866ZM23.05 1.618l.5-.866-.5-.289-.5.29.5.865Zm6.546 3.78.5.866 1.5-.866-1.5-.866-.5.866ZM8.799 17.405l-.5.866.5.288.5-.288-.5-.866Zm-6.546-3.78-.5-.866-1.5.866 1.5.866.5-.866Zm-.751 1.301.5-.866-1.5-.866v1.732h1Zm6.546 3.78h1v-.578l-.5-.289-.5.866Zm0 10.294h1-1Zm.376.65.5-.865-.5.866Zm6.203 3.582-.5.866.5-.866Zm1.126-.65h1-1Zm0-9.428.5-.866-1.5-.866v1.732h1Zm6.546 3.78h1v-.578l-.5-.289-.5.866Zm0 24.014-.5.866 1.5.866v-1.732h-1ZM1.502 38.94h-1v.577l.5.289.5-.866Zm22.3 12.007h-1v1.732l1.5-.866-.5-.866Zm0-24.015-.5-.866-.5.289v.577h1Zm5.072-2.928 1-.002-.003-1.729-1.497.865.5.866Zm.365 3.367.873.489.188-.336-.086-.376-.975.223Zm-3.008 5.37.87.493.002-.005-.872-.489Zm.005.913.866-.5-.002-.004-.864.504Zm6.88 11.916.5.866.866-.5-.5-.866-.866.5Zm5.033 5.713-.866.5.501.869.867-.504-.502-.865ZM27.7 33.19l-.872-.489-.278.497.285.492.866-.5Zm4.31-7.691-.002-1-.585.001-.285.51.872.489Zm2.822-.007.995.1.111-1.102-1.108.002.002 1Zm-.223 1.422-.07.998.863.06.184-.844-.977-.214Zm-1.551.36.5.866v-.001l-.5-.866Zm-1.001 3.736-.866.5.866-.5Zm3.736 1 .5.867-.5-.866Zm1-3.735-.865.5.866-.5Zm-.768-.85-.974-.228-.152.65.543.39.583-.812Zm.312-1.936-.003-1-.907.002-.086.903.996.095Zm4.458-.01.866-.5-.29-.502-.578.002.002 1ZM51.288 43.65l.502.865.863-.501-.5-.864-.865.5ZM35.043 30.71l.5.866-.5-.866Zm-.66.163-.712-.703-1.59 1.614 2.264.088.039-1Zm1.128-1.814.881-.473-1-1.861-.805 1.953.924.381Zm-1.701-.485-.5-.866.5.866Zm.334-.132.925.38.739-1.796-1.891.443.227.973Zm-.922 1.46-.978.21.361 1.68 1.282-1.144-.666-.746Zm20.52 12.997-6.775-11.735-1.732 1 6.776 11.735 1.732-1Zm-6.64-11.235V13.625h-2v18.038h2Zm0-18.037c0-.308-.082-.61-.235-.876l-1.733 1a.25.25 0 0 1-.033-.125h2Zm-.235-.876a1.75 1.75 0 0 0-.642-.641l-1 1.732a.25.25 0 0 1-.09-.091l1.732-1Zm-.642-.641L23.926-.765l-1 1.732 22.3 12.874 1-1.732ZM23.925-.766A1.75 1.75 0 0 0 23.052-1v2a.249.249 0 0 1-.125-.033l1-1.733ZM23.052-1c-.308 0-.61.08-.876.234l1 1.733A.249.249 0 0 1 23.05 1v-2Zm-.876.235-22.3 12.874 1 1.732L23.176.967l-1-1.732Zm-22.3 12.874a1.75 1.75 0 0 0-.64.64l1.732 1a.25.25 0 0 1-.092.092l-1-1.732Zm-.64.64a1.75 1.75 0 0 0-.235.877h2a.25.25 0 0 1-.033.124l-1.732-1Zm-.235.876v25.75h2v-25.75h-2Zm0 25.75c0 .307.08.609.235.875l1.732-1a.25.25 0 0 1 .033.124h-2Zm.235.875c.153.266.374.487.64.64l1-1.731a.25.25 0 0 1 .092.09l-1.732 1Zm.64.64 22.3 12.875 1-1.732L.875 39.16l-1 1.732Zm22.3 12.875c.266.154.568.235.876.235v-2c.043 0 .086.011.124.033l-1 1.732Zm.876.235c.307 0 .609-.081.875-.235l-1-1.732a.249.249 0 0 1 .125-.033v2Zm.875-.235 10.44-6.028-1-1.732-10.44 6.028 1 1.732Zm9.075-6.394 3.271 5.666 1.732-1-3.271-5.666-1.732 1Zm3.27 5.665c.126.22.295.413.497.567l1.216-1.588a.083.083 0 0 1 .021.024l-1.734.997Zm.497.567c.201.154.432.267.677.332l.51-1.934c.011.003.02.008.03.014l-1.217 1.588Zm.672.33c.245.067.501.084.754.05l-.266-1.982a.085.085 0 0 1 .033.002l-.521 1.93Zm.754.05c.252-.034.494-.117.714-.246l-1.011-1.726a.087.087 0 0 1 .031-.01l.266 1.982Zm.71-.244 14.14-8.215-1.005-1.73L37.9 52.01l1.006 1.729Zm14.14-8.216a1.926 1.926 0 0 0 .7-2.624l-1.734.999a.078.078 0 0 1-.008-.057.08.08 0 0 1 .036-.047l1.006 1.73Zm-10.25-21.586a1.914 1.914 0 0 0-1.666-.962v2a.081.081 0 0 1-.037-.012.082.082 0 0 1-.029-.026l1.732-1Zm-1.666-.962h-.002v2h.002v-2Zm-.004 0-4.717.01.004 2 4.717-.01-.004-2Zm-3.715 1.022v-.01l-2-.022v.01l2 .022Zm0-.02c0-1.577-.198-3.04-.56-4.299l-1.922.553c.304 1.055.482 2.33.482 3.745h2Zm-1.02-3.157 8.71-5.029-1-1.732-8.71 5.029 1 1.732Zm7.21-5.895V29.06h2V14.926h-2Zm1.866 13.635-2.67-4.624-1.732 1 2.67 4.624 1.732-1ZM31.67 22.997v2-2 2-2Zm-.003 0c-.341 0-.675.092-.97.265l1.014 1.724a.074.074 0 0 1-.038.01l-.006-2Zm-.97.265c-.293.172-.536.42-.703.717l1.744.98a.073.073 0 0 1-.027.027l-1.013-1.724Zm-.703.718-.437.779 1.745.977.436-.778-1.744-.978Zm1.432 1.183a14.065 14.065 0 0 1-.027-1.983l-1.997-.113c-.043.755-.032 1.512.031 2.265l1.993-.169ZM30.9 23.99l4.137-2.388-1-1.733-4.137 2.389 1 1.732Zm2.667-3.013c.205.826.341 1.836.341 3h2c0-1.317-.154-2.49-.4-3.483l-1.941.483Zm.341 2.991v.013l2 .016v-.013l-2-.016Zm.998-.979-3.238.008.004 2 3.238-.008-.004-2ZM23.55 24.767l-6.546-3.78-1 1.732 6.546 3.78 1-1.732Zm-6.546-2.048 20.797-12.007-1-1.732-20.797 12.007 1 1.732Zm19.797-12.007 6.546 3.78 1-1.733-6.546-3.779-1 1.732Zm6.546 2.047-8.494 4.904 1 1.732 8.494-4.904-1-1.732Zm-7.092 5.337c-.735-1.53-1.947-2.82-3.614-2.82v2c.506 0 1.196.406 1.811 1.686l1.803-.866Zm-3.614-2.82c-1.418 0-2.514.945-3.247 2.143-.74 1.212-1.229 2.853-1.424 4.693l1.99.211c.174-1.645.599-2.975 1.14-3.861.552-.901 1.11-1.185 1.541-1.185v-2Zm-4.176 6.076-5.915 3.415 1 1.732 5.915-3.415-1-1.732ZM10.8 19.138 31.6 7.131l-1-1.732L9.8 17.406l1 1.732ZM30.6 7.131l4.7 2.714 1-1.732-4.701-2.714-1 1.732Zm4.701.982L14.503 20.12l1 1.732L36.3 9.845l-1-1.732ZM15.502 20.12l-4.7-2.714-1 1.732 4.7 2.714 1-1.732Zm-6.452.319 4.701 2.714 1-1.732-4.7-2.714-1 1.732Zm4.201 1.848v8.994h2v-8.994h-2Zm1.5 8.128-4.7-2.714-1 1.732 4.7 2.714 1-1.732Zm-4.2-1.848v-8.994h-2v8.994h2Zm22.091-9.788c-.186 0-.191-.098-.025.077.142.15.328.423.517.841l1.823-.824c-.249-.549-.546-1.03-.887-1.39-.317-.337-.805-.704-1.428-.704v2Zm.903-.36-3.414 1.971 1 1.732 3.414-1.971-1-1.732Zm-1.933 3.032c.2-1.007.5-1.758.787-2.23.145-.238.268-.373.345-.438.086-.072.049-.004-.102-.004v-2c-.49 0-.893.23-1.18.469a3.754 3.754 0 0 0-.77.931c-.44.722-.808 1.709-1.042 2.882l1.962.39ZM22.55 2.484l6.546 3.78 1-1.732L23.55.752l-1 1.732Zm6.546 2.048L8.299 16.539l1 1.732L30.097 6.264l-1-1.732ZM9.299 16.539l-6.546-3.78-1 1.732 6.546 3.78 1-1.732ZM2.753 14.49 23.551 2.484l-1-1.732L1.753 12.76l1 1.732Zm-1.751 1.301 6.546 3.78 1-1.733-6.546-3.779-1 1.732Zm6.046 2.913V29h2V18.704h-2Zm0 10.295c0 .308.081.61.235.876l1.732-1a.25.25 0 0 1 .033.125h-2Zm.235.876c.153.266.374.487.64.64l1-1.731a.25.25 0 0 1 .092.091l-1.732 1Zm.64.64 6.204 3.582 1-1.732-6.203-3.581-1 1.732Zm6.204 3.582c.266.154.568.235.875.235v-2c.044 0 .087.011.125.033l-1 1.732Zm.875.235c.308 0 .61-.081.876-.235l-1-1.732a.248.248 0 0 1 .124-.033v2Zm.876-.235c.266-.153.487-.374.64-.64l-1.731-1a.249.249 0 0 1 .09-.092l1 1.732Zm.64-.64c.154-.267.235-.569.235-.876h-2a.25.25 0 0 1 .034-.125l1.732 1Zm.235-.876v-9.428h-2v9.428h2Zm-1.5-8.562L21.8 27.8l1-1.733-6.546-3.779-1 1.732Zm6.046 2.913v24.015h2V26.933h-2Zm1.5 23.149L2.002 38.075l-1 1.732L21.8 51.814l1-1.732ZM2.502 38.94V14.926h-2v24.015h2Zm22.3 12.007V26.933h-2v24.015h2Zm-.5-23.149 5.072-2.928-1-1.732-5.072 2.928 1 1.732Zm3.572-3.793c.003 1.242.136 2.472.39 3.588l1.95-.445a14.508 14.508 0 0 1-.34-3.146l-2 .003Zm.493 2.877-3.009 5.37 1.745.977 3.009-5.37-1.745-.977Zm-3.006 5.365a1.916 1.916 0 0 0-.25.957l2-.012c0 .015-.003.03-.01.042l-1.74-.987Zm-.25.957c.002.336.093.665.262.955L27.1 33.15a.083.083 0 0 1 .011.042l-2 .012Zm.26.95L32.25 46.07l1.732-1-6.88-11.916-1.732 1Zm7.245 10.55-9.314 5.377 1 1.732 9.314-5.377-1-1.732Zm6.399 6.08L28.568 32.688l-1.733 1 10.448 18.095 1.732-1ZM28.574 33.677l4.31-7.691-1.745-.978-4.31 7.691 1.745.978Zm3.44-7.18 2.821-.007-.004-2-2.822.007.005 2Zm1.824-1.107c-.048.475-.118.912-.205 1.309l1.954.427c.104-.475.186-.987.241-1.535l-1.99-.201Zm.842.525c-.74-.052-1.48.12-2.122.491l1.002 1.731c.297-.172.638-.251.98-.227l.14-1.995Zm-2.121.49a3.738 3.738 0 0 0-1.367 5.103l1.732-1a1.738 1.738 0 0 1 .635-2.37l-1-1.732Zm-1.367 5.103a3.737 3.737 0 0 0 3.239 1.866v-2a1.737 1.737 0 0 1-1.507-.866l-1.732 1Zm3.239 1.866a3.72 3.72 0 0 0 1.863-.5l-1-1.732a1.72 1.72 0 0 1-.863.232v2Zm1.863-.5a3.738 3.738 0 0 0 1.367-5.101l-1.732 1a1.738 1.738 0 0 1-.635 2.37l1 1.732Zm1.367-5.1a3.718 3.718 0 0 0-1.052-1.164l-1.166 1.625c.198.142.364.326.486.537l1.732-.999ZM37 27.65c.156-.667.267-1.365.334-2.069l-1.99-.189a13.64 13.64 0 0 1-.291 1.803L37 27.65Zm-.659-1.163 4.458-.01-.005-2-4.458.01.005 2Zm3.59-.51L50.422 44.15l1.732-1-10.492-18.172-1.732 1Zm10.855 16.807L37.647 50.42l1.004 1.729 13.14-7.634-1.006-1.73ZM34.543 29.843a.224.224 0 0 1-.12.03l-.078 1.999a2.22 2.22 0 0 0 1.197-.296l-.999-1.733Zm.553 1.732c.568-.577 1.007-1.326 1.34-2.135l-1.85-.762c-.27.656-.584 1.157-.914 1.492l1.424 1.405Zm-.466-2.042c.06.11.02.25-.087.31l1 1.733a2.233 2.233 0 0 0 .85-2.99l-1.763.947Zm-.32-.092a.23.23 0 0 1 .062-.025l-.455-1.947a2.227 2.227 0 0 0-.607.239l1 1.733Zm-1.09-1.379c-.251.61-.506.952-.664 1.094l1.331 1.492c.471-.42.87-1.067 1.182-1.826l-1.85-.76Zm.98 1.63a.235.235 0 0 1 .11-.252l-1-1.732a2.235 2.235 0 0 0-1.066 2.404l1.955-.42Z" fill="#F9F9F9" mask="url(#a)"/></svg>