<svg width="36" height="52" fill="none" xmlns="http://www.w3.org/2000/svg"><mask id="a" fill="#fff"><path d="M30.66 21.74c-1.41 0-2.76.572-3.759 1.592V6.51c0-.762-.21-1.508-.603-2.153a3.994 3.994 0 0 0-1.623-1.497 3.866 3.866 0 0 0-4.17.457 4.085 4.085 0 0 0-1.363-2.38A3.894 3.894 0 0 0 16.615 0c-.923 0-1.817.332-2.527.937a4.085 4.085 0 0 0-1.361 2.379 3.866 3.866 0 0 0-4.17-.457 3.994 3.994 0 0 0-1.624 1.497A4.142 4.142 0 0 0 6.33 6.51v4.061a3.868 3.868 0 0 0-4.143-.384A3.997 3.997 0 0 0 .59 11.685 4.142 4.142 0 0 0 0 13.82v22.136c0 4.255 1.646 8.336 4.577 11.345C7.507 50.31 11.482 52 15.627 52c4.144 0 8.118-1.69 11.049-4.7 2.93-3.008 4.577-7.089 4.577-11.344v-.203c0-6.535 3.983-7.717 4.15-7.742a.79.79 0 0 0 .43-.288.826.826 0 0 0 .167-.5 5.567 5.567 0 0 0-1.567-3.875 5.28 5.28 0 0 0-3.774-1.608Zm-.99 14.013v.203c0 3.824-1.48 7.492-4.113 10.196-2.634 2.704-6.206 4.223-9.93 4.223-3.725 0-7.297-1.519-9.931-4.223-2.634-2.704-4.114-6.372-4.114-10.196V13.82c0-.647.25-1.267.696-1.724a2.343 2.343 0 0 1 1.678-.713c.63 0 1.233.256 1.678.713a2.47 2.47 0 0 1 .696 1.724v12.59c0 .215.083.422.231.574a.781.781 0 0 0 1.119 0 .824.824 0 0 0 .232-.574V6.509c0-.647.25-1.267.695-1.724a2.343 2.343 0 0 1 1.679-.714c.63 0 1.233.257 1.678.714a2.47 2.47 0 0 1 .695 1.724V24.38c0 .216.084.422.232.575a.781.781 0 0 0 1.119 0 .824.824 0 0 0 .232-.575V4.071c0-.646.25-1.266.695-1.723a2.343 2.343 0 0 1 1.678-.714c.63 0 1.234.257 1.679.714a2.47 2.47 0 0 1 .695 1.723v20.31c0 .215.083.421.232.574a.78.78 0 0 0 1.119 0 .824.824 0 0 0 .231-.575V6.51c0-.647.25-1.267.696-1.724a2.343 2.343 0 0 1 1.678-.714c.63 0 1.233.257 1.678.714a2.47 2.47 0 0 1 .696 1.724v20.714c0 .216.083.422.231.575a.781.781 0 0 0 1.119 0 .824.824 0 0 0 .232-.575 3.916 3.916 0 0 1 1.01-2.625 3.72 3.72 0 0 1 2.479-1.217c.946-.07 1.883.23 2.623.84a3.882 3.882 0 0 1 1.365 2.45c-1.424.638-4.708 2.794-4.708 9.082Z"/></mask><path d="m30.66 21.74.005-4h-.004l-.002 4Zm-3.76 1.592h-4v9.807l6.859-7.01-2.859-2.797Zm0-16.823h4v-.004l-4 .004Zm-6.397-3.193-3.935.716 1.204 6.618 5.24-4.218-2.509-3.116Zm-7.777 0-2.509 3.116 5.24 4.218 1.204-6.618-3.935-.716ZM6.33 6.509l-4-.004v.004h4Zm0 4.061-2.44 3.17 6.44 4.959V10.57h-4ZM0 13.82h4-4Zm0 22.136h-4 4ZM15.626 52v-4 4Zm15.627-16.044h4-4Zm4.15-7.945.58 3.958.215-.031.21-.055-1.005-3.872Zm.597-.788 4-.002v-.003l-4 .005Zm-6.33 8.733h4-4Zm-28.088 0h-4 4Zm2.374-24.573v-4 4Zm6.33-7.312v-4 4Zm6.33-2.437v-4 4Zm6.33 2.437v-4 4ZM26.9 27.223l-4-.006v.006h4Zm7.477-.552 1.635 3.65 2.75-1.23-.425-2.984-3.96.564ZM30.66 17.74a9.255 9.255 0 0 0-6.619 2.795l5.718 5.595c.257-.263.582-.39.898-.39l.003-8Zm.24 5.592V6.51h-8v16.823h8Zm0-16.827a8.142 8.142 0 0 0-1.189-4.232L22.883 6.44a.134.134 0 0 1 .018.072l8-.007Zm-1.189-4.232a7.993 7.993 0 0 0-3.25-2.993l-3.573 7.158c-.015-.007-.013-.012-.005.002l6.83-4.167ZM26.461-.72a7.866 7.866 0 0 0-4.37-.783l.87 7.953a.135.135 0 0 1-.073-.012L26.461-.72Zm-4.37-.783A7.9 7.9 0 0 0 17.995.2l5.016 6.232a.104.104 0 0 1-.051.018l-.87-7.953ZM24.44 2.6a8.085 8.085 0 0 0-2.702-4.707l-5.19 6.088.007.01a.13.13 0 0 1 .014.04l7.87-1.43Zm-2.702-4.707A7.894 7.894 0 0 0 16.615-4v8a.136.136 0 0 1-.046-.008.074.074 0 0 1-.021-.011l5.19-6.088ZM16.615-4a7.894 7.894 0 0 0-5.122 1.893l5.19 6.088a.073.073 0 0 1-.02.011.137.137 0 0 1-.048.008v-8Zm-5.122 1.893A8.085 8.085 0 0 0 8.79 2.6l7.871 1.432a.131.131 0 0 1 .014-.041c.005-.01.009-.012.007-.01l-5.19-6.088ZM15.235.2a7.9 7.9 0 0 0-4.095-1.703l-.87 7.953a.104.104 0 0 1-.052-.018L15.235.2ZM11.14-1.503a7.866 7.866 0 0 0-4.37.783l3.572 7.158a.134.134 0 0 1-.072.012l.87-7.953ZM6.77-.72a7.994 7.994 0 0 0-3.251 2.993l6.829 4.167c.008-.014.01-.01-.006-.002L6.77-.72ZM3.519 2.273a8.142 8.142 0 0 0-1.19 4.232l8 .007c0-.033.01-.058.019-.072l-6.83-4.167Zm-1.19 4.236v4.061h8V6.51h-8ZM8.77 7.4a7.896 7.896 0 0 0-4.09-1.61l-.737 7.966a.106.106 0 0 1-.054-.018L8.77 7.401ZM4.68 5.79a7.868 7.868 0 0 0-4.32.837l3.654 7.117a.134.134 0 0 1-.071.012L4.68 5.79Zm-4.32.837A7.997 7.997 0 0 0-2.836 9.62l6.854 4.126c.008-.013.01-.01-.004-.002L.36 6.628ZM-2.836 9.62A8.143 8.143 0 0 0-4 13.82h8c0-.033.01-.059.018-.073l-6.854-4.126ZM-4 13.82v22.136h8V13.82h-8Zm0 22.136c0 5.283 2.043 10.37 5.711 14.136l5.731-5.582C5.25 42.259 4 39.184 4 35.956h-8Zm5.711 14.136C5.383 53.862 10.387 56 15.626 56v-8c-3.049 0-5.995-1.243-8.184-3.49l-5.73 5.582ZM15.626 56c5.24 0 10.243-2.138 13.915-5.908l-5.73-5.582C21.62 46.757 18.674 48 15.625 48v8Zm13.915-5.908c3.669-3.767 5.712-8.853 5.712-14.136h-8c0 3.228-1.25 6.303-3.443 8.554l5.731 5.582Zm5.712-14.136v-.203h-8v.203h8Zm0-.203c0-2.385.697-3.32.969-3.618a1.46 1.46 0 0 1 .377-.31c.03-.018.034-.017-.002-.003a1.735 1.735 0 0 1-.237.072c-.02.005-.172.045-.377.075l-1.16-7.915c-.48.07-.905.228-1.067.29a8.04 8.04 0 0 0-.987.456 9.49 9.49 0 0 0-2.46 1.946c-1.762 1.933-3.056 4.857-3.056 9.007h8Zm1.154-3.87a4.79 4.79 0 0 0 2.614-1.744l-6.375-4.833a3.21 3.21 0 0 1 1.752-1.166l2.01 7.743Zm2.614-1.744c.641-.846.98-1.873.979-2.918l-8 .004c0-.683.22-1.358.646-1.919l6.375 4.833ZM40 27.218a9.566 9.566 0 0 0-2.701-6.66l-5.731 5.581c.264.272.431.662.432 1.09l8-.011Zm-2.701-6.66a9.279 9.279 0 0 0-6.634-2.818l-.012 8c.323 0 .654.131.915.4l5.73-5.582ZM25.67 35.752v.203h8v-.203h-8Zm0 .203c0 2.797-1.083 5.459-2.979 7.405l5.731 5.582c3.372-3.462 5.248-8.135 5.248-12.987h-8Zm-2.979 7.405c-1.892 1.943-4.435 3.014-7.065 3.014v8c4.82 0 9.421-1.967 12.796-5.432l-5.73-5.582Zm-7.065 3.014c-2.629 0-5.172-1.071-7.065-3.014l-5.73 5.582c3.375 3.465 7.975 5.432 12.795 5.432v-8ZM8.561 43.36c-1.895-1.946-2.979-4.608-2.979-7.405h-8c0 4.852 1.877 9.525 5.248 12.987l5.731-5.582Zm-2.979-7.405V13.82h-8v22.136h8Zm0-22.136c0 .38-.146.767-.439 1.067l-5.73-5.582a6.47 6.47 0 0 0-1.83 4.515h8Zm-.439 1.067a1.658 1.658 0 0 1-1.187.496v-8A6.343 6.343 0 0 0-.588 9.305l5.731 5.582Zm-1.187.496c-.466 0-.89-.191-1.187-.496l5.73-5.582a6.343 6.343 0 0 0-4.543-1.922v8Zm-1.187-.496a1.53 1.53 0 0 1-.44-1.067h8A6.47 6.47 0 0 0 8.5 9.305l-5.73 5.582Zm-.44-1.067V26.41h8V13.82h-8Zm0 12.591a4.82 4.82 0 0 0 1.367 3.365l5.73-5.581c.59.605.904 1.404.904 2.216h-8Zm1.367 3.365a4.781 4.781 0 0 0 3.425 1.447v-8a3.22 3.22 0 0 1 2.306.972l-5.731 5.581Zm3.425 1.447a4.781 4.781 0 0 0 3.425-1.447l-5.731-5.581a3.22 3.22 0 0 1 2.306-.972v8Zm3.425-1.447a4.824 4.824 0 0 0 1.366-3.365h-8c0-.812.313-1.611.903-2.216l5.73 5.581Zm1.366-3.365V6.509h-8V26.41h8Zm0-19.902c0 .38-.146.766-.44 1.067l-5.73-5.582a6.47 6.47 0 0 0-1.83 4.515h8Zm-.44 1.067a1.658 1.658 0 0 1-1.186.495v-8a6.343 6.343 0 0 0-4.544 1.923l5.73 5.582Zm-1.186.495c-.466 0-.891-.19-1.187-.495l5.73-5.582A6.343 6.343 0 0 0 10.287.071v8Zm-1.187-.495a1.53 1.53 0 0 1-.44-1.067h8a6.47 6.47 0 0 0-1.83-4.515L9.1 7.576Zm-.44-1.067V24.38h8V6.51h-8Zm0 17.871c0 1.243.48 2.455 1.367 3.366l5.73-5.582c.59.605.903 1.404.903 2.216h-8Zm1.367 3.366a4.78 4.78 0 0 0 3.425 1.447v-8c.885 0 1.712.362 2.306.97l-5.731 5.582Zm3.425 1.447a4.78 4.78 0 0 0 3.424-1.448l-5.73-5.581a3.219 3.219 0 0 1 2.306-.972v8Zm3.424-1.448a4.824 4.824 0 0 0 1.367-3.365h-8c0-.812.313-1.61.903-2.216l5.73 5.581Zm1.367-3.365V4.071h-8v20.31h8Zm0-20.309c0 .381-.147.767-.44 1.068l-5.73-5.582a6.47 6.47 0 0 0-1.83 4.514h8Zm-.44 1.068a1.657 1.657 0 0 1-1.187.495v-8a6.343 6.343 0 0 0-4.543 1.923l5.73 5.582Zm-1.187.495c-.465 0-.89-.19-1.187-.495L21.16-.443a6.343 6.343 0 0 0-4.544-1.923v8Zm-1.187-.495a1.53 1.53 0 0 1-.439-1.068h8a6.47 6.47 0 0 0-1.83-4.514L15.43 5.14Zm-.439-1.068v20.31h8V4.07h-8Zm0 20.31c0 1.242.48 2.454 1.366 3.364l5.731-5.581c.59.605.903 1.404.903 2.216h-8Zm1.366 3.364a4.78 4.78 0 0 0 3.425 1.447v-8c.886 0 1.713.363 2.306.972l-5.73 5.581Zm3.425 1.447a4.781 4.781 0 0 0 3.425-1.447l-5.73-5.581a3.22 3.22 0 0 1 2.305-.972v8Zm3.425-1.447a4.824 4.824 0 0 0 1.366-3.365h-8c0-.812.314-1.61.903-2.216l5.731 5.581Zm1.366-3.365V6.51h-8v17.87h8Zm0-17.871c0 .38-.146.766-.439 1.067l-5.73-5.582a6.47 6.47 0 0 0-1.83 4.515h8Zm-.439 1.067a1.658 1.658 0 0 1-1.187.495v-8a6.343 6.343 0 0 0-4.544 1.923l5.731 5.582Zm-1.187.495c-.466 0-.89-.19-1.187-.495l5.73-5.582A6.342 6.342 0 0 0 22.946.071v8Zm-1.187-.495a1.53 1.53 0 0 1-.44-1.067h8a6.47 6.47 0 0 0-1.83-4.515l-5.73 5.582Zm-.44-1.067v20.714h8V6.51h-8Zm0 20.714c0 1.243.48 2.456 1.367 3.366l5.73-5.582c.59.605.904 1.404.904 2.216h-8Zm1.367 3.366a4.78 4.78 0 0 0 3.425 1.447v-8a3.22 3.22 0 0 1 2.306.97l-5.731 5.583Zm3.425 1.447a4.78 4.78 0 0 0 3.425-1.447l-5.731-5.582a3.22 3.22 0 0 1 2.306-.971v8Zm3.425-1.447a4.823 4.823 0 0 0 1.366-3.366h-8c0-.811.313-1.61.903-2.216l5.73 5.582Zm1.366-3.36c0 .004 0 .01-.004.019a.131.131 0 0 1-.025.04l-5.924-5.378a7.915 7.915 0 0 0-2.047 5.307l8 .012Zm-.03.058a.283.283 0 0 1-.187.083l-.59-7.979a7.72 7.72 0 0 0-5.146 2.519l5.924 5.377Zm-.187.083a.308.308 0 0 1-.216-.063l5.09-6.171a7.692 7.692 0 0 0-5.463-1.744l.59 7.978Zm-.216-.063c-.043-.035-.05-.066-.05-.072l7.92-1.128a7.883 7.883 0 0 0-2.78-4.971l-5.09 6.17Zm2.275-4.287c-1.191.534-3.004 1.633-4.513 3.755-1.533 2.156-2.56 5.099-2.56 8.978h8c0-2.408.615-3.688 1.08-4.342.49-.688 1.03-.985 1.263-1.09l-3.27-7.3Z" fill="#F9F9F9" mask="url(#a)"/><mask id="b" fill="#fff"><path d="M21.128 31.119a.78.78 0 0 0-1.116 0l-4.19 4.297-4.189-4.297a.779.779 0 0 0-1.074.043.826.826 0 0 0-.042 1.103l4.186 4.3-4.185 4.302a.81.81 0 0 0-.276.586.834.834 0 0 0 .231.606.789.789 0 0 0 .59.237.777.777 0 0 0 .57-.283l4.19-4.298 4.19 4.298a.779.779 0 0 0 1.073-.043.826.826 0 0 0 .041-1.103l-4.185-4.301 4.186-4.302a.824.824 0 0 0 0-1.145Z"/></mask><path d="m21.128 31.119 2.874-2.782-.009-.009-.008-.008-2.857 2.799Zm-1.116 0-2.857-2.8-.007.008 2.864 2.792Zm-4.19 4.297L12.96 38.21l2.864 2.938 2.864-2.938-2.864-2.793Zm-4.189-4.297 2.865-2.792-.108-.11-.115-.102-2.642 3.004Zm-1.115 1.145-3.072 2.563.098.117.107.11 2.867-2.79Zm4.185 4.302 2.867 2.79 2.714-2.79-2.714-2.79-2.867 2.79Zm-4.185 4.301 2.641 3.004.117-.103.109-.111-2.867-2.79Zm1.115 1.146L8.77 39.22l-.108.111-.1.12 3.072 2.562Zm4.19-4.298 2.864-2.792-2.864-2.938-2.864 2.938 2.864 2.792Zm4.19 4.298-2.865 2.792.108.11.115.102 2.641-3.004Zm1.115-1.146 3.072-2.562-.098-.117-.107-.11-2.867 2.79Zm-4.186-4.301-2.866-2.79-2.715 2.79 2.715 2.79 2.866-2.79Zm4.186-4.302 2.867 2.79.007-.007-2.874-2.783Zm2.857-3.944a4.78 4.78 0 0 0-3.415-1.437v8c-.882 0-1.707-.36-2.3-.965l5.715-5.598Zm-3.415-1.437a4.78 4.78 0 0 0-3.415 1.437l5.714 5.598a3.219 3.219 0 0 1-2.299.965v-8Zm-3.422 1.444-4.19 4.297 5.729 5.585 4.19-4.298-5.729-5.584Zm1.539 4.297-4.19-4.297L8.77 33.91l4.19 4.298 5.728-5.585Zm-4.412-4.509a4.778 4.778 0 0 0-3.345-1.188l.317 7.994a3.222 3.222 0 0 1-2.255-.798l5.283-6.008Zm-3.345-1.188a4.781 4.781 0 0 0-3.236 1.444l5.73 5.582a3.218 3.218 0 0 1-2.177.968l-.317-7.994Zm-3.236 1.444a4.823 4.823 0 0 0-1.363 3.183l7.994.301a3.177 3.177 0 0 1-.9 2.098L7.694 28.37ZM6.33 31.554a4.826 4.826 0 0 0 1.115 3.273l6.143-5.125c.511.613.765 1.382.736 2.153l-7.994-.3Zm1.32 3.5 4.185 4.301 5.734-5.579-4.185-4.301-5.734 5.579Zm4.185-1.278L7.65 38.078l5.734 5.579 4.185-4.302-5.734-5.579Zm-3.96 4.087a4.81 4.81 0 0 0-1.174 1.562l7.237 3.41c-.184.39-.447.744-.78 1.036l-5.282-6.008Zm-1.174 1.562a4.83 4.83 0 0 0-.457 1.878l7.994.3a3.172 3.172 0 0 1-.3 1.233l-7.237-3.41Zm-.457 1.878a4.832 4.832 0 0 0 .314 1.904l7.474-2.852c.153.4.222.824.206 1.248l-7.994-.3Zm.314 1.904a4.81 4.81 0 0 0 1.048 1.642l5.731-5.581c.308.315.542.686.695 1.087l-7.474 2.852Zm1.048 1.642a4.78 4.78 0 0 0 1.644 1.103l2.986-7.422a3.2 3.2 0 0 1 1.101.738l-5.73 5.581Zm1.644 1.103c.624.25 1.295.368 1.97.34l-.316-7.993c.457-.018.91.061 1.332.23L9.25 45.953Zm1.97.34a4.775 4.775 0 0 0 1.935-.494l-3.558-7.165c.404-.2.849-.316 1.306-.334l.318 7.994Zm1.935-.494a4.794 4.794 0 0 0 1.55-1.223L8.561 39.45c.28-.336.632-.616 1.036-.817l3.558 7.165Zm1.341-.993 4.19-4.297-5.728-5.585-4.19 4.297 5.729 5.585Zm-1.538-4.297 4.19 4.297 5.727-5.585-4.189-4.297-5.728 5.585Zm4.412 4.509a4.779 4.779 0 0 0 3.345 1.187l-.317-7.993a3.221 3.221 0 0 1 2.255.798l-5.283 6.008Zm3.345 1.187a4.782 4.782 0 0 0 3.236-1.443l-5.731-5.582a3.219 3.219 0 0 1 2.178-.968l.317 7.993Zm3.236-1.443a4.823 4.823 0 0 0 1.363-3.184l-7.995-.3c.03-.772.34-1.523.9-2.098l5.732 5.582Zm1.363-3.184a4.825 4.825 0 0 0-1.115-3.272l-6.144 5.124a3.174 3.174 0 0 1-.736-2.152l7.995.3Zm-1.32-3.5-4.186-4.3-5.733 5.578 4.185 4.302 5.734-5.58Zm-4.186 1.278 4.186-4.301-5.734-5.58-4.185 4.302 5.733 5.58Zm4.193-4.308a4.824 4.824 0 0 0 1.356-3.355h-8c0-.809.31-1.605.896-2.21l5.748 5.565Zm1.356-3.355a4.824 4.824 0 0 0-1.356-3.355L18.254 33.9a3.177 3.177 0 0 1-.896-2.21h8Z" fill="#F9F9F9" mask="url(#b)"/></svg>