<svg width="52" height="52" fill="none" xmlns="http://www.w3.org/2000/svg"><path d="M7.251 7.603H22.6M7.251 12.619H22.6" stroke="#F9F9F9" stroke-width="1.5" stroke-miterlimit="10" stroke-linecap="round" stroke-linejoin="round"/><mask id="a" style="mask-type:luminance" maskUnits="userSpaceOnUse" x="0" y="0" width="52" height="52"><path d="M51.25 51.25V.75H.75v50.5h50.5Z" fill="#fff" stroke="#fff" stroke-width="1.5"/></mask><g mask="url(#a)" stroke="#F9F9F9" stroke-width="1.5" stroke-miterlimit="10" stroke-linecap="round" stroke-linejoin="round"><path d="M42.034 12.62h-9.826a2.032 2.032 0 0 1-2.031-2.032V.762m16.476 50.453H28.257a3.024 3.024 0 0 1-3.024-3.024V26.066a3.024 3.024 0 0 1 3.024-3.024h18.396a3.024 3.024 0 0 1 3.024 3.024V48.19a3.024 3.024 0 0 1-3.024 3.024Z"/><path d="M45.44 32.067H29.47a.89.89 0 0 1-.89-.89v-3.165a.89.89 0 0 1 .89-.891h15.97a.89.89 0 0 1 .891.89v3.165a.89.89 0 0 1-.89.89Zm-13.592 8.115h-2.115a1.154 1.154 0 0 1-1.154-1.154v-2.115c0-.637.517-1.154 1.154-1.154h2.115c.638 0 1.154.517 1.154 1.154v2.115c0 .637-.517 1.154-1.154 1.154Zm6.663 0h-2.115a1.154 1.154 0 0 1-1.154-1.154v-2.115c0-.637.517-1.154 1.154-1.154h2.115c.638 0 1.154.517 1.154 1.154v2.115c0 .637-.516 1.154-1.154 1.154Zm6.664 0H43.06a1.154 1.154 0 0 1-1.154-1.154v-2.115c0-.637.517-1.154 1.154-1.154h2.115c.638 0 1.154.517 1.154 1.154v2.115c0 .637-.517 1.154-1.154 1.154Zm-13.327 7.116h-2.115a1.154 1.154 0 0 1-1.154-1.154v-2.115c0-.637.517-1.154 1.154-1.154h2.115c.638 0 1.154.517 1.154 1.154v2.115c0 .637-.517 1.154-1.154 1.154Zm13.327 0H43.06a1.154 1.154 0 0 1-1.154-1.154v-2.115c0-.637.517-1.154 1.154-1.154h2.115c.638 0 1.154.517 1.154 1.154v2.115c0 .637-.517 1.154-1.154 1.154Z"/><path d="M42.034 19.498v-6.879L30.176.762H5.014A2.689 2.689 0 0 0 2.325 3.45v45.1a2.689 2.689 0 0 0 2.689 2.688h16.858m16.639-3.94h-2.115a1.154 1.154 0 0 1-1.154-1.154V44.03c0-.637.517-1.154 1.154-1.154h2.115c.638 0 1.154.517 1.154 1.154v2.115c0 .638-.516 1.154-1.154 1.154Z"/></g></svg>