<svg width="52" height="52" fill="none" xmlns="http://www.w3.org/2000/svg"><mask id="a" fill="#fff"><path d="M2.6 52h46.8a2.6 2.6 0 0 0 2.6-2.6V35.533a2.6 2.6 0 0 0-2.6-2.6h-3.467v-.866a3.467 3.467 0 0 0-3.466-3.467h-5.2a3.466 3.466 0 0 0-3.467 3.467v.866h-3.467c-.46.003-.912.13-1.307.366L26 32.306v-.312a37.71 37.71 0 0 0 1.679-1.133c.274-.192.535-.376.78-.54a7.391 7.391 0 0 0 3.138-4.897l.352-2.105a3.471 3.471 0 0 0 2.718-3.386v-6.066a13.867 13.867 0 0 0-27.734 0v6.066a3.472 3.472 0 0 0 2.72 3.386l.352 2.104a7.392 7.392 0 0 0 3.138 4.897c.243.165.503.347.78.541.507.358 1.073.75 1.68 1.133v.312L7.64 34.918C2.714 36.538 0 41.373 0 48.533v.867A2.6 2.6 0 0 0 2.6 52Zm46.8-1.733H30.333a.866.866 0 0 1-.866-.867v-7.093c.277.103.57.157.866.16H36.4v.866a2.6 2.6 0 0 0 2.6 2.6h1.733a2.6 2.6 0 0 0 2.6-2.6v-.866H49.4c.296-.003.59-.057.867-.16V49.4a.866.866 0 0 1-.867.867Zm-11.267-7.8H41.6v.866a.867.867 0 0 1-.867.867H39a.867.867 0 0 1-.867-.867v-.866Zm-2.6-10.4a1.734 1.734 0 0 1 1.734-1.734h5.2a1.733 1.733 0 0 1 1.733 1.734v.866h-8.667v-.866Zm-6.066 3.466a.867.867 0 0 1 .866-.866H49.4a.867.867 0 0 1 .867.866v4.334a.866.866 0 0 1-.867.866H30.333a.867.867 0 0 1-.866-.866v-4.334ZM20.8 1.733a12.146 12.146 0 0 1 12.133 12.134v3.075c-.288-.171-.6-.3-.925-.38a3.953 3.953 0 0 0-3.13-3.475 18.012 18.012 0 0 1-6.868-2.34 2.253 2.253 0 0 0-2.42 0 17.998 17.998 0 0 1-6.87 2.34 3.952 3.952 0 0 0-3.128 3.47 3.45 3.45 0 0 0-.925.382v-3.072A12.147 12.147 0 0 1 20.8 1.733Zm-6.687 27.15a5.65 5.65 0 0 1-2.398-3.745l-.46-2.748a.866.866 0 0 0-.855-.723 1.734 1.734 0 0 1 0-3.467.867.867 0 0 0 .867-.867 2.412 2.412 0 0 1 1.698-2.527 19.735 19.735 0 0 0 7.549-2.586.515.515 0 0 1 .573 0 19.74 19.74 0 0 0 7.547 2.585 2.411 2.411 0 0 1 1.7 2.528.867.867 0 0 0 .866.867 1.733 1.733 0 1 1 0 3.467.866.866 0 0 0-.854.723l-.46 2.748a5.65 5.65 0 0 1-2.399 3.745c-.252.174-.52.36-.807.562-1.657 1.167-3.718 2.622-5.88 2.622s-4.223-1.455-5.88-2.622c-.285-.201-.555-.39-.807-.562Zm10.154 4.062a3.467 3.467 0 0 1-6.934 0 8.259 8.259 0 0 0 3.467.855 8.259 8.259 0 0 0 3.467-.855ZM1.733 48.533c0-6.35 2.29-10.6 6.45-11.968l7.55-2.479a5.195 5.195 0 0 0 10.133 0l2.003.658a2.58 2.58 0 0 0-.136.79V49.4c.003.296.057.59.16.867H2.6a.866.866 0 0 1-.867-.867v-.867Z"/></mask><path d="M2.6 52h46.8a2.6 2.6 0 0 0 2.6-2.6V35.533a2.6 2.6 0 0 0-2.6-2.6h-3.467v-.866a3.467 3.467 0 0 0-3.466-3.467h-5.2a3.466 3.466 0 0 0-3.467 3.467v.866h-3.467c-.46.003-.912.13-1.307.366L26 32.306v-.312a37.71 37.71 0 0 0 1.679-1.133c.274-.192.535-.376.78-.54a7.391 7.391 0 0 0 3.138-4.897l.352-2.105a3.471 3.471 0 0 0 2.718-3.386v-6.066a13.867 13.867 0 0 0-27.734 0v6.066a3.472 3.472 0 0 0 2.72 3.386l.352 2.104a7.392 7.392 0 0 0 3.138 4.897c.243.165.503.347.78.541.507.358 1.073.75 1.68 1.133v.312L7.64 34.918C2.714 36.538 0 41.373 0 48.533v.867A2.6 2.6 0 0 0 2.6 52Zm46.8-1.733H30.333a.866.866 0 0 1-.866-.867v-7.093c.277.103.57.157.866.16H36.4v.866a2.6 2.6 0 0 0 2.6 2.6h1.733a2.6 2.6 0 0 0 2.6-2.6v-.866H49.4c.296-.003.59-.057.867-.16V49.4a.866.866 0 0 1-.867.867Zm-11.267-7.8H41.6v.866a.867.867 0 0 1-.867.867H39a.867.867 0 0 1-.867-.867v-.866Zm-2.6-10.4a1.734 1.734 0 0 1 1.734-1.734h5.2a1.733 1.733 0 0 1 1.733 1.734v.866h-8.667v-.866Zm-6.066 3.466a.867.867 0 0 1 .866-.866H49.4a.867.867 0 0 1 .867.866v4.334a.866.866 0 0 1-.867.866H30.333a.867.867 0 0 1-.866-.866v-4.334ZM20.8 1.733a12.146 12.146 0 0 1 12.133 12.134v3.075c-.288-.171-.6-.3-.925-.38a3.953 3.953 0 0 0-3.13-3.475 18.012 18.012 0 0 1-6.868-2.34 2.253 2.253 0 0 0-2.42 0 17.998 17.998 0 0 1-6.87 2.34 3.952 3.952 0 0 0-3.128 3.47 3.45 3.45 0 0 0-.925.382v-3.072A12.147 12.147 0 0 1 20.8 1.733Zm-6.687 27.15a5.65 5.65 0 0 1-2.398-3.745l-.46-2.748a.866.866 0 0 0-.855-.723 1.734 1.734 0 0 1 0-3.467.867.867 0 0 0 .867-.867 2.412 2.412 0 0 1 1.698-2.527 19.735 19.735 0 0 0 7.549-2.586.515.515 0 0 1 .573 0 19.74 19.74 0 0 0 7.547 2.585 2.411 2.411 0 0 1 1.7 2.528.867.867 0 0 0 .866.867 1.733 1.733 0 1 1 0 3.467.866.866 0 0 0-.854.723l-.46 2.748a5.65 5.65 0 0 1-2.399 3.745c-.252.174-.52.36-.807.562-1.657 1.167-3.718 2.622-5.88 2.622s-4.223-1.455-5.88-2.622c-.285-.201-.555-.39-.807-.562Zm10.154 4.062a3.467 3.467 0 0 1-6.934 0 8.259 8.259 0 0 0 3.467.855 8.259 8.259 0 0 0 3.467-.855ZM1.733 48.533c0-6.35 2.29-10.6 6.45-11.968l7.55-2.479a5.195 5.195 0 0 0 10.133 0l2.003.658a2.58 2.58 0 0 0-.136.79V49.4c.003.296.057.59.16.867H2.6a.866.866 0 0 1-.867-.867v-.867Z" stroke="#F9F9F9" stroke-width="17.067" mask="url(#a)"/></svg>