<svg width="155" height="398" fill="none" xmlns="http://www.w3.org/2000/svg"><path d="m7.076 378.098 7.928.187 4.42-35.619-11.7-.277-.648 35.709Z" fill="#FFB7B7"/><path d="M34.277 394.638c0 1.339-.95 2.425-2.123 2.425H16.417s-1.549-6.225-7.863-8.904l-.436 8.904H0l.984-14.318s-2.172-7.66 2.338-11.575c4.51-3.916.857-3.371.857-3.371l1.774-8.861 12.268 1.442.09 13.911 5.954 13.808 8.732 4.313c.777.384 1.28 1.259 1.28 2.226Z" fill="#0B0B0B"/><path d="m71.71 376.787 7.876.933 7.755-35.046-11.623-1.377-4.007 35.49Z" fill="#FFB7B7"/><path d="M97.234 395.817c-.126 1.333-1.175 2.325-2.342 2.214l-15.668-1.482s-.955-6.343-6.989-9.605l-1.272 8.824-8.083-.765 2.328-14.161s-1.44-7.831 3.418-11.305c4.859-3.473 1.17-3.274 1.17-3.274l2.602-8.656 12.077 2.592-1.22 13.857 4.627 14.307 8.287 5.117c.737.455 1.156 1.374 1.065 2.337ZM63.979 48.63c.937-15.61 1.38-29.326-3.269-23.538C60.71 11.234 49.265 0 35.147 0 21.03 0 9.584 11.234 9.584 25.092v18.726c.004 1.86 1.539 3.366 3.433 3.369L60.545 52c1.895-.002 3.43-1.51 3.434-3.37Z" fill="#0B0B0B"/><path d="M41.084 47c-10.217 0-18.5-8.283-18.5-18.5S30.867 10 41.084 10c10.218 0 18.5 8.283 18.5 18.5S51.302 47 41.084 47Z" fill="#FFB7B7"/><path d="M66.58 26.937c.253-13.175-8.442-24.524-20.102-19.876h-3.793c-11.096.013-20.088 8.904-20.1 19.876L28.814 46 30.6 27.312l2.733-7.569.547 7.57h4.143c3.568.09 7.115-.47 10.51-1.561 6.206-1.995 12.099.139 18.046 1.56v-.375Z" fill="#0B0B0B"/><path d="m31.133 130 46.339-1.784c-.325-1.697-.152-4.171-1.117-4.312 1.35-3.437-.531-3.47-.607-5.231-.293-6.803 1.27-13.864 4.314-21.132 1.997-5.614 2.03-10.438.096-14.328a14.225 14.225 0 0 0-7.826-6.844l-10.14-12.392c-2.64-3.225-6.536-10.184-10.676-10.158l-22.22-.803c-.635-.386-8.437 6.403-16.034 9.734-8.24 3.613-6.54 13.487-6.52 13.613l.02.118.09.08 17.524 14.936 5.53 31.51c-.555 1.627-.413 2.848.622 3.549-1.49 1.115-.466 2.279.605 3.444Z" fill="#982622"/><path d="m77.089 125 22.116 66.104 9.379 75.801L93.994 356l-27.586-4.558 13.483-69.996L63.443 211.2l-39.06 139.674-22.799.568 15.52-161.185 12.375-61.683L77.09 125Z" fill="#0B0B0B"/><path d="M37.641 178.45c1.902 4.893 5.967 7.878 9.08 6.668 3.114-1.21 4.096-6.157 2.195-11.05-.833-2.141-2.08-3.917-3.48-5.136l-8.318-20.629-9.598 4.109 9.219 19.9c-.21 1.845.07 3.997.902 6.138Z" fill="#FFB6B6"/><path d="M25.608 58.334S4.502 62.219 5.541 71.879c1.04 9.66 16.27 62.63 16.27 62.63l10.038 34.256 13.04-4.4-9.664-50.266-9.617-55.765Z" fill="#982622"/><path d="M144.779 88.904c-1.825.736-3.328 1.81-4.349 3.001l-17.846 5.937 3.16 8.158 17.762-6.9c1.59.14 3.435-.134 5.261-.87 4.17-1.679 6.658-5.128 5.557-7.703-1.101-2.576-5.375-3.302-9.545-1.623Z" fill="#FFB6B6"/><path d="M43.584 64.323 84.096 119l47.488-13.075-2.064-12.386-36.16 6.848-20.174-31.01c-6.588-12.731-19.571-15.295-29.602-5.054Z" fill="#982622"/></svg>