<svg width="15" height="14" fill="none" xmlns="http://www.w3.org/2000/svg"><path d="M6.842 14a.329.329 0 0 1-.242-.112L.087 6.424a.368.368 0 0 1-.06-.376.344.344 0 0 1 .122-.153.316.316 0 0 1 .18-.057h3.135a.331.331 0 0 1 .248.12L5.89 8.611c.235-.532.69-1.42 1.49-2.5 1.18-1.598 3.378-3.949 7.137-6.07a.313.313 0 0 1 .237-.03.33.33 0 0 1 .194.148.366.366 0 0 1-.074.464c-.014.012-1.463 1.222-3.132 3.437-1.535 2.038-3.576 5.372-4.58 9.675a.351.351 0 0 1-.117.19.317.317 0 0 1-.202.075Z" fill="#006CB5"/></svg>