<svg width="509" height="541" fill="none" xmlns="http://www.w3.org/2000/svg"><g clip-path="url(#a)"><path d="M411.565 166.261c.589-.92 4.298-6.715 7.046-6.128 5.209 1.113 2.383 24.175 9.956 26.475 1.661.505 4.001.063 9.225 1.46 2.079.555 3.156 1.012 3.491 1.931.475 1.305-.961 2.402-3.093 5.581-3.198 4.768-2.215 5.65-5.027 9.068-2.087 2.537-3.726 3.383-3.405 4.496.455 1.576 4.029.899 4.887 2.705.876 1.843-1.667 5.028-3.866 6.975-4.128 3.654-8.241 4.007-12.008 5.205-4.093 1.302-9.692 4.21-15.487 11.482l-46.314 62.641c3.735-1.414 11.012-4.32 20.939-9.288a250.307 250.307 0 0 0 24.674-14.189 235.937 235.937 0 0 0 9.172-6.3l-.275.144 1.323-4.784c.508-1.901.841-3.454.136-4.703-.388-.667-1.121-1.357-1.975-2.156-.98-.913-2.092-1.948-3.175-3.384-1.004-1.292-1.233-2.445-.731-3.41.17-.329.393-.562.629-.734a12.278 12.278 0 0 1-.849-1.534c-.578-1.284-.719-2.384-.822-3.203-.419-3.29.114-5.229 1.592-5.764.624-.225 1.188-.122 1.66.1.035-.676.125-1.47.371-2.326.793-2.748 1.896-4.141 3.364-4.256 2.052-.162 3.086 2.103 4.282 4.72.536 1.163 1.943 4.261 2.677 4.264.091-.001.35-.057.58-.107a15.128 15.128 0 0 1 3.059-.384c.83-.024 2.084-.06 2.851.967.683.985.346 2.032.036 2.869-.103.276-.226.604-.349 1.002-.282.907-.329 1.396-.375 1.87-.06.617-.122 1.257-.564 2.311l-.107.244c.416.095.852.295 1.218.702 1.377 1.498.092 3.978-.52 4.965-1.1 1.766-2.494 2.614-3.615 3.297-.283.172-.561.341-.83.524-1.391.947-2.545 2.381-3.469 4.227a813.508 813.508 0 0 0 3.121-2.389c3.515-2.703 6.82-5.337 10.043-7.904 3.313-2.641 6.558-5.225 9.858-7.746l-.208-.906.798.462c5.205-3.955 10.566-7.754 16.585-11.358.246-.148.538-.321.839-.497l.287-1.036c.507-1.901.84-3.454.136-4.703-.389-.668-1.122-1.358-1.976-2.156-.979-.914-2.092-1.948-3.175-3.384-1.004-1.293-1.233-2.445-.731-3.411.17-.328.394-.561.629-.733a12.278 12.278 0 0 1-.849-1.534c-.578-1.285-.719-2.384-.821-3.203-.42-3.291.113-5.229 1.591-5.764.625-.225 1.188-.122 1.66.099.035-.675.125-1.469.372-2.325.792-2.749 1.895-4.142 3.364-4.257 2.051-.162 3.086 2.103 4.282 4.721.536 1.163 1.942 4.261 2.677 4.263.091-.001.35-.056.579-.107a15.202 15.202 0 0 1 3.059-.384c.831-.023 2.084-.06 2.851.968.683.985.346 2.032.036 2.869-.103.276-.226.604-.349 1.002-.281.907-.328 1.396-.375 1.87-.059.617-.122 1.257-.564 2.311l-.106.243c.415.095.851.296 1.217.702 1.378 1.498.093 3.978-.519 4.965-1.101 1.767-2.495 2.615-3.616 3.298-.283.172-.561.341-.829.524-.787.535-1.494 1.233-2.134 2.059a30.82 30.82 0 0 1 7.057-1.499c3.177-.29 6.396-.076 9.604.623l.07-.742c.272-2.949.472-4.172 1.489-5.319.494-.56 1.25-1.175 3.412-1.879 2.997-.975 5.564-1.123 6.281-1.145 3.583-.102 6.677-.19 9.487 1.97.536.409 2.164 1.648 3.057 3.835.458 1.106.54 2.004.607 2.726.069.754.113 1.253.537 1.952.268.445.59.808.846 1.101.494.585 1.423 1.657.645 2.82-.188.282-.424.48-.693.613.143.988.056 2.009-.433 2.933-.439.832-1.194 1.389-3.23 2.382-3.116 1.522-5.626 2.263-6.125 2.403-3.231.915-4.852 1.375-6.588 1.308-3.697-.147-6.382-1.292-7.981-3.406a5.51 5.51 0 0 1-.226-.314c-1.121-1.66-1.242-3.397-1.436-6.163-.037-.534-.026-1.149.021-1.934-3.031-.704-6.068-.944-9.057-.67-6.471.592-11.07 3.346-13.278 4.67-5.5 3.293-10.459 6.77-15.268 10.386l.58.337c1.712.972 3.13 1.688 4.518 1.324.745-.206 1.599-.74 2.588-1.363 1.133-.715 2.417-1.527 4.082-2.21 1.506-.643 2.679-.571 3.487.159.275.247.444.523.55.794a12.259 12.259 0 0 1 1.701-.431c1.39-.233 2.49-.091 3.309.018 3.292.429 5.033 1.436 5.176 3 .06.661-.183 1.18-.517 1.579a10.34 10.34 0 0 1 2.157.949c2.459 1.463 3.528 2.883 3.267 4.331-.363 2.024-2.818 2.45-5.656 2.941-1.262.224-4.617.797-4.806 1.506-.022.088-.034.353-.043.588-.028.642-.069 1.612-.405 3.054-.188.808-.47 2.029-1.66 2.51-1.126.41-2.055-.181-2.786-.693-.241-.17-.528-.372-.881-.592-.807-.502-1.269-.671-1.716-.836-.582-.214-1.186-.437-2.094-1.132l-.209-.164a2.278 2.278 0 0 1-.988.998c-1.799.952-3.874-.919-4.675-1.761-1.43-1.512-1.898-3.074-2.274-4.331-.096-.317-.189-.629-.298-.935-.684-1.924-2.112-3.703-4.247-5.29l-.461-.343-.441-1.921a681.513 681.513 0 0 0-8.687 6.84c-3.234 2.578-6.554 5.223-10.084 7.937-4.68 3.598-10.503 8.075-18.612 13.369a253.244 253.244 0 0 1-24.982 14.363c-7.552 3.78-13.602 6.386-17.752 8.058 12.094.808 28.825 1.768 36.386 1.903 2.94.053 5.97.008 8.129-2.025 2.079-1.956 3.101-5.519 6.126-9.239.353-.435 1.352-1.632 2.236-1.42.731.175.717 1.153 1.397 1.327.912.232 1.676-1.339 3.564-2.817 1.331-1.042 2.544-1.507 3.587-1.908.314-.121 5.027-1.898 5.893-.605.65.971-1.434 2.833-.816 3.654.617.818 2.901-.746 6.348-.617.621.023 4.538.17 5.042 1.687.957 2.876-11.187 8.144-10.131 12.521.231.961 1.123 1.981 1.945 4.946.326 1.18.413 1.84.058 2.269-.504.609-1.457.222-3.634.093-3.264-.192-3.414.545-5.904.152-1.849-.292-2.737-.851-3.191-.373-.643.678.721 2.235.081 3.177-.652.961-2.95.633-4.542.117-2.985-.97-4.345-2.886-6.021-4.387-1.82-1.632-4.864-3.539-10.109-4.282l-37.121-3.903c-2.171.865-3.77 1.455-4.701 1.799-.496.182-.815.296-.946.356l-.492-.945-.551.745.539-.768-.21-.403-1.421-.63c.191-.435.401-.625.968-.87l-2.854-.3c.863.07 1.902.149 3.012.232.234-.095.521-.201.879-.334.418-.153.985-.363 1.664-.619 11.258-16.22 34.416-50.586 43.035-64.652 2.697-4.401 5.325-9.025 4.168-14.101-1.115-4.888-5.605-9.605-8.549-17.493-.344-.921-1.269-3.497-.161-4.647.915-.95 2.386-.059 3.254-.933 1.164-1.173-.536-3.728-1.096-7.899-.394-2.941-.02-5.191.301-7.125.097-.584 1.599-9.296 4.329-9.455 2.05-.119 3.016 4.692 4.811 4.486 1.789-.205 1.451-5.053 4.715-10.152Z" fill="#F2F2F2"/><path d="m32.17 378.807 331.527-45.786a28.298 28.298 0 0 0 23.332-20.237l76.143-266.287c2.58-9.026.654-18.371-5.285-25.643-5.938-7.271-14.712-11.03-24.081-10.315L99.793 36.11a28.281 28.281 0 0 0-25.244 21.156L.894 343.768a28.207 28.207 0 0 0 6.288 25.851 28.25 28.25 0 0 0 21.097 9.455c1.29 0 2.592-.088 3.892-.267Z" fill="#A1C4FC"/><path d="m116.006 319.235 105.152-14.522a8.977 8.977 0 0 0 7.401-6.418l24.15-84.46c.819-2.863.208-5.827-1.676-8.134-1.884-2.306-4.666-3.498-7.638-3.271l-105.941 8.11a8.97 8.97 0 0 0-8.007 6.71l-23.362 90.872c-.745 2.9 0 5.965 1.995 8.199a8.957 8.957 0 0 0 7.926 2.914Zm9.407-234.325 195.2-17.953c4.921-.453 8.751-2.713 8.537-5.037-.215-2.325-4.393-3.848-9.314-3.395L124.637 76.478c-4.921.453-8.75 2.712-8.535 5.037.214 2.325 4.39 3.848 9.311 3.395Zm-10.644 51.264 195.199-17.953c4.921-.453 8.751-2.713 8.537-5.038-.214-2.325-4.392-3.847-9.314-3.394l-195.199 17.953c-4.921.453-8.749 2.712-8.535 5.036.214 2.325 4.391 3.849 9.312 3.396Zm-3.759 44.682 195.199-17.954c4.922-.452 8.751-2.712 8.537-5.037-.214-2.325-4.392-3.847-9.313-3.395l-195.2 17.954c-4.921.452-8.749 2.711-8.535 5.036.214 2.325 4.391 3.848 9.312 3.396Z" fill="#fff"/><path d="M228.628 149.273c-4.9-5.334-11.626-7.131-15.022-4.015-3.397 3.116-2.178 9.965 2.724 15.3a18.124 18.124 0 0 0 7.052 4.855l21.045 22.338 10.28-10.092-21.838-20.949a18.113 18.113 0 0 0-4.241-7.437Z" fill="#FFB6B6"/><path d="M348.609 154.243s-12.298-11.239-27.014-1.426-48.986 34.913-48.986 34.913l-24.013-29.758-18.922 17.137s33.377 58.744 54.942 45.815c21.564-12.929 69.705-49.836 67.519-57.472-2.186-7.636-3.526-9.209-3.526-9.209Z" fill="#982622"/><path d="m257.55 428.404 19.593 36.481 16.137-19.514-18.563-25.064-17.167 8.097Z" fill="#FFB6B6"/><path d="m270.22 459.843 8.29 44.759s5.565 15.523 14.509-.245c8.944-15.767 25.14-48.388 15.829-54.367-9.311-5.978-20.556-10.808-20.556-10.808l-18.072 20.661Z" fill="#0B0B0B"/><path d="m245.986 468.133-20.672 37.179 25.84 3.099 11.37-29.951-16.538-10.327Zm109.56-336.68s2.068 20.655 5.168 22.721c3.101 2.065-36.192 0-36.192 0l11.386-22.721h19.638Z" fill="#FFB6B6"/><path d="m313.177 160.386 14.462-11.376h35.362l23.553 19.622-14.987 69.712 7.235 34.081-91.99 3.098 16.538-30.983s-19.638-20.655-13.437-34.081c6.202-13.426 23.264-50.073 23.264-50.073Z" fill="#982622"/><path d="m296.115 267.262-13.437 7.229s-72.351 68.162-66.149 88.818c6.201 20.655 47.545 79.522 47.545 79.522l19.638-10.327-28.94-62.999 55.297-55.253-29.684 52.284-42.151 110.376 24.806 10.328 64.083-129.095s52.713-36.147 55.813-58.868c3.101-22.72-4.134-26.851-4.134-26.851l-82.687-5.164Zm-70.283 229.273-34.109 32.016s-10.336 13.426 8.269 12.393c18.604-1.033 55.814-5.164 55.814-16.524 0-11.361-2.068-23.754-2.068-23.754l-27.906-4.131Z" fill="#0B0B0B"/><path d="M345.21 136.616c-13.129 0-23.773-10.634-23.773-23.753s10.644-23.754 23.773-23.754 23.772 10.635 23.772 23.754c0 13.119-10.643 23.753-23.772 23.753Z" fill="#FFB6B6"/><path d="m242.083 207.644 19.592 59.618a4.53 4.53 0 0 0 3.528 3.048l37.468 6.511c3.36.583 6.136-2.611 5.086-5.854l-19.566-60.428a4.526 4.526 0 0 0-3.628-3.081l-37.494-5.701c-3.338-.508-6.039 2.681-4.986 5.887Z" fill="#fff"/><path d="M303.466 277.919a5.513 5.513 0 0 0 4.182-1.917 5.511 5.511 0 0 0 1.093-5.355l-19.566-60.429a5.531 5.531 0 0 0-4.457-3.784l-37.493-5.701a5.53 5.53 0 0 0-5.085 1.905 5.52 5.52 0 0 0-1.038 5.325l19.591 59.618a5.556 5.556 0 0 0 4.333 3.744l37.468 6.51c.325.056.65.084.972.084Zm-57.087-75.185c.177 0 .356.013.535.04l37.493 5.702a3.473 3.473 0 0 1 2.801 2.378l19.515 60.271c.358 1.106.241 2.349-.447 3.287a3.486 3.486 0 0 1-3.428 1.388l-15.035-2.613a41.413 41.413 0 0 1-32.259-27.865l-12.451-37.89c-.314-.955-.275-2.018.22-2.892.652-1.15 1.814-1.806 3.056-1.806Z" fill="#3F3D56"/><path d="M299.277 254.089c-7.24.268-12.971 4.218-12.8 8.822.172 4.604 6.18 8.119 13.423 7.85a18.155 18.155 0 0 0 8.272-2.215l30.665-1.522-1.022-14.364-30.121 3.026a18.14 18.14 0 0 0-8.417-1.597Z" fill="#FFB6B6"/><path d="M380.869 166.051s-16.537 2.065-18.604 19.622-5.168 59.9-5.168 59.9l-38.243-1.032.785 25.506s66.398 12.706 70.533-12.08c4.134-24.787 7.235-85.337 0-88.627-7.235-3.289-9.303-3.289-9.303-3.289Z" fill="#982622"/><path d="m249.149 216.859 35.245 2.967a1.619 1.619 0 0 0 1.748-1.474 1.619 1.619 0 0 0-1.476-1.746l-35.245-2.967a1.618 1.618 0 0 0-1.747 1.474 1.618 1.618 0 0 0 1.475 1.746Zm3.101 10.328 35.245 2.967a1.618 1.618 0 0 0 1.747-1.474 1.618 1.618 0 0 0-1.476-1.746l-35.245-2.967a1.618 1.618 0 0 0-1.747 1.474 1.619 1.619 0 0 0 1.476 1.746Zm3.101 10.328 35.245 2.968a1.62 1.62 0 0 0 1.747-1.475 1.618 1.618 0 0 0-1.476-1.746l-35.245-2.967a1.618 1.618 0 0 0-1.747 1.474 1.618 1.618 0 0 0 1.476 1.746Z" fill="#3F3D56"/><path d="m351.572 121.407-16.631-19.081 2.773-8.048-8.928 8.477-4.608-1.25s.039-16.34 13.097-17.078c13.058-.738 22.424.636 22.424.636s18.67 5.846 19.4 10.326c.73 4.48 11.19 10.434 11.19 10.434s9.075 6.746 4.833 18.051c-4.243 11.306-13.923 25.419-7.222 32.298 6.701 6.88 16.17 12.175 11.556 14.816-4.614 2.64-12.936-9.74-20.515-4.79-7.58 4.95-20.387 24.831-32.401 14.563-12.013-10.268-14.235-22.16-14.235-22.16l19.173-18.932s11.615-19.798.094-18.262Z" fill="#0B0B0B"/></g><defs><clipPath id="a"><path fill="#fff" transform="matrix(-1 0 0 1 509 0)" d="M0 0h509v541H0z"/></clipPath></defs></svg>