<svg width="40" height="40" fill="none" xmlns="http://www.w3.org/2000/svg"><path d="M20 40c11.046 0 20-8.954 20-20S31.046 0 20 0 0 8.954 0 20s8.954 20 20 20Z" fill="url(#a)"/><path d="M24.249 8.889H15.76a6.866 6.866 0 0 0-6.862 6.862v8.489a6.866 6.866 0 0 0 6.862 6.862h8.489a6.866 6.866 0 0 0 6.862-6.862v-8.489A6.866 6.866 0 0 0 24.25 8.89Zm4.382 15.36a4.395 4.395 0 0 1-4.391 4.391h-8.489a4.395 4.395 0 0 1-4.391-4.391V15.76a4.395 4.395 0 0 1 4.391-4.391h8.489a4.395 4.395 0 0 1 4.391 4.391v8.489Z" fill="#fff"/><path d="M20 14.32A5.69 5.69 0 0 0 14.32 20 5.69 5.69 0 0 0 20 25.68 5.69 5.69 0 0 0 25.68 20 5.69 5.69 0 0 0 20 14.32Zm0 9.129a3.452 3.452 0 0 1-3.449-3.45A3.452 3.452 0 0 1 20 16.552 3.452 3.452 0 0 1 23.449 20 3.452 3.452 0 0 1 20 23.449Zm6.113-8.506a.96.96 0 1 0-.308-1.895.96.96 0 0 0 .308 1.895Z" fill="#fff"/><defs><linearGradient id="a" x1="4.771" y1="35.228" x2="33.194" y2="6.806" gradientUnits="userSpaceOnUse"><stop stop-color="#FEE411"/><stop offset=".052" stop-color="#FEDB16"/><stop offset=".138" stop-color="#FEC125"/><stop offset=".248" stop-color="#FE983D"/><stop offset=".376" stop-color="#FE5F5E"/><stop offset=".5" stop-color="#FE2181"/><stop offset="1" stop-color="#9000DC"/></linearGradient></defs></svg>