<svg width="608" height="386" viewBox="0 0 608 386" fill="none" xmlns="http://www.w3.org/2000/svg">
<path d="M506.196 160.961H506.055L425.212 195.618L314.603 243.037C314.17 243.219 313.707 243.315 313.238 243.317C312.769 243.319 312.304 243.229 311.87 243.051L197.753 195.519L114.924 161.017L114.798 160.961H114.657C113.35 160.962 112.097 161.484 111.173 162.412C110.249 163.34 109.729 164.598 109.728 165.91V380.839C109.729 382.151 110.249 383.409 111.173 384.337C112.097 385.264 113.35 385.786 114.657 385.788H506.196C507.503 385.786 508.756 385.264 509.68 384.337C510.604 383.409 511.124 382.151 511.126 380.839V165.91C511.124 164.598 510.604 163.34 509.68 162.412C508.756 161.484 507.503 160.962 506.196 160.961Z" fill="white"/>
<path d="M506.035 163.155C505.892 163.155 505.752 163.111 505.634 163.028L311.192 27.0111C310.6 26.5991 309.897 26.3789 309.177 26.3802C308.457 26.3814 307.754 26.604 307.164 27.018L114.123 163.027C113.97 163.134 113.781 163.175 113.598 163.143C113.415 163.11 113.252 163.006 113.145 162.853C113.038 162.7 112.996 162.511 113.028 162.326C113.06 162.142 113.163 161.978 113.315 161.87L306.357 25.8615C307.183 25.282 308.167 24.9704 309.175 24.9688C310.183 24.9671 311.167 25.2754 311.995 25.8522L506.438 161.869C506.56 161.955 506.653 162.078 506.701 162.221C506.749 162.363 506.751 162.517 506.706 162.66C506.661 162.804 506.572 162.929 506.452 163.018C506.331 163.107 506.185 163.155 506.035 163.155Z" fill="#F7F7F7"/>
<path d="M125.082 167.252L309.726 30.4531L495.772 176.986L319.24 281.601L223.398 259.763L125.082 167.252Z" fill="#E6E6E6"/>
<path d="M231.58 346.305H140.319C139.188 346.307 138.103 345.846 137.302 345.025C136.501 344.203 136.051 343.088 136.049 341.925C136.047 340.761 136.495 339.645 137.293 338.821C138.092 337.997 139.175 337.533 140.306 337.531H231.58C232.711 337.53 233.796 337.99 234.597 338.812C235.398 339.633 235.848 340.748 235.85 341.912C235.852 343.075 235.404 344.192 234.606 345.016C233.807 345.839 232.723 346.303 231.593 346.305H231.58Z" fill="#982622"/>
<path d="M172.427 328.758H140.243C139.132 328.759 138.066 328.298 137.28 327.477C136.493 326.655 136.05 325.541 136.049 324.378C136.047 323.215 136.487 322.099 137.271 321.275C138.055 320.451 139.12 319.987 140.231 319.984H172.427C172.978 319.983 173.523 320.095 174.032 320.315C174.542 320.534 175.004 320.857 175.394 321.264C175.784 321.67 176.094 322.154 176.306 322.686C176.517 323.218 176.626 323.788 176.627 324.365C176.628 324.941 176.52 325.512 176.31 326.045C176.1 326.577 175.792 327.062 175.403 327.47C175.014 327.878 174.552 328.201 174.044 328.423C173.535 328.644 172.99 328.758 172.44 328.758H172.427Z" fill="#982622"/>
<path d="M312.159 243.214C311.466 243.214 310.78 243.08 310.139 242.819L196.368 195.776V48.5227C196.37 47.2206 196.889 45.9723 197.813 45.0515C198.737 44.1308 199.99 43.6128 201.297 43.6113H419.557C420.863 43.6128 422.116 44.1308 423.04 45.0515C423.964 45.9723 424.484 47.2206 424.485 48.5227V195.879L424.271 195.97L314.24 242.796C313.581 243.072 312.873 243.214 312.159 243.214Z" fill="white"/>
<path d="M312.71 244.311C311.97 244.312 311.237 244.168 310.552 243.888L196.368 196.403V47.817C196.37 46.4115 196.928 45.064 197.919 44.0701C198.911 43.0763 200.255 42.5172 201.658 42.5156H420.292C421.695 42.5172 423.039 43.0763 424.031 44.0701C425.023 45.064 425.58 46.4115 425.582 47.817V196.504L314.933 243.863C314.229 244.16 313.474 244.312 312.71 244.311ZM197.779 195.459L311.09 242.581C312.147 243.011 313.331 243.004 314.382 242.562L424.171 195.571V47.817C424.17 46.7863 423.761 45.7982 423.034 45.0694C422.307 44.3406 421.321 43.9306 420.292 43.9294H201.658C200.629 43.9306 199.643 44.3406 198.916 45.0694C198.189 45.7982 197.78 46.7863 197.779 47.817L197.779 195.459Z" fill="#F7F7F7"/>
<path d="M505.113 160.961H504.972L424.35 195.618L314.043 243.037C313.612 243.219 313.149 243.315 312.682 243.317C312.214 243.319 311.751 243.229 311.318 243.051L197.513 195.519L114.91 161.017L114.784 160.961H114.643C113.34 160.962 112.091 161.484 111.169 162.412C110.247 163.34 109.729 164.598 109.728 165.91V380.839C109.729 382.151 110.247 383.409 111.169 384.337C112.091 385.264 113.34 385.786 114.643 385.788H505.113C506.416 385.786 507.666 385.264 508.587 384.337C509.509 383.409 510.027 382.151 510.029 380.839V165.91C510.027 164.598 509.509 163.34 508.587 162.412C507.666 161.484 506.416 160.962 505.113 160.961ZM508.624 380.839C508.624 381.776 508.254 382.675 507.595 383.338C506.937 384.001 506.044 384.373 505.113 384.374H114.643C113.712 384.373 112.819 384.001 112.161 383.338C111.503 382.675 111.132 381.776 111.132 380.839V165.91C111.133 164.996 111.486 164.118 112.115 163.459C112.745 162.8 113.603 162.412 114.51 162.375L197.513 197.046L310.777 244.359C312.003 244.861 313.377 244.854 314.598 244.338L424.35 197.152L505.253 162.375C506.159 162.414 507.015 162.804 507.643 163.462C508.271 164.121 508.622 164.997 508.624 165.91V380.839Z" fill="#F7F7F7"/>
<path d="M293.895 97.3509H217.285C215.809 97.3491 214.394 96.8283 213.351 95.903C212.308 94.9776 211.722 93.7234 211.722 92.4157C211.722 91.108 212.308 89.8538 213.351 88.9284C214.394 88.0031 215.809 87.4823 217.285 87.4805H293.895C295.372 87.4823 296.787 88.0031 297.83 88.9284C298.873 89.8538 299.459 91.108 299.459 92.4157C299.459 93.7234 298.873 94.9776 297.83 95.903C296.787 96.8283 295.372 97.3491 293.895 97.3509Z" fill="#982622"/>
<path d="M254.382 74.3207H217.316C215.833 74.3207 214.41 73.743 213.36 72.7146C212.311 71.6862 211.722 70.2914 211.722 68.8371C211.722 67.3828 212.311 65.988 213.36 64.9596C214.41 63.9312 215.833 63.3535 217.316 63.3535H254.382C255.866 63.3535 257.289 63.9312 258.338 64.9596C259.388 65.988 259.977 67.3828 259.977 68.8371C259.977 70.2914 259.388 71.6862 258.338 72.7146C257.289 73.743 255.866 74.3207 254.382 74.3207Z" fill="#982622"/>
<path d="M368.37 154.381H249.194C247.691 154.379 246.249 153.801 245.187 152.772C244.124 151.744 243.527 150.351 243.527 148.898C243.527 147.445 244.124 146.051 245.187 145.023C246.249 143.995 247.691 143.416 249.194 143.414H368.37C369.873 143.416 371.315 143.995 372.377 145.023C373.44 146.051 374.037 147.445 374.037 148.898C374.037 150.351 373.44 151.744 372.377 152.772C371.315 153.801 369.873 154.379 368.37 154.381Z" fill="#CCCCCC"/>
<path d="M368.362 180.703H249.202C247.697 180.703 246.253 180.067 245.189 178.936C244.125 177.805 243.527 176.27 243.527 174.671C243.527 173.071 244.125 171.537 245.189 170.405C246.253 169.274 247.697 168.639 249.202 168.639H368.362C369.867 168.639 371.31 169.274 372.375 170.405C373.439 171.537 374.037 173.071 374.037 174.671C374.037 176.27 373.439 177.805 372.375 178.936C371.31 180.067 369.867 180.703 368.362 180.703Z" fill="#CCCCCC"/>
<path d="M502.901 216.892C532.277 216.892 556.091 192.832 556.091 163.153C556.091 133.474 532.277 109.414 502.901 109.414C473.524 109.414 449.71 133.474 449.71 163.153C449.71 192.832 473.524 216.892 502.901 216.892Z" fill="#982622"/>
<path d="M498.428 186.187L482.611 165.168L491.81 157.775L499.299 167.727L524.599 140.125L533.06 148.409L498.428 186.187Z" fill="white"/>
<path d="M75.2425 80.4122L96.7977 132.607C97.0802 133.295 97.0792 134.067 96.7949 134.753C96.5106 135.44 95.9662 135.985 95.2807 136.27L39.2486 159.41C38.5619 159.692 37.7913 159.69 37.1054 159.404C36.4195 159.118 35.8741 158.572 35.5886 157.885L14.0334 105.69C13.7497 105.002 13.7502 104.23 14.0346 103.543C14.319 102.856 14.8642 102.311 15.5504 102.027L71.5826 78.8867C72.2691 78.6037 73.0402 78.6054 73.7264 78.8914C74.4127 79.1774 74.9579 79.7244 75.2425 80.4122Z" fill="#982622"/>
<path d="M70.929 146.329L63.1221 149.553C62.4575 149.837 61.7064 149.843 61.0335 149.57C60.3607 149.296 59.821 148.766 59.5328 148.096L37.3165 94.3006C37.0475 93.622 37.056 92.8656 37.34 92.1973C37.624 91.5289 38.1604 91.0032 38.8316 90.7353L46.6385 87.5112C47.3031 87.2275 48.0541 87.2215 48.727 87.4947C49.3999 87.7679 49.9396 88.2979 50.2278 88.9685L72.4441 142.764C72.713 143.442 72.7046 144.199 72.4205 144.867C72.1365 145.535 71.6001 146.061 70.929 146.329Z" fill="#F7F7F7"/>
<path d="M35.2678 74.836C40.8347 76.6438 42.8876 85.3003 42.8876 85.3003C42.8876 85.3003 35.9146 91.0257 30.3477 89.2179C24.7808 87.41 22.7279 78.7535 22.7279 78.7535C22.7279 78.7535 29.7008 73.0281 35.2678 74.836Z" fill="#F7F7F7"/>
<path d="M52.8558 79.1496C50.9436 84.7657 42.0177 86.9621 42.0177 86.9621C42.0177 86.9621 36.192 80.0531 38.1042 74.437C40.0163 68.8209 48.9423 66.6245 48.9423 66.6245C48.9423 66.6245 54.768 73.5335 52.8558 79.1496Z" fill="#F7F7F7"/>
<path opacity="0.2" d="M75.2514 80.4337L78.9106 89.2944L17.5935 114.311L14.0423 105.712C13.7563 105.018 13.7545 104.24 14.0372 103.549C14.32 102.858 14.8642 102.311 15.5504 102.027L71.5826 78.8867C72.2691 78.6037 73.0411 78.6076 73.729 78.8977C74.4169 79.1878 74.9645 79.7402 75.2514 80.4337Z" fill="black"/>
<path d="M84.1009 83.1307C83.9925 83.5572 83.7877 83.9509 83.5025 84.2807C83.2173 84.6106 82.8596 84.8676 82.4575 85.0316L13.9188 112.994C13.5772 113.133 13.211 113.202 12.841 113.198C12.471 113.193 12.1044 113.114 11.7623 112.966C11.4202 112.818 11.1091 112.604 10.8469 112.335C10.5847 112.066 10.3765 111.748 10.2342 111.4L7.04683 103.591C6.7594 102.887 6.7577 102.1 7.04209 101.403C7.32649 100.706 7.87369 100.157 8.56331 99.8753L8.5641 99.875L77.1026 71.9128C77.4441 71.7734 77.8103 71.7041 78.1803 71.7088C78.5503 71.7135 78.9168 71.7921 79.259 71.9401C79.6011 72.0881 79.9122 72.3026 80.1744 72.5714C80.4366 72.8402 80.6448 73.158 80.7871 73.5067L83.9745 81.3156C84.211 81.8932 84.2554 82.5309 84.1009 83.1307Z" fill="#982622"/>
<path d="M35.0751 88.4194L40.6895 102.17L53.8289 96.8052L48.2146 83.0546L35.0751 88.4194Z" fill="#F7F7F7"/>
<path d="M593.519 44.077L576.074 97.7851C575.843 98.4922 575.341 99.0791 574.68 99.4173C574.018 99.7555 573.25 99.8174 572.543 99.5897L514.886 80.8617C514.181 80.6308 513.596 80.1293 513.259 79.4668C512.923 78.8044 512.862 78.0349 513.09 77.3268L530.535 23.6187C530.766 22.9109 531.267 22.3233 531.929 21.985C532.591 21.6467 533.36 21.5852 534.066 21.8141L591.723 40.5421C592.429 40.772 593.015 41.2734 593.352 41.9362C593.689 42.5989 593.749 43.3689 593.519 44.077Z" fill="#982622"/>
<path d="M547.485 91.4506L539.452 88.8413C538.762 88.6262 538.186 88.1436 537.851 87.4993C537.516 86.8549 537.449 86.1015 537.665 85.4042L555.645 30.0489C555.88 29.358 556.377 28.7878 557.027 28.4633C557.677 28.1388 558.426 28.0865 559.111 28.3179L567.144 30.9272C567.834 31.1423 568.409 31.6249 568.744 32.2692C569.079 32.9135 569.146 33.667 568.931 34.3643L550.95 89.7196C550.715 90.4105 550.218 90.9807 549.568 91.3052C548.919 91.6297 548.17 91.682 547.485 91.4506Z" fill="#F7F7F7"/>
<path d="M566.71 13.9059C569.775 18.8925 565.723 26.8128 565.723 26.8128C565.723 26.8128 556.702 26.6483 553.638 21.6616C550.573 16.675 554.625 8.75468 554.625 8.75468C554.625 8.75468 563.645 8.91924 566.71 13.9059Z" fill="#F7F7F7"/>
<path d="M577.299 28.5954C572.201 31.6299 563.983 27.5126 563.983 27.5126C563.983 27.5126 564.03 18.4754 569.128 15.4409C574.225 12.4064 582.444 16.5237 582.444 16.5237C582.444 16.5237 582.397 25.5609 577.299 28.5954Z" fill="#F7F7F7"/>
<path opacity="0.2" d="M593.512 44.0991L590.551 53.2168L527.654 32.4893L530.528 23.6409C530.76 22.9272 531.264 22.334 531.927 21.9915C532.59 21.649 533.36 21.5852 534.066 21.8141L591.723 40.5421C592.429 40.772 593.014 41.2757 593.35 41.9426C593.685 42.6096 593.744 43.3852 593.512 44.0991Z" fill="black"/>
<path d="M598.498 51.8901C598.139 52.1444 597.728 52.3112 597.297 52.3773C596.866 52.4434 596.427 52.4071 596.015 52.2711L525.711 29.1019C525.361 28.9865 525.037 28.8017 524.758 28.5582C524.48 28.3146 524.252 28.0171 524.087 27.6825C523.923 27.348 523.825 26.9829 523.8 26.6083C523.775 26.2336 523.822 25.8567 523.94 25.4991L526.579 17.488C526.817 16.7657 527.326 16.1656 527.994 15.8197C528.662 15.4738 529.435 15.4104 530.143 15.6434L530.144 15.6437L600.447 38.8126C600.798 38.9281 601.121 39.1128 601.4 39.3564C601.679 39.5999 601.907 39.8974 602.071 40.232C602.235 40.5666 602.333 40.9316 602.358 41.3062C602.384 41.6809 602.336 42.0578 602.218 42.4155L599.579 50.4265C599.385 51.0196 599.005 51.5338 598.498 51.8901Z" fill="#982622"/>
<path d="M557.753 24.1187L553.109 38.2263L566.589 42.6648L571.234 28.5572L557.753 24.1187Z" fill="#F7F7F7"/>
</svg>
