<svg width="40" height="27" fill="none" xmlns="http://www.w3.org/2000/svg"><path fill-rule="evenodd" clip-rule="evenodd" d="M17.143 24.75c0-.597.3-1.169.837-1.591.535-.422 1.262-.659 2.02-.659h17.143c.758 0 1.484.237 2.02.659.536.422.837.994.837 1.591s-.301 1.169-.837 1.591c-.536.422-1.262.659-2.02.659H20c-.758 0-1.485-.237-2.02-.659-.536-.422-.837-.994-.837-1.591ZM0 2.25C0 1.653.301 1.081.837.659 1.373.237 2.099 0 2.857 0h34.286c.758 0 1.484.237 2.02.659.536.422.837.994.837 1.591s-.301 1.169-.837 1.591c-.536.422-1.262.659-2.02.659H2.857c-.758 0-1.484-.237-2.02-.659C.3 3.419 0 2.847 0 2.25ZM0 13.5c0-.597.301-1.169.837-1.591.536-.422 1.262-.659 2.02-.659h34.286c.758 0 1.484.237 2.02.659.536.422.837.994.837 1.591s-.301 1.169-.837 1.591c-.536.422-1.262.659-2.02.659H2.857c-.758 0-1.484-.237-2.02-.659C.3 14.669 0 14.097 0 13.5Z" fill="#006AB4"/></svg>