<svg width="159" height="147" fill="none" xmlns="http://www.w3.org/2000/svg"><g clip-path="url(#a)"><path d="m90.648.347-5.76 1.486-70.955 18.315-5.76 1.486a10.905 10.905 0 0 0-6.656 5.02 10.923 10.923 0 0 0-1.17 8.26l24.973 96.928a10.911 10.911 0 0 0 5.015 6.663 10.897 10.897 0 0 0 8.252 1.172l.015-.004 82.444-21.28.015-.004a10.91 10.91 0 0 0 7.827-13.279L103.915 8.181a10.916 10.916 0 0 0-5.016-6.663A10.896 10.896 0 0 0 90.648.347Z" fill="#CDCDCD"/><path d="m91.43 3.386-6.82 1.76-68.832 17.767-6.821 1.76a7.766 7.766 0 0 0-4.741 3.575 7.778 7.778 0 0 0-.833 5.881l24.973 96.929a7.771 7.771 0 0 0 3.571 4.745 7.758 7.758 0 0 0 5.877.834l.015-.003 82.444-21.28.015-.004a7.778 7.778 0 0 0 5.574-9.456l-24.974-96.93a7.772 7.772 0 0 0-3.571-4.744 7.76 7.76 0 0 0-5.877-.834Z" fill="#fff"/><path d="M86.28 34.774 44.573 45.54a1.813 1.813 0 0 1-2.209-1.304 1.817 1.817 0 0 1 1.303-2.212l41.707-10.765a1.812 1.812 0 0 1 2.208 1.305 1.817 1.817 0 0 1-1.302 2.211Zm8.773 4.063L46.102 51.472a1.812 1.812 0 0 1-2.21-1.305 1.817 1.817 0 0 1 1.304-2.21L94.147 35.32a1.813 1.813 0 0 1 2.21 1.305 1.817 1.817 0 0 1-1.304 2.211ZM93.13 61.362 51.424 72.127a1.814 1.814 0 0 1-1.544-3.208c.19-.144.407-.248.638-.307l41.707-10.765a1.812 1.812 0 0 1 2.209 1.304 1.817 1.817 0 0 1-1.303 2.211Zm8.774 4.064L52.953 78.061a1.814 1.814 0 0 1-1.544-3.209c.19-.143.407-.247.638-.307l48.951-12.635a1.813 1.813 0 0 1 2.015 2.68 1.812 1.812 0 0 1-1.109.836ZM99.98 87.952 58.275 98.717a1.812 1.812 0 0 1-2.208-1.305 1.817 1.817 0 0 1 1.302-2.21l41.707-10.766a1.814 1.814 0 0 1 2.015 2.68 1.811 1.811 0 0 1-1.11.836Zm8.775 4.063L59.804 104.65a1.812 1.812 0 0 1-2.211-1.304 1.821 1.821 0 0 1 .666-1.905 1.81 1.81 0 0 1 .639-.307l48.951-12.635a1.814 1.814 0 0 1 2.015 2.68 1.812 1.812 0 0 1-1.109.836ZM37.453 56.577l-14.76 3.81a.87.87 0 0 1-1.059-.626l-3.388-13.15a.873.873 0 0 1 .625-1.06l14.76-3.81a.87.87 0 0 1 1.059.626l3.388 13.15a.872.872 0 0 1-.625 1.06Zm6.851 26.589-14.76 3.81a.87.87 0 0 1-1.06-.626L25.098 73.2a.872.872 0 0 1 .625-1.06l14.76-3.81a.87.87 0 0 1 1.059.626l3.388 13.15a.873.873 0 0 1-.625 1.06Zm6.85 26.589-14.76 3.809a.868.868 0 0 1-1.059-.625l-3.388-13.15a.872.872 0 0 1 .625-1.06l14.76-3.81a.87.87 0 0 1 1.06.626l3.387 13.149a.874.874 0 0 1-.625 1.061Z" fill="#CDCDCD"/><path d="M148.169 24.917H62.997a10.9 10.9 0 0 0-7.699 3.197 10.92 10.92 0 0 0-3.193 7.705v100.1a10.918 10.918 0 0 0 3.193 7.705 10.898 10.898 0 0 0 7.699 3.197h85.172a10.897 10.897 0 0 0 7.698-3.197 10.917 10.917 0 0 0 3.194-7.705v-100.1a10.918 10.918 0 0 0-3.194-7.705 10.898 10.898 0 0 0-7.698-3.197Z" fill="#CDCDCD"/><path d="M148.169 28.056H62.997a7.762 7.762 0 0 0-5.482 2.276 7.776 7.776 0 0 0-2.275 5.487v100.1a7.774 7.774 0 0 0 7.757 7.764h85.172a7.772 7.772 0 0 0 7.756-7.764v-100.1a7.775 7.775 0 0 0-2.274-5.487 7.762 7.762 0 0 0-5.482-2.276Z" fill="#fff"/><path d="M135.351 83.06H92.28a1.812 1.812 0 0 1-1.816-1.816 1.818 1.818 0 0 1 1.121-1.678c.22-.09.456-.138.695-.137h43.071a1.814 1.814 0 0 1 1.281 3.098c-.34.34-.801.532-1.281.533Zm7.482 6.128H92.28a1.812 1.812 0 0 1-1.816-1.816 1.818 1.818 0 0 1 1.121-1.678c.22-.09.456-.138.695-.137h50.553a1.817 1.817 0 0 1 1.282 3.1c-.34.34-.801.53-1.282.53Zm-7.482 21.332H92.28a1.82 1.82 0 0 1-1.678-1.121 1.814 1.814 0 0 1 1.678-2.51h43.071a1.813 1.813 0 0 1 1.814 1.815 1.818 1.818 0 0 1-1.814 1.816Zm7.482 6.127H92.28a1.82 1.82 0 0 1-1.678-1.121 1.814 1.814 0 0 1 1.678-2.51h50.553a1.797 1.797 0 0 1 1.284.531c.168.168.302.368.393.589a1.804 1.804 0 0 1 0 1.39 1.82 1.82 0 0 1-.393.59 1.82 1.82 0 0 1-1.284.531Z" fill="#CDCDCD"/><path d="M82.632 91.969H67.389a.87.87 0 0 1-.87-.87V77.517a.872.872 0 0 1 .87-.87h15.243a.87.87 0 0 1 .87.87v13.58a.872.872 0 0 1-.87.87Zm0 27.459H67.389a.87.87 0 0 1-.87-.871v-13.58a.87.87 0 0 1 .87-.871h15.243a.871.871 0 0 1 .87.871v13.58a.87.87 0 0 1-.87.871Z" fill="#006AB4"/><path d="M135.398 52.493h-31.754a1.814 1.814 0 0 1-1.814-1.815 1.817 1.817 0 0 1 1.814-1.816h31.754a1.814 1.814 0 0 1 1.283 3.1c-.34.34-.802.531-1.283.531Zm7.482 6.127h-39.236a1.813 1.813 0 0 1-1.814-1.816 1.82 1.82 0 0 1 1.12-1.677c.22-.091.456-.138.694-.138h39.236a1.814 1.814 0 0 1 1.283 3.1c-.34.34-.802.531-1.283.531Z" fill="#CDCDCD"/><path d="M96.616 66.046H67.341a.87.87 0 0 1-.87-.87v-22.87a.871.871 0 0 1 .87-.87h29.275a.87.87 0 0 1 .87.87v22.868a.872.872 0 0 1-.87.87Z" fill="#006AB6"/></g><defs><clipPath id="a"><path fill="#fff" d="M0 0h159v147H0z"/></clipPath></defs></svg>