<svg width="159" height="147" fill="none" xmlns="http://www.w3.org/2000/svg"><g clip-path="url(#a)"><path d="M158.051 26.902a.936.936 0 0 0 .671-.281.971.971 0 0 0 .278-.68V15.693a.95.95 0 0 0-.818-.953.929.929 0 0 0-.447.05V3.204a3.237 3.237 0 0 0-.926-2.265A3.13 3.13 0 0 0 154.573 0H51.163a3.128 3.128 0 0 0-2.237.938A3.238 3.238 0 0 0 48 3.203v140.594c0 .85.333 1.664.926 2.265a3.141 3.141 0 0 0 2.236.938h103.411c.838 0 1.643-.337 2.236-.938a3.224 3.224 0 0 0 .926-2.265V41.255a.928.928 0 0 0 .866-.115.961.961 0 0 0 .399-.787V30.105a.961.961 0 0 0-.399-.788.93.93 0 0 0-.866-.114v-2.36a.926.926 0 0 0 .316.059Z" fill="#CDCDCD"/><path d="M148.808 6a3.17 3.17 0 0 1 2.257.941A3.216 3.216 0 0 1 152 9.214v128.572c0 .852-.336 1.67-.935 2.273a3.185 3.185 0 0 1-2.257.941H57.192a3.184 3.184 0 0 1-2.257-.941 3.227 3.227 0 0 1-.935-2.273V9.214c0-.852.336-1.67.935-2.273A3.181 3.181 0 0 1 57.192 6h91.616ZM103 5c.552 0 1-.672 1-1.5s-.448-1.5-1-1.5-1 .672-1 1.5.448 1.5 1 1.5Z" fill="#fff"/><path d="M140 24H62v7h78v-7Z" fill="#006AB6"/><path d="M140 42H62v3h78v-3Zm0 8H62v4h78v-4Zm-37 10H62v3h41v-3Zm37 9H62v3h78v-3Zm0 10H62v2h78v-2Zm-38 8H62v4h40v-4Zm38 10H62v3h78v-3Zm0 9H62v3h78v-3Z" fill="#CDCDCD"/><path d="M140 118h-24v8h24v-8Z" fill="#006AB6"/><path d="M62 52.373h-.56V33.798c0-2.864-1.143-5.61-3.177-7.636A10.871 10.871 0 0 0 50.593 23H10.846c-1.424 0-2.834.28-4.15.822a10.85 10.85 0 0 0-3.52 2.34 10.795 10.795 0 0 0-2.35 3.504A10.755 10.755 0 0 0 0 33.797v102.405a10.76 10.76 0 0 0 3.177 7.635 10.882 10.882 0 0 0 7.67 3.163h39.746c2.877 0 5.636-1.138 7.67-3.163a10.77 10.77 0 0 0 3.177-7.634v-70.63H62v-13.2Z" fill="#CDCDCD"/><path d="M59 32.377v104.439c0 2.17-.868 4.252-2.414 5.787A8.27 8.27 0 0 1 50.76 145H10.24a8.27 8.27 0 0 1-5.827-2.397A8.157 8.157 0 0 1 2 136.816V32.376a7.35 7.35 0 0 1 2.176-5.215A7.455 7.455 0 0 1 9.428 25h5.72a3.967 3.967 0 0 0 .176 3.342c.33.565.797 1.039 1.359 1.378.562.339 1.2.532 1.857.563h23.573a3.95 3.95 0 0 0 1.857-.563 3.917 3.917 0 0 0 1.358-1.378A3.972 3.972 0 0 0 45.505 25h6.068c1.97 0 3.86.777 5.252 2.16A7.35 7.35 0 0 1 59 32.378Z" fill="#fff"/><path d="M53 55H8v5h45v-5Z" fill="#006AB6"/><path d="M53 65H8v2h45v-2Zm0 6H8v1h45v-1Zm-21 4H8v1h24v-1Zm21 5H8v2h45v-2Zm0 6H8v1h45v-1Zm-22 5H8v1h23v-1Zm22 5H8v1h45v-1Zm0 4H8v3h45v-3Z" fill="#CDCDCD"/><path d="M53 108H38v3h15v-3Z" fill="#006AB6"/></g><defs><clipPath id="a"><path fill="#fff" d="M0 0h159v147H0z"/></clipPath></defs></svg>