<svg width="82" height="151" fill="none" xmlns="http://www.w3.org/2000/svg"><g clip-path="url(#a)"><rect width="82" height="151" rx="10" fill="#fff"/><path d="M75.425 151H6.575C2.949 151 0 148.024 0 144.367V6.633C0 2.976 2.95 0 6.575 0h68.85C79.051 0 82 2.976 82 6.633v137.734c0 3.657-2.95 6.633-6.575 6.633ZM6.575.673C3.312.673.667 3.34.667 6.633v137.734c0 3.292 2.645 5.96 5.908 5.96h68.85c3.263 0 5.908-2.668 5.908-5.96V50.683c0-27.62-22.192-50.01-49.568-50.01H6.575Z" fill="#CDCDCD"/><path d="M19.58 67.973c4.415 0 7.994-3.614 7.994-8.071 0-4.458-3.579-8.072-7.993-8.072-4.415 0-7.994 3.614-7.994 8.072 0 4.457 3.579 8.07 7.994 8.07Zm42.855 0c4.414 0 7.993-3.614 7.993-8.071 0-4.458-3.579-8.072-7.993-8.072-4.415 0-7.994 3.614-7.994 8.072 0 4.457 3.579 8.07 7.994 8.07Zm-21.427 0c4.415 0 7.994-3.614 7.994-8.071 0-4.458-3.579-8.072-7.994-8.072-4.414 0-7.993 3.614-7.993 8.072 0 4.457 3.579 8.07 7.993 8.07ZM41 91.136c4.43 0 8.022-3.6 8.022-8.041 0-4.442-3.592-8.042-8.022-8.042s-8.022 3.6-8.022 8.042c0 4.44 3.592 8.041 8.022 8.041Z" fill="#CDCDCD"/><path d="M41 91.136c4.43 0 8.022-3.6 8.022-8.041 0-4.442-3.592-8.042-8.022-8.042s-8.022 3.6-8.022 8.042c0 4.44 3.592 8.041 8.022 8.041Z" fill="#CDCDCD"/><path d="M41 91.136c4.43 0 8.022-3.6 8.022-8.041 0-4.442-3.592-8.042-8.022-8.042s-8.022 3.6-8.022 8.042c0 4.44 3.592 8.041 8.022 8.041Zm0 23.231c4.43 0 8.022-3.6 8.022-8.042 0-4.441-3.592-8.041-8.022-8.041s-8.022 3.6-8.022 8.041c0 4.442 3.592 8.042 8.022 8.042Zm0 23.231c4.43 0 8.022-3.601 8.022-8.042s-3.592-8.041-8.022-8.041-8.022 3.6-8.022 8.041c0 4.441 3.592 8.042 8.022 8.042Z" fill="#CDCDCD"/><path d="M41 137.598c10.337 0 18.717-3.601 18.717-8.042s-8.38-8.041-18.717-8.041c-10.337 0-18.717 3.6-18.717 8.041 0 4.441 8.38 8.042 18.717 8.042Zm0-23.231c4.43 0 8.022-3.6 8.022-8.042 0-4.441-3.592-8.041-8.022-8.041s-8.022 3.6-8.022 8.041c0 4.442 3.592 8.042 8.022 8.042Z" fill="#CDCDCD"/><path d="M41 114.367c4.43 0 8.022-3.6 8.022-8.042 0-4.441-3.592-8.041-8.022-8.041s-8.022 3.6-8.022 8.041c0 4.442 3.592 8.042 8.022 8.042Z" fill="#006AB4"/><path d="M65.948 18.763H16.052c-1.48 0-2.682 1.225-2.682 2.732v18.662c0 1.506 1.203 2.73 2.682 2.73h49.896c1.48 0 2.682-1.224 2.682-2.73V21.495c0-1.507-1.203-2.732-2.682-2.732Zm2.4 21.393c0 1.349-1.076 2.444-2.4 2.444H16.052c-1.324 0-2.4-1.095-2.4-2.444V21.495c0-1.349 1.076-2.444 2.4-2.444h49.896c1.324 0 2.4 1.095 2.4 2.444v18.662Z" fill="#0B0B0B"/><path d="M63.405 29.485h-44.81c-.425 0-.769.4-.769.894 0 .493.344.893.769.893h44.81c.425 0 .769-.4.769-.893 0-.494-.344-.894-.769-.894Z" fill="#006AB4"/></g><rect x="1.5" y="1.5" width="79" height="148" rx="8.5" stroke="#CDCDCD" stroke-width="3"/><defs><clipPath id="a"><rect width="82" height="151" rx="10" fill="#fff"/></clipPath></defs></svg>