<svg width="128" height="147" fill="none" xmlns="http://www.w3.org/2000/svg"><g clip-path="url(#a)"><path d="M120.47 63.152H6.704A6.712 6.712 0 0 0 0 69.855v70.818a6.712 6.712 0 0 0 6.704 6.703h113.765a6.711 6.711 0 0 0 6.705-6.703V69.855a6.71 6.71 0 0 0-6.704-6.703Z" fill="#DBDBDB"/><path d="M120.47 63.152H6.704A6.712 6.712 0 0 0 0 69.855v70.818a6.712 6.712 0 0 0 6.704 6.703h113.765a6.711 6.711 0 0 0 6.705-6.703V69.855a6.71 6.71 0 0 0-6.704-6.703Zm2.2 50.87a27.561 27.561 0 0 1-7.945 19.253 27.563 27.563 0 0 1-19.151 8.194c-11.544.15 6.387.209-7.535.209-31.836 0-65.032-.304-77.418-.501a6.248 6.248 0 0 1-6.117-6.22V69.86a2.207 2.207 0 0 1 2.2-2.204h113.761a2.208 2.208 0 0 1 2.205 2.198v44.168Z" fill="#CDCDCD"/><path d="M106.464 22.373H19.787a3.726 3.726 0 0 0-3.502 2.469L2.898 62.392a3.717 3.717 0 0 0 3.497 4.966l116.249.206h.005a3.718 3.718 0 0 0 3.417-5.181l-16.185-37.758a3.709 3.709 0 0 0-3.417-2.252Z" fill="#CDCDCD"/><path d="M126.368 63.199a3.72 3.72 0 0 1-.301 1.464l-16.183 29.065a3.736 3.736 0 0 1-3.418 2.25H19.79a3.73 3.73 0 0 1-3.505-2.468L2.9 64.653a3.715 3.715 0 0 1 2.254-4.748 3.658 3.658 0 0 1 1.24-.217l14.2-.027 5.796-.01 76.265-.134 5.8-.01 14.19-.026h.003a3.722 3.722 0 0 1 3.719 3.718Z" fill="#CDCDCD"/><path d="M101.066-.471H27.981a7.397 7.397 0 0 0-7.388 7.386v89.063h85.87a3.672 3.672 0 0 0 1.99-.579V6.915a7.393 7.393 0 0 0-7.387-7.386Z" fill="#E6E6E6"/><path d="M73.171 5.517H33.119a6.736 6.736 0 0 0-6.73 6.724v83.736h76.266V34.996a29.51 29.51 0 0 0-8.646-20.835 29.52 29.52 0 0 0-20.838-8.644Z" fill="#fff"/><path d="M89.663 88.541h-50.28a1.639 1.639 0 0 0 0 3.277h50.28a1.639 1.639 0 1 0 0-3.277Zm0-6.48h-50.28a1.64 1.64 0 1 0 0 3.28h50.28a1.64 1.64 0 1 0 0-3.28ZM61.18 75.584H39.383a1.639 1.639 0 0 0 0 3.276h21.795a1.639 1.639 0 1 0 0-3.276Zm28.483-13.569h-50.28a1.64 1.64 0 0 0 0 3.28h50.28a1.64 1.64 0 1 0 0-3.28Zm0-6.477h-50.28a1.639 1.639 0 0 0 0 3.277h50.28a1.639 1.639 0 1 0 0-3.277Zm-28.484-6.48H39.383a1.64 1.64 0 1 0 0 3.28H61.18a1.641 1.641 0 0 0 0-3.28Z" fill="#E4E4E4"/><path d="M89.663 35.489h-50.28a1.64 1.64 0 1 0 0 3.28h50.28a1.64 1.64 0 1 0 0-3.28Zm0-6.478h-50.28a1.64 1.64 0 1 0 0 3.28h50.28a1.64 1.64 0 1 0 0-3.28Zm-28.484-6.48H39.383a1.64 1.64 0 1 0 0 3.28H61.18a1.64 1.64 0 1 0 0-3.28Z" fill="#006AB6"/></g><defs><clipPath id="a"><path fill="#fff" d="M0 0h128v147H0z"/></clipPath></defs></svg>