<svg width="210" height="122" fill="none" xmlns="http://www.w3.org/2000/svg"><g clip-path="url(#a)"><path d="M158.03 120.705H6.302a6.325 6.325 0 0 1-4.454-1.836A6.25 6.25 0 0 1 0 114.443V6.263a6.25 6.25 0 0 1 1.848-4.427A6.329 6.329 0 0 1 6.302 0H158.03a6.33 6.33 0 0 1 4.454 1.836 6.253 6.253 0 0 1 1.848 4.427v108.18a6.252 6.252 0 0 1-1.848 4.426 6.326 6.326 0 0 1-4.454 1.836ZM6.302 3.296a3 3 0 0 0-2.11.87 2.96 2.96 0 0 0-.875 2.097v108.18c0 .786.315 1.54.875 2.096.56.557 1.318.869 2.11.87H158.03a2.997 2.997 0 0 0 2.11-.87c.559-.556.874-1.31.875-2.096V6.263a2.963 2.963 0 0 0-.875-2.097 3 3 0 0 0-2.11-.87H6.302Z" fill="#CDCDCD"/><path d="M158.029 119.223H6.301a4.828 4.828 0 0 1-3.399-1.401 4.77 4.77 0 0 1-1.41-3.378V6.264a4.77 4.77 0 0 1 1.41-3.378 4.83 4.83 0 0 1 3.4-1.402h151.727a4.829 4.829 0 0 1 3.399 1.402 4.771 4.771 0 0 1 1.411 3.378v108.18a4.772 4.772 0 0 1-1.411 3.378 4.827 4.827 0 0 1-3.399 1.401Z" fill="#fff"/><path d="M202.103 121.817h-66.197a8.278 8.278 0 0 1-5.823-2.401 8.172 8.172 0 0 1-2.416-5.787V68.572a8.172 8.172 0 0 1 2.416-5.787 8.276 8.276 0 0 1 5.823-2.401h66.197a8.276 8.276 0 0 1 5.823 2.4 8.172 8.172 0 0 1 2.416 5.788v45.057a8.172 8.172 0 0 1-2.416 5.787 8.278 8.278 0 0 1-5.823 2.401Zm-66.197-57.124a3.917 3.917 0 0 0-2.758 1.138 3.873 3.873 0 0 0-1.145 2.74v45.058a3.873 3.873 0 0 0 1.145 2.741 3.922 3.922 0 0 0 2.758 1.138h66.197a3.922 3.922 0 0 0 2.758-1.138 3.873 3.873 0 0 0 1.145-2.741V68.572a3.873 3.873 0 0 0-1.145-2.742 3.917 3.917 0 0 0-2.758-1.137h-66.197Z" fill="#CDCDCD"/><path d="M202.102 62.322h-66.196a6.316 6.316 0 0 0-4.444 1.834 6.239 6.239 0 0 0-1.845 4.417v45.057a6.235 6.235 0 0 0 1.845 4.416 6.312 6.312 0 0 0 4.444 1.831h66.196a6.315 6.315 0 0 0 4.445-1.831 6.239 6.239 0 0 0 1.845-4.416V68.573a6.243 6.243 0 0 0-1.845-4.417 6.317 6.317 0 0 0-4.445-1.834Z" fill="#fff"/><path d="M175.798 87.446c.293-1.815-.535-3.15-2.731-3.905-2.185-1.884-5.413-2.335-7.351.681a3.052 3.052 0 0 0-2.149.714 3.012 3.012 0 0 0-1.056 1.993c-1.78 2.056.196 9.602.782 12.477l3.124-.03 6.237-.061 3.144-.031 1.198-6.742c.728-1.96.432-3.68-1.198-5.096Zm10.344 27.384a15.08 15.08 0 0 1 2.581-1.31l-8.884-10.482-5.871-1.493a6.667 6.667 0 0 1-.143-.083l-9.904.377-.042-.042-6.245 3.036-8.884 10.207a15.03 15.03 0 0 1 2.516 1.264l-.917 3.464h6.356l1.692-2.442h.084c0-.042.004-.084.004-.126l1.187-1.716a50.667 50.667 0 0 1-.108 4.284h19.771a143.29 143.29 0 0 1-.039-3.64l2.212 3.189c.165-.241.342-.467.52-.697l.435 1.148h5.062l-1.213-4.586a1.073 1.073 0 0 0-.17-.352ZM67.43 60.309a15.134 15.134 0 0 0 4.406 9.26 15.194 15.194 0 0 0 19.247 1.766 15.147 15.147 0 0 0 6.023-8.303c.492-.51 5.937-6.32 3.966-10.94a23.884 23.884 0 0 1-1.605-7.849c-.115-1.74-1.268-3.52-4.93-4.45 0 0-6.285-8.023-14.826-3.816 0 0-4.14-.711-7.211 3.577 0 0-3.044-1.792-4.329 1.385 0 0-3.57 6.48-2.255 13.088a56.698 56.698 0 0 0 1.515 6.282Zm55.976 50.722c-2.584-11.578-5.818-15.439-5.818-15.439l-1.232-.886-1.916-1.373-.135-.1-.022.022-12.912-6.135-8.804-8.127a5.034 5.034 0 0 0-3.372-1.33l-14.217-.106a5.026 5.026 0 0 0-4.008 1.948l-4.5 5.817-17.391 5.399-2.083 1.145s-5.818 7.721-5.818 14.796c0 1.604-.367 6.348-.928 12.724h84a56.58 56.58 0 0 0-.844-8.355Z" fill="#006AB4"/></g><defs><clipPath id="a"><path fill="#fff" d="M0 0h210v122H0z"/></clipPath></defs></svg>