<svg width="219" height="131" fill="none" xmlns="http://www.w3.org/2000/svg"><g clip-path="url(#a)"><path d="M219 102.227a3.294 3.294 0 0 1-.963 2.344 3.34 3.34 0 0 1-2.349.982H69.951a3.35 3.35 0 0 1-2.35-.981 3.312 3.312 0 0 1-.962-2.345V3.325a3.297 3.297 0 0 1 .963-2.344A3.34 3.34 0 0 1 69.95 0h145.737a3.345 3.345 0 0 1 2.349.981A3.296 3.296 0 0 1 219 3.325v98.902Z" fill="#CDCDCD"/><path d="M217.281 100.608c0 .852-.341 1.67-.948 2.273a3.248 3.248 0 0 1-2.289.942H71.694a3.248 3.248 0 0 1-2.288-.942 3.205 3.205 0 0 1-.948-2.273V4.99c0-.852.34-1.67.948-2.273a3.247 3.247 0 0 1 2.288-.942h142.357a3.246 3.246 0 0 1 2.284.944c.606.603.946 1.42.946 2.271v95.618Z" fill="#fff"/><path d="M76.066 5.926h133.759c.509 0 .998.201 1.358.56.36.357.563.843.563 1.349v89.557c0 .507-.203.992-.563 1.35-.36.358-.849.559-1.358.559H76.065c-.509 0-.997-.201-1.358-.56a1.902 1.902 0 0 1-.562-1.349V7.835c0-.506.202-.992.562-1.35.36-.358.85-.559 1.359-.559Z" fill="#CDCDCD"/><path d="M77.759 8.074h130.227c.51 0 .998.201 1.358.56a1.9 1.9 0 0 1 .563 1.349V94.76a1.9 1.9 0 0 1-.563 1.35c-.36.358-.848.559-1.358.559H77.759c-.51 0-.998-.201-1.359-.56a1.903 1.903 0 0 1-.562-1.349V9.983c0-.506.202-.992.562-1.35.36-.358.85-.559 1.359-.559Z" fill="#fff"/><path d="M169.708 66.968a3.679 3.679 0 0 1-1.487-.315 1.79 1.79 0 0 1-.31-.175l-9.465-6.619a3.64 3.64 0 0 1-1.554-2.974V47.86a3.622 3.622 0 0 1 1.554-2.974l9.465-6.62a1.79 1.79 0 0 1 .31-.174 3.68 3.68 0 0 1 3.482.273 3.643 3.643 0 0 1 1.667 3.05V63.33c0 .965-.386 1.89-1.073 2.572a3.673 3.673 0 0 1-2.589 1.066v.001Z" fill="#3F3D56"/><path d="M148.527 68.743H122.13c-5.385-.004-9.749-3.463-9.755-7.73V43.731c.006-4.268 4.37-7.726 9.755-7.73h26.466c5.347.004 9.68 3.438 9.686 7.675v17.335c-.005 4.268-4.37 7.727-9.755 7.73Z" fill="#3F3D56"/><path d="M195.548 91.218c4.336 0 7.851-3.492 7.851-7.8 0-4.307-3.515-7.8-7.851-7.8s-7.85 3.493-7.85 7.8c0 4.308 3.514 7.8 7.85 7.8Z" fill="#CDCDCD"/><path d="m199.626 83.279-6.258-3.59a.164.164 0 0 0-.162 0 .158.158 0 0 0-.082.14v7.18a.164.164 0 0 0 .082.139.16.16 0 0 0 .162 0l6.258-3.59a.157.157 0 0 0 .059-.059.154.154 0 0 0 .022-.08.154.154 0 0 0-.022-.081.156.156 0 0 0-.059-.06l-6.258-3.589a.164.164 0 0 0-.162 0 .158.158 0 0 0-.082.14v7.18a.164.164 0 0 0 .082.139.16.16 0 0 0 .162 0l6.258-3.59a.157.157 0 0 0 .059-.059.154.154 0 0 0 .022-.08.154.154 0 0 0-.022-.081.156.156 0 0 0-.059-.06Z" fill="#fff"/><path d="M185.355 114.088a3.298 3.298 0 0 1-.963 2.345 3.344 3.344 0 0 1-2.349.981H36.306a3.35 3.35 0 0 1-2.35-.981 3.31 3.31 0 0 1-.962-2.345V15.187a3.297 3.297 0 0 1 .963-2.345 3.34 3.34 0 0 1 2.349-.98h145.737a3.351 3.351 0 0 1 2.349.98 3.296 3.296 0 0 1 .963 2.344v98.902Z" fill="#CDCDCD"/><path d="M183.636 112.469c0 .853-.341 1.67-.948 2.273a3.247 3.247 0 0 1-2.288.942H38.05a3.248 3.248 0 0 1-2.29-.942 3.203 3.203 0 0 1-.947-2.273V16.851c0-.852.34-1.67.948-2.273a3.247 3.247 0 0 1 2.288-.942h142.357a3.246 3.246 0 0 1 2.284.944c.606.603.946 1.42.946 2.271v95.618Z" fill="#fff"/><path d="M42.42 17.787h133.76c.509 0 .998.201 1.358.56.36.357.563.843.563 1.349v89.557c0 .507-.203.992-.563 1.35-.36.358-.849.559-1.358.559H42.42c-.509 0-.997-.201-1.358-.559a1.902 1.902 0 0 1-.562-1.35V19.696c0-.506.202-.992.562-1.35.36-.358.85-.559 1.359-.559Z" fill="#CDCDCD"/><path d="M44.114 19.935H174.34c.51 0 .998.201 1.359.56a1.9 1.9 0 0 1 .562 1.349v84.778c0 .507-.202.992-.562 1.35a1.929 1.929 0 0 1-1.359.559H44.114c-.51 0-.998-.201-1.358-.559a1.902 1.902 0 0 1-.563-1.35V21.844c0-.506.202-.992.563-1.35.36-.358.848-.559 1.358-.559Z" fill="#fff"/><path d="M136.063 78.83a3.68 3.68 0 0 1-1.487-.316 1.79 1.79 0 0 1-.31-.175l-9.465-6.619a3.623 3.623 0 0 1-1.554-2.974V59.72a3.623 3.623 0 0 1 1.554-2.974l9.465-6.62c.097-.068.201-.126.31-.174a3.68 3.68 0 0 1 3.482.273 3.62 3.62 0 0 1 1.667 3.05V75.19c0 .965-.386 1.89-1.072 2.572a3.676 3.676 0 0 1-2.59 1.066v.001Z" fill="#3F3D56"/><path d="M114.882 80.604H88.485c-5.385-.004-9.75-3.463-9.755-7.73V55.592c.006-4.268 4.37-7.726 9.755-7.73h26.466c5.347.004 9.68 3.438 9.686 7.675v17.335c-.005 4.268-4.37 7.727-9.755 7.73Z" fill="#3F3D56"/><path d="M161.903 103.079c4.336 0 7.851-3.492 7.851-7.8 0-4.307-3.515-7.799-7.851-7.799-4.335 0-7.85 3.492-7.85 7.8 0 4.307 3.515 7.799 7.85 7.799Z" fill="#CDCDCD"/><path d="m165.981 95.14-6.258-3.59a.164.164 0 0 0-.222.06.163.163 0 0 0-.022.08v7.179a.163.163 0 0 0 .082.14.164.164 0 0 0 .162 0l6.258-3.59a.156.156 0 0 0 .059-.059.154.154 0 0 0 .022-.08.154.154 0 0 0-.022-.081.156.156 0 0 0-.059-.06l-6.258-3.589a.164.164 0 0 0-.222.06.163.163 0 0 0-.022.08v7.179a.163.163 0 0 0 .082.14.164.164 0 0 0 .162 0l6.258-3.59a.156.156 0 0 0 .059-.059.154.154 0 0 0 .022-.08.154.154 0 0 0-.022-.081.156.156 0 0 0-.059-.06Z" fill="#fff"/><path d="M152.361 127.674a3.293 3.293 0 0 1-.963 2.345 3.344 3.344 0 0 1-2.349.981H3.312a3.35 3.35 0 0 1-2.349-.981A3.311 3.311 0 0 1 0 127.675V28.773a3.297 3.297 0 0 1 .963-2.345 3.34 3.34 0 0 1 2.35-.98h145.736a3.347 3.347 0 0 1 2.349.98 3.28 3.28 0 0 1 .963 2.344v98.902Z" fill="#CDCDCD"/><path d="M150.642 126.055c0 .853-.341 1.671-.948 2.274a3.246 3.246 0 0 1-2.288.941H5.056a3.246 3.246 0 0 1-2.289-.941 3.205 3.205 0 0 1-.948-2.274V30.438c0-.853.341-1.671.948-2.274a3.247 3.247 0 0 1 2.288-.942h142.357a3.248 3.248 0 0 1 2.285.944c.605.603.945 1.42.945 2.272v95.617Z" fill="#fff"/><path d="M9.427 31.373h133.759c.51 0 .998.202 1.358.56a1.9 1.9 0 0 1 .563 1.35v89.557c0 .506-.202.991-.563 1.349-.36.358-.848.559-1.358.559H9.427c-.51 0-.998-.201-1.358-.559a1.901 1.901 0 0 1-.563-1.349V33.282c0-.506.202-.991.563-1.35a1.93 1.93 0 0 1 1.358-.558Z" fill="#CDCDCD"/><path d="M11.12 33.522h130.228a1.93 1.93 0 0 1 1.358.559 1.903 1.903 0 0 1 .563 1.349v84.779a1.892 1.892 0 0 1-.563 1.349 1.923 1.923 0 0 1-1.358.559H11.12c-.51 0-.998-.201-1.358-.559a1.901 1.901 0 0 1-.563-1.349V35.43c0-.506.203-.992.563-1.35a1.93 1.93 0 0 1 1.358-.558Z" fill="#fff"/><path d="M103.07 92.415a3.68 3.68 0 0 1-1.488-.314 1.79 1.79 0 0 1-.31-.175l-9.464-6.62a3.645 3.645 0 0 1-1.143-1.298 3.618 3.618 0 0 1-.411-1.675v-9.027a3.62 3.62 0 0 1 1.554-2.974l9.464-6.619a1.79 1.79 0 0 1 .31-.175 3.682 3.682 0 0 1 3.483.274c.511.33.932.782 1.223 1.315a3.62 3.62 0 0 1 .443 1.735v21.914c0 .965-.385 1.89-1.072 2.573a3.674 3.674 0 0 1-2.589 1.065v.001Z" fill="#006AB6"/><path d="M81.888 94.19H55.492c-5.386-.004-9.75-3.463-9.755-7.73V69.18c.005-4.269 4.37-7.727 9.755-7.732h26.465c5.347.005 9.68 3.44 9.687 7.677v17.334c-.006 4.268-4.37 7.727-9.756 7.731Z" fill="#006AB6"/><path d="M128.91 116.666c4.335 0 7.85-3.493 7.85-7.8 0-4.308-3.515-7.8-7.85-7.8-4.336 0-7.851 3.492-7.851 7.8 0 4.307 3.515 7.8 7.851 7.8Z" fill="#006AB4"/><path d="m132.987 108.726-6.258-3.589a.152.152 0 0 0-.081-.022.157.157 0 0 0-.081.022.152.152 0 0 0-.059.059.15.15 0 0 0-.022.08v7.179c0 .029.007.057.022.081a.152.152 0 0 0 .059.059.161.161 0 0 0 .162 0l6.258-3.589a.17.17 0 0 0 .06-.059.167.167 0 0 0 .022-.081.167.167 0 0 0-.022-.081.17.17 0 0 0-.06-.059l-6.258-3.589a.152.152 0 0 0-.081-.022.157.157 0 0 0-.081.022.152.152 0 0 0-.059.059.15.15 0 0 0-.022.08v7.179c0 .029.007.057.022.081a.152.152 0 0 0 .059.059.161.161 0 0 0 .162 0l6.258-3.589a.17.17 0 0 0 .06-.059.167.167 0 0 0 .022-.081.167.167 0 0 0-.022-.081.17.17 0 0 0-.06-.059Z" fill="#fff"/></g><defs><clipPath id="a"><path fill="#fff" d="M0 0h219v131H0z"/></clipPath></defs></svg>