<svg width="18" height="18" fill="none" xmlns="http://www.w3.org/2000/svg"><path d="M17.716 13.598a6.498 6.498 0 0 0-2.571-2.66c-.433-.25-.842-.373-1.25-.373-.16 0-.318.02-.475.057-.518.126-1.016.368-1.522.742a.955.955 0 0 1-.58.177 1.36 1.36 0 0 1-.776-.246A18.526 18.526 0 0 1 6.706 7.46c-.216-.291-.388-.924-.068-1.357.373-.506.616-1.004.741-1.523.135-.56.032-1.123-.315-1.723A6.5 6.5 0 0 0 4.404.285 2.375 2.375 0 0 0 3.3 0c-.618 0-1.195.268-1.67.775-.438.465-.824.958-1.27 1.554-.408.546-.375 1.177-.345 1.733v.012c.051.705.315 1.54.806 2.55.832 1.712 2.014 3.337 3.613 4.968a261.42 261.42 0 0 0 1.974 1.974c1.632 1.599 3.256 2.78 4.967 3.613 1.012.492 1.846.755 2.552.805l.011.001c.146.008.3.015.452.015.372 0 .855-.04 1.281-.36.597-.446 1.09-.832 1.554-1.269.814-.764.998-1.8.49-2.773Z" fill="#006AB4"/></svg>