<svg width="25" height="25" viewBox="0 0 25 25" fill="none" xmlns="http://www.w3.org/2000/svg">
<path d="M24.7798 10.2476C24.9297 11.0835 25 11.9378 25 12.7875C25 16.5904 23.6131 19.8054 21.2 21.9825H21.2047C19.0915 23.8931 16.1911 25 12.7519 25C7.93038 25 3.52123 22.3361 1.35648 18.1152C-0.452158 14.5833 -0.452162 10.4221 1.35648 6.89019C3.52122 2.66472 7.93038 0.000842332 12.7519 0.000842332C15.9193 -0.0359009 18.979 1.1307 21.2843 3.25262L17.6436 6.8213C16.327 5.5904 14.5699 4.91984 12.7519 4.9474C9.42508 4.9474 6.59966 7.1474 5.59226 10.1098C5.0581 11.6622 5.0581 13.3432 5.59226 14.8956H5.59695C6.60904 17.8534 9.42977 20.0534 12.7565 20.0534C14.4762 20.0534 15.9521 19.6217 17.0954 18.8593H17.0907C18.4355 17.9866 19.3539 16.6134 19.6397 15.061H12.7519V10.2476H24.7798Z" fill="#E31F26"/>
</svg>
