<svg width="25" height="25" viewBox="0 0 25 25" fill="none" xmlns="http://www.w3.org/2000/svg">
<path d="M25 12.5C25 19.4036 19.4036 25 12.5 25C5.59644 25 0 19.4036 0 12.5C0 5.59644 5.59644 0 12.5 0C19.4036 0 25 5.59644 25 12.5ZM12.948 9.22811C11.7322 9.7338 9.30229 10.7805 5.65829 12.3681C5.06656 12.6034 4.75658 12.8336 4.72836 13.0587C4.68067 13.4391 5.15706 13.5889 5.80577 13.7929C5.89401 13.8206 5.98543 13.8494 6.07916 13.8798C6.71739 14.0873 7.57592 14.33 8.02224 14.3397C8.42709 14.3484 8.87895 14.1815 9.37781 13.8389C12.7825 11.5407 14.54 10.379 14.6504 10.354C14.7282 10.3363 14.8361 10.3141 14.9092 10.3791C14.9823 10.444 14.9751 10.5671 14.9674 10.6001C14.9202 10.8012 13.0502 12.5397 12.0825 13.4394C11.7808 13.7199 11.5668 13.9188 11.5231 13.9642C11.4251 14.066 11.3252 14.1623 11.2292 14.2548C10.6363 14.8264 10.1916 15.2551 11.2538 15.955C11.7643 16.2914 12.1727 16.5696 12.5802 16.8471C13.0252 17.1501 13.4691 17.4524 14.0434 17.8289C14.1897 17.9248 14.3295 18.0244 14.4656 18.1214C14.9835 18.4906 15.4488 18.8223 16.0236 18.7694C16.3576 18.7387 16.7026 18.4246 16.8778 17.4879C17.292 15.2741 18.1059 10.4776 18.294 8.50107C18.3105 8.3279 18.2898 8.10628 18.2731 8.00899C18.2565 7.91171 18.2217 7.77309 18.0952 7.67048C17.9455 7.54896 17.7143 7.52333 17.6109 7.52515C17.1407 7.53343 16.4194 7.78425 12.948 9.22811Z" fill="#006AB4"/>
</svg>
