<svg width="25" height="25" viewBox="0 0 25 25" fill="none" xmlns="http://www.w3.org/2000/svg">
<path d="M12.5 1C6.159 1 1 6.159 1 12.5C1 18.841 6.159 24 12.5 24C18.8415 24 24 18.841 24 12.5C24 6.159 18.8415 1 12.5 1ZM17.4865 14.7675C18.605 15.7605 18.8375 16.115 18.8755 16.1755C19.339 16.9105 18.3615 17 18.3615 17H16.3015C16.3015 17 15.8 17.0055 15.3715 16.7215C14.673 16.264 13.9415 15.377 13.4275 15.531C12.996 15.66 13 16.243 13 16.7415C13 16.92 12.8465 17 12.5 17C12.1535 17 12.0095 17 11.856 17C10.7275 17 9.503 16.62 8.2815 15.3435C6.5535 13.539 5.038 9.904 5.038 9.904C5.038 9.904 4.9485 9.721 5.046 9.6095C5.1565 9.4845 5.457 9.5005 5.457 9.5005L7.4545 9.5C7.4545 9.5 7.6425 9.5355 7.7775 9.6305C7.889 9.7085 7.951 9.8575 7.951 9.8575C7.951 9.8575 8.2865 10.9655 8.714 11.672C9.549 13.051 9.9375 13.086 10.221 12.9375C10.635 12.7225 10.5 11.2565 10.5 11.2565C10.5 11.2565 10.5185 10.627 10.3025 10.3465C10.136 10.1295 9.8175 10.014 9.6785 9.996C9.566 9.9815 9.754 9.7845 9.9935 9.672C10.3135 9.5295 10.749 9.493 11.5 9.5C12.0845 9.5055 12.253 9.5405 12.481 9.593C13.1705 9.752 13 10.1715 13 11.6445C13 12.1165 12.935 12.78 13.291 13C13.4445 13.095 13.9705 13.211 14.9065 11.691C15.351 10.97 15.7045 9.774 15.7045 9.774C15.7045 9.774 15.7775 9.6425 15.891 9.5775C16.007 9.511 16.0035 9.5125 16.1625 9.5125C16.3215 9.5125 17.916 9.5 18.266 9.5C18.6155 9.5 18.9435 9.496 19 9.701C19.081 9.9955 18.742 11.0045 17.883 12.0995C16.4715 13.8965 16.315 13.7285 17.4865 14.7675Z" fill="#006AB4"/>
</svg>
