<svg width="25" height="25" viewBox="0 0 25 25" fill="none" xmlns="http://www.w3.org/2000/svg">
<path d="M21.3484 3.63507C19.0036 1.2889 15.8771 0 12.5477 0C5.69212 0 0.107399 5.55952 0.101432 12.3842C0.101432 14.57 0.674224 16.6964 1.76014 18.5792L0 25L6.59905 23.2775C8.41885 24.2635 10.4654 24.7862 12.5477 24.7862H12.5537C19.4093 24.7862 24.994 19.2267 25 12.3961C24.994 9.08767 23.6993 5.97529 21.3484 3.63507ZM12.5477 22.6895C10.6862 22.6895 8.86635 22.1905 7.27924 21.2521L6.90334 21.0264L2.98926 22.048L4.03341 18.2466L3.78878 17.8546C2.7506 16.2153 2.20764 14.3205 2.20764 12.3782C2.20764 6.71181 6.84964 2.09076 12.5537 2.09076C15.3162 2.09076 17.9117 3.16584 19.8687 5.1081C21.8198 7.05631 22.8938 9.64006 22.8938 12.3901C22.8878 18.0744 18.2458 22.6895 12.5477 22.6895ZM18.222 14.9798C17.9117 14.8254 16.3842 14.077 16.0979 13.9701C15.8115 13.8691 15.6026 13.8156 15.3998 14.1245C15.1909 14.4334 14.5943 15.1342 14.4153 15.3362C14.2363 15.5441 14.0513 15.5678 13.741 15.4134C13.4308 15.259 12.4284 14.9323 11.241 13.875C10.3162 13.0554 9.6957 12.0397 9.51074 11.7308C9.33174 11.422 9.49284 11.2556 9.64797 11.1012C9.7852 10.9646 9.95823 10.7389 10.1134 10.5607C10.2685 10.3825 10.3222 10.2518 10.4236 10.044C10.5251 9.83607 10.4773 9.65788 10.3998 9.50345C10.3222 9.34902 9.70167 7.82252 9.43914 7.2048C9.18854 6.59896 8.93198 6.68211 8.74105 6.67617C8.56205 6.66429 8.35322 6.66429 8.14439 6.66429C7.93556 6.66429 7.60143 6.74151 7.31504 7.05037C7.02864 7.35923 6.22912 8.10763 6.22912 9.63412C6.22912 11.1606 7.34487 12.6277 7.5 12.8356C7.65513 13.0435 9.68974 16.1677 12.8103 17.5101C13.5501 17.8308 14.1289 18.0209 14.5823 18.1635C15.3282 18.401 16.0024 18.3654 16.5394 18.2882C17.136 18.1991 18.3771 17.5398 18.6396 16.8152C18.8962 16.0905 18.8962 15.4728 18.8186 15.3421C18.741 15.2115 18.5322 15.1342 18.222 14.9798Z" fill="#1ECC1A"/>
</svg>
