<svg width="25" height="18" viewBox="0 0 25 18" fill="none" xmlns="http://www.w3.org/2000/svg">
<path d="M12.5815 0C12.5903 1.93398e-05 12.5999 4.19028e-05 12.6102 6.82264e-05L12.7208 0.000421177C14.0049 0.00525612 20.5129 0.0536056 22.2675 0.5371C23.3432 0.832802 24.1902 1.70424 24.4777 2.81043C24.636 3.41817 24.7463 4.22594 24.8232 5.05671L24.8381 5.22311C24.8502 5.36195 24.8614 5.50111 24.8717 5.63975L24.8837 5.80582C24.9865 7.26972 24.9984 8.63962 24.9998 8.93934L25 8.97977C25 8.98308 25 8.98849 25 8.98849V9.01119C25 9.01119 25 9.0166 25 9.01991L24.9998 9.06034C24.9984 9.37138 24.9855 10.8349 24.8717 12.36L24.8589 12.5266L24.8453 12.6933C24.7679 13.6103 24.6518 14.5208 24.4777 15.1893C24.1902 16.2954 23.3432 17.1671 22.2675 17.4626C20.4544 17.9624 13.5657 17.9974 12.6102 17.9998L12.5366 18C12.5306 18 12.5253 18 12.5207 18L12.4907 18C12.4907 18 12.4838 18 12.4792 18L12.3897 17.9998C11.9069 17.9986 9.90866 17.989 7.81605 17.9154L7.54851 17.9056C7.50387 17.9039 7.45921 17.9022 7.41455 17.9005L7.1467 17.8896L6.87947 17.878C5.14586 17.8 3.49297 17.6722 2.73261 17.4626C1.65695 17.1671 0.809919 16.2954 0.522431 15.1893C0.348265 14.5208 0.232154 13.6103 0.154747 12.6933L0.141095 12.5266L0.12827 12.36C0.0185624 10.8904 0.002637 9.47791 0.000325249 9.09879L4.90028e-05 9.04453C2.96171e-05 9.03964 1.34623e-05 9.03514 0 9.03104V8.96864C1.34623e-05 8.96454 2.96171e-05 8.96004 4.90028e-05 8.95515L0.000325249 8.90089C0.00241891 8.55756 0.0156787 7.36666 0.0996577 6.05333L0.110528 5.88858C0.112402 5.86103 0.114308 5.83344 0.116247 5.80582L0.12827 5.63975C0.13862 5.50111 0.149805 5.36195 0.161891 5.22311L0.176832 5.05671C0.253745 4.22594 0.364098 3.41817 0.522431 2.81043C0.809919 1.70424 1.65695 0.832802 2.73261 0.5371C3.49297 0.327586 5.14586 0.199782 6.87947 0.121822L7.1467 0.110217L7.41455 0.0993726C7.45921 0.0976272 7.50387 0.0959124 7.54851 0.0942277L7.81605 0.0844761C9.77509 0.0155492 11.6514 0.00278493 12.2791 0.000421177L12.3897 6.82264e-05C12.4 4.19028e-05 12.4096 1.93398e-05 12.4185 0H12.5815ZM10 5.14259V12.8571L16.495 9.00005L10 5.14259Z" fill="#E31F26"/>
</svg>
